<mxfile host="65bd71144e">
    <diagram id="xPAQNTFPLVjKlj9JMlPy" name="Page-1">
        <mxGraphModel dx="1443" dy="432" grid="1" gridSize="10" guides="1" tooltips="1" connect="1" arrows="1" fold="1" page="1" pageScale="1" pageWidth="850" pageHeight="1100" math="0" shadow="0">
            <root>
                <mxCell id="0"/>
                <mxCell id="1" parent="0"/>
                <mxCell id="2" value="" style="shape=image;verticalLabelPosition=bottom;labelBackgroundColor=#ffffff;verticalAlign=top;aspect=fixed;imageAspect=0;image=data:image/png,iVBORw0KGgoAAAANSUhEUgAAAlcAAADrCAIAAADLziT0AAAAA3NCSVQICAjb4U/gAAAgAElEQVR4Xuy9P3ijSNI/zvye7/OINxIXWW8k3khcZC4yG5mNzEZiI3ORuchcZC4aLlNmNjIbiYvMRiYzG5mNzEbiIjORmchsZDYyExlH86sG/eGfbGzLM5anCWaspru66tMNRVdXV737/PkzgS+MAEYAI4ARwAh8kwj8f9+k1FhojABGACOAEcAIIASwFsTzACOAEcAIYAS+XQSwFvx2xx5LjhHACGAEMAJYC+I5gBHACGAEMALfLgJYC367Y48lxwhgBDACGAGsBfEcwAhgBDACGIFvFwGsBb/dsceSYwQwAhgBjADWgngOYAQwAhgBjMC3iwDWgt/u2H8NyUOdJXkrhq5TX2OpnmBFX4iN2ORJVg9X1FviKgxFSzaS5JVcjkj2FP+VMIPZwAisDwJrpgWTwNZlgaV7JPnuHUn1aJaXFMMJkzLiscW/W1wkVGR4xfRntdALseGFkUaepUkcg6jnbUTVdKO0YTTRyzzrgDdf0XuwgdGVFXlKD9RXBednUU+T5FOSJE3wPovul2mcc7+mzLeGKPUUOpvnpOi0boQrYgTWC4H/tzbspqGtSMovH9L+liiqCtKEaRwFnuuOfvyPNhjqlqVy1FycTndHt1Um+50moN90lfciL9A5sknkxDckUfst6W1LEiJOEUkUuLat/vCzvnME/xdIE0RC8oZzFpiStkq10MTX2y0jeTP6bK6rfJRox7cE0TiX1lWmBr7TnmSdia4uGg03cRFG4G0gsC5aMLIl/u8utTu+MBV2oesIQtGINHINVTV0R3Rkej4sJM0KAj/7KUo8zbGa7miOVGye3U8DXeD/HfFHk5K2k2RVj31DFv/F87HnF/QnRXM8TZAuRQRvYxpgKZ6AwFtXgQAJxfA8QyQWPCNPAAg3wQisBQLrYRGNLUX5ldxzfLusAnOISVrQnDAqqsAG7OF5pokwaDBgBiN5FHJjzy0v+DIaPU51vTEX/SSPgnYvgsgSexQtu294lZjmW1Bp4psKzyD7MUWDxTmoiAyrdzAw0xSJbNeZSTouQpjaQsUunYaOgezdFNi7gSQnqpZfHa/Et5SsCqrBQg3oFay1lOQWxhy+i3Q554yEniW90a4dA/sC25vxJxtewfqNLMCwaenpIgPscEZYmVLIqk5r2UdQaqMdOa9SIbGgglrcpwPxMq6AHuAhZCb6UGNgUVwQEmz+mjgHLauUBlBJKFmjYw9YR8jnOMH0Txtm57MErIiDf2IE3iwCa6EFA0P/jdg1DKG2invEuCRhEBE9MHVWrtQ1rA+0Yii59bR6G34zcHPw0dS9hhdNvXoShn9+iqPoDWvBTOjYkjnRIiTd8X3f1mhf5YSCrogdmWVlO+E0y514jqUJiSmworn0WwJW+wwrmwmrGo7nT1x7JJKe+h3DG/MmaWiJDK/6lDDKiBoKHY54TrZLe7eJp/GsaEQwbI7neRbQcWRO0P2SCg6Bm+80jxR0yz13LV3uBaPvWb5Y6y7UBdmlNdv1rOWzoz4DGktiV2FZyURc2R7Cg01MkQXEilwBaBwnO+kcNDYxBFaySvKlgcGzwijoybqToSD3AHv4WivNuPRLC9goNS7ECKwDApBZ6bVfV+Mtort7dtvI523hmle4Pt7ubOyd3eT3bq6vJicHW12iOzy5RnWux3B7f5JXvzjoE4P3F43E54UX7wdE/6BSaXLQ72yPM4ql6+bq8rqZ2WrNNfp9vr/R2T6+yTi+PR12CKK7M74qCHB1tAWgnuclV+Ptbmfr8KIEw+3l8c4GPBPbxxlmtyc7i1G4PNzsbOwcX1Zwuz472D04zbu5hUFAdYqdApXJ4RYw09k9y3u+OR1udAb75zmnM/6uT3f70PPm4WVWcjsBUsB/uburk+EG0d87z3gAeQliY/esTGdGL59D/Xza3J4MF5LPa9zAHOwfTCfZ9fFOt7P5flKmdnUMHQIe0zmEEOzWQRvvdKHSzgz78/0+0d89LU+7m/ODAaAwn9QrEHAh6ufT3U5neFoowH9iBN4SAuuwFkxgXUX1evVtmMhg3/1P4XpHq/N9urs/f/nhL/m9v/zv/333dzsVx54t9WpfJnGSwBKxXl6qCBU64M9Ya9xYQNFgq2q885YKB4qu0AWBaEFkkiCMUBEs3n/vqabGlmAgGdkabcPLunalrm5EvG7JTAW3nmDYhph1k3q6GXEjq7D1i4pJTjPVwZxiZOkuIZsGX17z90TTGCJlkl2w/AdSBizwSt3RkmUME1u3Z+O8ISrPMj/MuQoN3eupll5ysSIIWjYLePiGETAaLBIroCmmjvR8fiWObiVD3RTLE5bidVNGej6/vriA857xHxiB9UNgVVowBacTdL5getW3SZ4BDdUDj8244cRCT7IvJtPr/BDer6B+Zv10usPxObp3cXF5eXVzGweWUn6/TGtSFEUgTXjvFUfxHaqIrzm+LFcxISN8kmyUkiCI+4LI1tHq8QLToAZDz09YUbj3UyQKgrS5DivyG1PNkQZ+QPJigx8wBaWznkMfkeLr3VGCyBFAIme8QzN0XYQnlCR+EEH/9+MRA2gInjp9mhfnoIVeQHBig24mOZGbq/kvLWCdZ1yCEVgfBFblI0oKRhDqC7mp+ivmyaDQPD/4ZFpOIlbcO8HzgZ32k3pWeNeXuUW3yC2C4x7ulOW57s+2G2n3vPJC1/3Y5YyGN9TD9N9oDdB5lXUbmf1GWvCeC76Smu42+XbU6jW2zGrNiS6vUj3V0MxImbuW3z2IVF0AVDLvJF38WRPr4YIiV834IQwqxzZWKODDHOIaGIE1RmBVa0GC7NHFq/qKfBZErKJtE79qqhsvIxNZIyvZVOSGz+1lTWblpKDK/Q8jxYqW1YwsVf8wUDThvnfsssZvt3w5GhTL9mLPC+uyJ747XWiV7sEhFjJwlg8vqkyzDNTxGqZA5Pt/zJQvy7Gp75QcYfKeUuj5btopzQEp16uv/1MP2GMWi9zlIpbY7/V6aRxXyCVRPLO0U/CxFvte1ISHF0656mWguU2gFUoRc34T60Tg+Z9mHaxawDrjuAQj8HYQWJkWfFFIaNk2h+kvIi9bJZ+6rNMUzkgIqk8r5vSQ/CNZITndfk97Cg8OjLUXYxKYIq94zKE9aq1hkygqHQl4JD9voDqralyoK2UHSHArdRTtt7uZLirISYmaTP2mKXZUET7xdEXPNR/Jawrt1+qAL6Qy+u+8GS2pQmKp2jxOUH4H/EZV+89ZLUqA7lxNdcoqNfFU1SYkrbLn9vB4gDmB9MwS86lvOhHNTW0TnKKyga5WP7RiVx39NoeDU1W2GTSoNKuVIeWo1Q9COPGqGB/nnK5awIchwDUwAuuLwKosoi+NQE9yfFIR5X/81dG3RVkSIM5ZHt/FMq3fY2bfcY2G3aB2bIEe9DxKEv/5N9ocSpKIznQRcRR6tuX8/pHcOfJstXFPsYl8oHF/+ynaHocQfKrp/jdRRiu27XMSx/mahs7kETGAqesOKQz7c+eTAhIwAu445OFwhZM3gLhAWQsrZEYeldUk2ZFjBDycJXChDs/AEAWuqRs+LW53nRkxCHbi+LzAs6E6UuHgHZlEvm3odsyLm9FsoQXdOXrASywnayrEzCPTKIBKVtBT3SecxyHF0QiOKnB8MFIlhkpjHzj/JRFP1dmXE6PapsfBWQlP0ySYXigyEXQIZyJ2+vMvJlq1LR/JVwDN0nWXFHb69kw+iFpkjwTYdOXlkSpz0FvkOybgxIlbgTevtVoBCyOF/8QIvD0E1svh9ebi5HBvZ2uw0UWeDp3uxmB79+B4Uj2tkJ2UmHnt1yUsnZRY3L69OjvaH06JI9pbw/2js6ulhx6aT0pcwXGAbh+OadT7XeeS6kmJuVP+XCh0NKB05AQG62C42YehygZqf3x+fYtORDSdlMio3FwcHwy3UAM0tv3NIWpSAe16Mt7f2UTjn9U4OL64uQXe4CRNoeLt5enhbk6og6bIIYwiGvTZSYm86vX50d52PpVQrT1Ua04EybtzsnwQEbnpSYmsze3lyQHiK2d9C7qscg7inbzPxOtkeOwdAR5oDu2cFKZYhsEctJ398eQ6OyIyOymRM3iVsw5AAQpbw/cnl7fo+EplUJ4lYAFOfFKiAAb+8+0h8A5EenuqHUuEEXhhBCB2DK1zfqS3MZTDwjZKe0w9ZENiCz2N8SKjhRvXCwuEyWMEvlUE1mNf8FsdHSz3K0YA/D5bcxfqPMOpVX8c2M2Dc4SihFVgayBxRYzA6hFYl33B1UuOKWIEnoZAEvph7DvhHSXnO5YPkkGbeQonCFw0GqkoCmqWscQcwUap4o6wEnwQQFwBI/CCCGCL6AuCi0m/SQQgjqeg+SmEmvEgcnprEVGscN2w3QDizN7BRiTHy8iBh2m/omzdFa6IEcAItEcAa8H2WOGaGAGMAEYAI/DWEMD7gm9tRLE8GAGMAEYAI9AeAawF22OFa2IEMAIYAYzAW0MAa8G3NqJYHowARgAjgBFojwDWgu2xwjWfj0CosyRvZZHLElemKVqqhDF7fhdLKKDk8KzeEKZzSf37ixNXYYB5uyGs6f0NX+6ugzLe+y9HH1PGCLxRBNZMCyaBrcvgat4jyXfvSKpHs7wEKcXDSvzP2OLfLS4SKjK8Ys5jS6IXYsMLI408S4N4Woh63kZUTbchoxOR+KYMcbAyHhheXlB+o7MExPKUHqivWpzVZwicQsLGT62TNj6joxdpCtwD87Mg3i/SxSsgGru6xNEUmug9RlCseqDdV8AkZgEj8DwE1ue8YBraiqT88iHtb4miqiBNmMZR4Lnu6Mf/aIOhbllqIYsppBLX7Wl47TQB/aarvBd5gd4cbTTxDUnUfkt625KEiOcnumxb/eFnfecI/l+Qjh2Jk1xK0gyVpYgIQlmqPBe4vlnJ7Pq8gXn7rSE0bCJWEx6ti9iUaMe368p8S5AjS+CUgJY1c8RQSQjRSv/B+aHvw3K+JQVcDSOwFgisSVC4q5PhBtEZ7I4v6qEdIf7n4XDQHx5fzYRpiiN6ebTV6QyzyJDVOKK3F4eQzXtj52hSI349OdqBjjffT6axHm/P9jYgHuVFMfTj6e4GMXh/uSZQPo3NYhzRp1HIWhXiiD6DylOa1uOIPoXKK25TjyP6LGavj3e63e3xVYEIhMjtdrbHtQCpz+oHN8YIfG0E1sMiGluK8iu55/i2Asuv6kXSguaEkF+Jrt4p/mZ4nibCoGEjJxjJo5Abe25xLTlt2uNU1xtz0U/yKMjMX57tJJDjp/g5TImquAFJ7nJzYQQnqSladldpPLxPrq9wL823oFIwDENuB2Q/pmiwOFfNZbB6BwMzsqfNTNLlhFMQPbO8U4fOlSN7NwX2biDJiarlV8cr8S1IUpETpVmoAb2CtZaS3AIQaeTqmckaLjCGS3qjXRtqGXkt1BsrgM180RuyAAtW5OkiA+xwRnVDEVnVaS1AnaY22pHzKgORWFBBLe7TgXgZV0APTPSou4QINYbkzYKQYPPXIBXGFLSsUhpAJaFkjY49UxGQfDlOMP3raX4hkxWMDyT0mA2AbHgF8/4DAiae7RGQxokuiEVLikD4kO0eXxiBt4TAWmjBwNB/I3aNJ+S8KQxVEgYRpD2tKdHUNawPtGIozLJxZeDm4KOpe0gNsopdS76TolcQvNsyAkkIsUHiKHrDWjCTM7ZkTrQISXd837c12lc5oaArYgfSJMl2wmmWO/EcSxMSU2AhheOyrbTIlhhWNhNWNRzPn7j2SCQ99TuGN+ZN0tASGV71KWGUETUUOhzxnGyX9m4hlyDPikYEw+Z4nmcBHUfmBL2cejf1dZ79YQQGP91xz13gD/XGCuYigeVdqAuyS2u261nLZ8eyWVMpj13IqySZiCvbQ3iwiSmygFgRDwCN42TItzQDjU0MgZWsknwpxK5hhVHQQ5wjFOQeYA9fa6UZB3kXBfY7zSMF3ULy6XIvGH3P8kUY7hOQ5EaOO+LLts80TebzvKXcuBpG4PUj8LUXoy36vxpvEZA5pznD0W3hmtPKLKKQ3Ci/d3N9NTk52OoS3eFJZs0pWUQvDvpgzry4nw/IbUP0D5ZUuj4ZdoH03Jp6c3V53czs/Z286rvVzEoE0d0pm8vA4jzPZnU13u52tkp2Y5R8CJJOwRMxzaz0+QpazHIdIUvpxs7xZQW367OD3YPTqwyZLMEQ1Ml/zcC6nSBrNtGZZVa6OR1udAb752Xb9vXpbh96nmdWugG7NtHfPSnRur04Aq6ncwHkJYiN3aUJsgqZlW5PUE6j8xlH0/9Roqn+wST/hcyLyKxe5urqGMz8gMfUxojw6NZBG++gdE2zzEqQRqoPnJ+WzZI35wcDQGGeWel2AljBAJXxzLYV+nvnGcgPCVgRB/1EDG5MmzfcxkUYgfVEgFgDtpeqoKujzfJnxkxRgRasfn9sbO6NZ5t5JS14ttedv4eWgoFadPfOG+5nr85u9d3cUHHNi2pasPblgBTZVq4Yl35ZIBwbtCDabAUM791wuj3bXbIphebHTAtmL+r9/D1fQhy0Y3euBdFXUnf3tLYL/Bm0N9xAH1xISdRV24Lko7TgJeikGl6IVo5HrgVRqsFyAsRpb/AV2JlpwZuTnU7xi2vOUKYdZ1rw9hRh1YDnDXywTVMVPiRgdb7eTA7gQ6Wqfqu18G+MwPohsCqLaOpIYBKcX/VtkqpWesRvCmWVjxtOLPQk+2Iyvc4P4f1KQxbv6QXvivE5undxcXl5dXMbB1ZpM2/eP0VB0vLkAftlHMV3qGL1iixJ0GLJse/fk6w2ewO/OyxXMSEjfJJslJIgiPuQDr0uZo8XGJRDt3KFnp+wojAfvOp99DsKgrS5DivyG1PLXRr4AcmLDX7AFJTOew69kOBEoT6etCAyaeBFGQMdmqGbOHl0WeIHEfR/Px4xgIbgqVOneXEOWgi7co2ck5zIoTVjdoU+woqv40kJIkcARnm19gKCFVYULHLkPiZ8eF0SXIIReI0IrOqkBCkYQagvJKTqT+CTxad5fvDJtMCvXiq/t8DzgZ32k3pWeNeXuUW3yC2C4x7ulOW57s+2G2n3vPJC1/3Y5YzKGwp2sngl4O1v8owE6LzynhGR74siLXjPBd9JTXebfDtq9RpbZrXmRJdXKZ1qSAlIDrikLiqeCtH03VPjCvVOEnUBUMlcWtTdkv4aCFaLik2XkiEr6Q6bOyw3bycgbDGKgpbIrqfhMxLVscG/3wACq1oLEmSPLl7VV+SzoGIVbZv4VVPdeBmZyBpZyaYiN3xuL2syKycFVe5/GClWtKxmZKn6h4EC/hOFGuDIwMs+Z3n2I5LrLOthLcuXv9Uplu3FHqy3alfiu9N1SOkWzbFk4CwfXlSZZhmo4zVMAXDP/WOmfFmOTX2n7AiTdZVCz3ezTqEW0Vgr9tyAXKxyl4tYYr/X66VxnJTKYFkcgzNW9lVGwcda7E9XmKVaie+FU656GWhuE2iFUgZW4L5bTdeLaAae/2lGm+YAq6ZaKchHIBrT62EBkUcSr0ai4xr4PGxp7PCPt4PAmhhxwQMFnRfcq/lPgNfE1eneoNMZHMyO9MF2C/KOqfkrzEUt7QtCKfgSbHY6/WHDYcSbi/Gw36k6elyfQY8bhQOKJRRvrq7evnfM3BFjLjpyB5ltfmX7a9tHFWeXqY9Kg3fMLWyKERvDsrcKUL45P9w/PM/3C3PvmGqd28vMe2TuHYNclTqbBxU/lKn3yMI7Bo54woyp+9Cg0mweoX3QnYXHU+0xKewLfs634Uq+QiBQcSsQHVatzxeYRshnp+Qdswy0ondMp793Vt5DzU+8Fr1jYJOxv1fzodmHaQteY0iahwTMJEb+NPDUVejUwMAFGIF1RmBVFtGX/iyAQCM+qYjyP/7q6NuiLAkQ5yyP72KZ1u8xsw/fqg27Qe3YIjnd8yhJ/OffaHMoSSI600XEUejZlvP7R3LnyLPVhS0IQkjy4i+pOFboyFt84JM9WEOAxTbQuL/9FG2PQ0+h23X/BmvRim37nMRxvqahI2tEDGDqkFpdGPbtyqIJiQ8j4I5DHg5XOHkDiAuUtbBCZuTldnCSHTlGwMNZAhfq8IB1DPnadcOnxe2uMwOxJ1mOzws8G6IUthxNJpFvG7od8+JmNF9oUaJpwygKbKhoishCrTCrFbGGtyS60D2jRIqjERxV4PhgpEoMlcY+cP5LIp6qM9sEo9qmx8FZCU/TJJheKNc89AdnInb680OUtGpbPpKvAJql6y4p7PTtWfcobf1IgE1XXh6pMsy4NPIhqosVcuJW4M1rcbqjB7zEcrKmQlBAMs36s4KeWjvns1QwZPH/u0vtmRIVFlb2JM0BrEtb4RsYgbVDYL1U+M3FyeHeztZgo4s8HTrdjcH27sHxpOpc+Mi14BQDiEFztD+cEke0t4b7R2dXJed9WFRsNrh3ADPdvbOMDgTY2OjCx3rdAXG9oK5wW/URvX8tmDWGwToYbvZhqLKB2h+fX98WY8cUT0pMGxwfDLdQAzS2/c0halLh43oy3t/ZROOf1Tg4vrgB98gNcOwsVLy9PD3czQlBUvft3UMYRbR4K7tgghEBag02oDtgcHOn1NtDS6XiWhD1fHt5coD4ylnfgi6rnCM83mfidTI89o4AD+QYunNSmGI3F4DBHDTgaXKdLYJna8Fcyqvzo73tKef9reH7k8vb23rsmOu8FsITwbCHYJij9ICA16fZOrXh6j90rKgyYvgnRuCVI4BzzTc857gII/AQAhA7htY5P9LbbEXDwjZKe0w9ZENiCz2N8SCKzkP94fsYAYzACyGwMu+YF+IPk8UIvFIEwO+zNWehzjOcWnVqSQNd93qihFVgayBxRYzA6hFYl33B1UuOKWIEnoYA7CGGse+Ed5Sc71g+SAZt5imcIHDRaKSiKKhoX9A1R7BRqrgjrAQfBBBXwAi8IALYIvqC4GLSbxIBiOMpaH5KS5b3mEPkKFa4bthuAHFm72CfjuNl5MDDtF9Rvkk0sVAYga+NANaCX3sEcP8YAYwARgAj8PUQwPuCXw973DNGACOAEcAIfG0EsBb82iOA+8cIYAQwAhiBr4cA1oJfD3vcM0YAI4ARwAh8bQSwFvzaI4D7xwhgBDACGIGvhwDWgl8P+2+xZzgfTrJG9K2I7soUJblfVtrU11iqJyyPDv9l2UG9eUqPlOZB7r58/1+0xyn+5iua5N8U/k8Y7DXTgklg6zIcuOqR5Lt3JNWjWV5SDCeshKaMLf7d4iKhIsMrpj+rBXE/yJ7iV+FKI8/SIOgiop63EVXTbchrCD7vmsj2EAs54bhKqvo7geyGEE4TUjBSNCfpTUSrTfBvjMDTEEiT5FOSJLM0G08jgls9GYEM/xjj/2QAv3jD9dGCaWjLLP23v4+8hBFVwzw5tYyRwkM2mtGPf+0xojFXchmIne7O0Vl+ObY5EkhX5Tk45bUE4cQ3BJr5XrFjIK5btm0ZmtiLHfWH/2OEMunIErkfzZjVrNMzWxcpT/2Ok92KHi52k3gKxykuwY9M2zYUOtB/4MTX9Km+BBNcvJYIkLwZfU59dZ4+aS2lWF+mEf63aaBh/NdnDF95nNMZeyjFC2RW2m1IfgSplc4Oh4N+IdFRUzRtlNymM8xy5dQyK10cbnWIjZ2jSj4eVHVytAMdb76fpW26PduDXDPzn6jKyU63M8uO0wAnxEImNnYLyWmyrDsbu2elMN0NDd9iURZB++jqLYrWJNPZXrcc57up0tsvQ5G7d0/fvpyvVUKM//0jsx5rwdhSlF/JPce3FbYetIqkBc0JI0em7/v4YHieJsKgwXgZjORRyI09V+VqxHuc6npjLvpJHgXZOhK+9MI4KGbfoagecZfWk41PmUHZl/oyLCznzJGcpnKJ5wR5CXy2sxTFGeF93L+Se7FvQboiSDxFIns0K8i6E5aX12nkGjLkDgKTNVh/WQEM0Q2QI3E8uUeKtc0iRyLnO2nwPU0KVpz4pszTYE2G5FWSkQfjTAITJVfKykS9kHs33wJJwXIAocpmJmijmpw3jRwdbN+Z6RuM2rLhximyk7P6klGIHDVjgaJ5xQoKC39kHZe4zESP5BXV0t3asIEsuWkc4Zd1XLe4g2XeROmeFhgaXrXWfQOR2kLF4P/AoCCceSuGWgBKJiWAqtU4i73CyHISPHNp6ogkrZb2FsD4rwLz2QyB8W/Gox2pCnoo+A7aDgEGEW0OsK7NrbiKbwm5bFdaD7P9iWzwwYYEcqJ+sgkzLYPXSQXvBwCsMAqgUHK+G/zwJM/aZsOZSZZvmUD/CNqe4hVItwOtFf6Pnv8VCd/Yz7XQgoGh/0bsGoZQU1KPGI0kDCJI/l0jkbqG9YFWDGWpBYOBm4OPpu7lapCkKDLrN4VUAb6tCbJN7moSvYQXpB9nLWZVyIzCVH2kURR9+hSF8zxzSwh97eLE1zmG14KeNLJc/8JzTIWJTYll5XmS+NTXefaHUUCDdnTPXUsTSLAXs4JZUZWPEAWM0pxoEiIQdC2V9jVBMAJP5QUrFUdQZmtMCPn2Storhu8ZXo+Fke0FvjOC6J0CXzCGJ57KsRLYtGFH2fM8ayQSYGwX9LJJvchjZEqSQ6q259ka7Y9Ua6orE08DSnbCaabrTVxI/AfyopKoUUKwpTPfaX5PMmxv4jkw5SIdEgXqRTt97CocI+gRzEjbA5RhHxxM6ALDafNY3C0Goth9u0FJPZ3nVJ9WLc/3IQdhCinmlYWdHwJ/88z3ekjLhuMi3mXKBzu/VtkJAAlZ+G4kBJgiqJbKRkBWsosfQi1JVRCEZIcMK5sJq8Kg+QhrEc0thjfyr1OonoamwH6neaSgW2j26XIvGH1fwZdI/REv6DEPHMLk4SJDhHB4PgTFG03LRnxs/licL+0AbBzxNoUpRORjv1OB7ZHtegCaRLkqoOg8AbQ2+BOPn/9txFjrOvcvFRgV4GUAACAASURBVF/F3avxFgF2pWYD4m3hmnObWUQhxV9+7+b6anJysNUlusOTLOlbySJ6AVnOZynSl4qLrJr9g4vS/fM9lEwOrvuTCYIJtdvZKhkBs3zohYRxt9dXV689HeENys6+Wc3O/vn2Yry3N77IxuYGjMVEf7ecMP724mi7O89B/7lgET0H0/KwZiY73e3MbYgIdaKzdZiTz8BHRZCdb6uYxv7qaLPTP5jkgwPGn2qbzzeAd3d4mk+gDPx6mvmTXZROr5yAcD7cZ7vdhimC5K1Rur0cZwbyq6xx0SKKTPLdneP8xoz0zTmkf+/vn08nNySn7HZLAmcVb84Pd/eOL/O/HxyI25Odzjz9Y5tByXAmBvvnhUmYWf5ndn740Ydp3pS6Hqb/DPrPF4ebIOH4svSk3sJ2AzwoM4toS1IzfKb/o7SUGzvHZcrwIJ8d7B6c5ojeTiALY633bCelvzfFF2YfEvRgtr0B1NG7oNPtbpbKjnfQJMzFaANghVvI9DjLNvrgJM+3R4blh+bzzSRLY7qxf56RbglaG/xhA+fx878i35v7SayBRE0qKGMbXn/lL5CZogItWL4BE2pz9rKuaEF4URH37Orl+KBnpbt3XgLr9uri/Ox0/H446HRAEdaSqs4rZzuSg11IBgzP1c3laa6QT1+73isJi7RX6e1Rupv9QJ8e3d0Gsa4QeNOXyqO1IFAsvVTRt0etDLaddrId38+fkRbcmL31Zkwi1qZqLFOZc61TkAKpymVaEL7DOv3dykt4qbzolT3traAFUT7dJiV7e7rbne5Xf4YvssoHU4HB/M8WA1HUgkuZLA5K9mmRb5kv+gO+ZlP+OtMKDSOL8hvPtWD2uTdT/yW+AZCZFmxHqiI10sjw/bD8CYP6GYzbDXXQuM4+OZEWrFbKhK80RCM4/XBtBWCF30dowZtT+ECbzd0iGYC2P9OC7UBrhT96Zz5+/tdm4RsrWJVFNHUkZNSeXWWDdlUjPfI31YNMNHF1ZwSI9CT7YjK9zg+3OwTNzHffOt3h+Bzdu7i4vLy6uY1hL4DNLZnl7imKIuLkHhdPVD2O4jtUsXiRcExDEBXd8V2ZtGUNDKaxJRRRYLVs649RXXdE+8p3//s/79795a8//vzfdGsEzqVlPl71r9T3AooXuSYAZ4yHXkhwYoPVmhZEJg28qFHC8q5irUqH5sqjBvboWhkamXThmd5h+MpIowpwdgCoAx8hyYt8XRAQj4XP78aLVmyLD1SW4VV7btwNveDukyNle4ulix19uPsYFDcPgWgc+H/cfRix1cqwC+p8ugt8ZGONfT+meYFu5CEvbDMQxeZtB6XDcJUddwCaAp9/ND6hH8DI8vUJS3ICPzWIEEQUBCkjNnEPW/KzvPXtSFUACD0/YUVh/mw34QOEU1bk63UoQeSIACTIr06PXbwkUBHVI2tlMEjwxsneCW0BbOJpXrZ8ksMkSlmp4aEBaLnZdGwHWiv8nzb/7xXuDdxcVX5BEnZrQn0BCHiMrOyieX7wybScRJQqeqjHsNN+Us8K7/oyt+gWeT1w3MNMsDzX/dl2I42hl1YOXfdjlzOY5goUrymsZbohwUtWwC+mPOx05y2ghhupSRTHkS0LI0K31syPPZ1tYjYjkJWiOvD2aLxQcfVVkNWtFmYdTfddM0q1b4+GMlSvSKi6DQvpcEnYxc3oLb9QpaUXpFEKwS9mpIIqdCzPzreBO9t6YIlNzcDxoqY04Bvc8Rod6MEnAtV+kMUc5KVMNtxoPShVnMEPDA1QAbQmMe+DrMBNtWn1d1a1sTAn0gKYjELj9KsUom/q8kWCJqy8WBa8tAawQnT6s80kb+S6Tq4Rn8bCWttWte6d/zWSb6pgVWtBguzRxav4Ins2YKyibRO/aurcC6NGMbJGVrKpyGztzoMFpKDK/Q8jZfkBvshS9Q8DBVw94IPXkkDVRRWqyAMm83gpo1B+tkAnpu5oFLBrpwNBFzEsDV6t/n1oshxL+E7DiczYcwOS5ZhK4x7dI+I4LpeiL/Ber7cobHqAm8qKZO55nkmWZ1LPbeASrbLu7pOP6HGy6Qcm46ojF7QDrJ6IMIzL8x49Az0iSclehUn4YKPiMCJLT0n2g0yTqfsUzbJU5OU+i0s4aTMQxabtB+UeUHMiTUdiA9f/NOsOcR86Tc9o5Pl/TGu1I1URHtkDgkbKi4o0x5CBO/cgWtyA0Q5grKqzr9zFckXUHsDGEXtokjMsQwTu3MGnQCPw/Nl0bAdaK/yfM/8bBXwbhWti4YU9XXReEFwESrtEiPvbq9M92Jor7lo1nRcsCFo7Lzh5vwl7e8OGw4g3F+Nhv1Pw0IDtnao7DOyf9xf+H8sBRVsxsN2QOzmU9gDWwDsG+W2gY5OV3czby+ODg+mgZA40db+TvHTqkFA8L5jtlL0vuL58/oy2UBe7erBlU3QiyiBDW2cFx6K8DOptjfNto+ajUYs9rtw7YHH+czoOmZfKUu+Yz+BmNRuwjKlsEzKTt+bKcl2cDSXvGOThUTw3iijeXoLz0MxrC+RH/iXbRdefrNubydH+zAvk4YEoe8e0GBQkUn1LDQ3P8CSTO/MDqjmBIb8XwKzgHQN0NgrHdjPePwPDyGFpel6wJam86exfcCGBTbKqC0nmNbR/eJ4PPKoDPDZ58CBHuZwVdFr1sPwANp1gvYZ94Jk7VJtZXeb2c2Ff8PNDkzzDA3xzys9VNi0W3jEtQUPj+BD+T5v/FQHf2s918I6ZYn51ur8JM6M72N47HJ+cnp2Db8rx4f52vwOn2vdL3imP1ILQwc3kED2r3c3h/uExEAfS48O97QGaiuXT9JnO6wyG78eo1skRYgBN45p2rkyVXAdWHkFUJ3PLQBvhD1H4ynPv+mwffSvsHIxPJ7DXejk5O848gwaLN8/N+cFmN69yPrmYnJ0c7W1tgHPfwm2w9M7JPm26W3tHJzCY56dH+1vws+BF+SJaEHkWIkFgBI/PJpeXF5PT8cF2f2NrD4SpviJzyC/eb25s7Y/PJpPz4/0t8GaYOWHcnIHu7G7uHmWIIHn3tzeQGpup9vKpeXAfBTS2D47PoPbF+SnCD/xVS2/uK3BW7XRz5lAtxN1ONsPmHpwPDURJCyJV8dCgPKgFQVtPwNOz098+ABQyURHvG4O9XXAbmvuIgk5HEqIRPT3PRDw53N3c6A/3wE14fmq+HanKZJ9S3tw9PEGUEXpougDWCw/i3B0ZRuroBM2+89Mxeja7W4tPt2z2PVILtgGwwmxRCyKtc+8kh/F5P39oLi7gqTlGoA12h/DRNPURXSn+j5//X/nF8/Ldr5EWzDTGxcnh3s7WYKOLdo7BZX6wvXsAzpcVoB6vBREBiEFztD+cEke0t4b7R2dXdeV0PRmDgtwAFjrd/tbw/Ul9gVodOdCBcF6iQQdCt+cHA3CPb1gjVol89d8Iob3tzRz9DPzD04rssDI/3AUMM3A2Nnf2x9Nv9Zz5ypc3EHw/3Oqj0US1h+9L5F5IC6Khvjx9v5v12+mAGHuHMMzIQlB9RU4Rv0EDntUGHg+LBwrQjJxLkJE6Kspbix1zfQ4A5tM3mzsHJxc1X2FwI36/i+ZXPsE2d/Zqs/DegahowWxm3zsoLbTg9PEoTPtdNFa38MIvaEEEFzwc+zvZFMnG/+D44ga5kpZix+Tsz5+gZaQq8/3m4vhgOlnQgwcfrOW5lfVewHc2sAsyT9OCDwNYYbSkBbP3yj2THLWd4ZGBlr1RLm5u4LxL6XhOS9Da4P/Y+V+R7839fAcSvQ3T7quWInYU0WQsd82cYl41ppg5jMDrRACivsiUk1hCC/YSCJdBgm97bVsWAvpwgRZDVpIWVHCVZyGwMu+YZ3Hx5hv3RNPHKvDNDzMWECMwc/WtqbVmaBJHZpl6bP3Y1q2YbzpC0UwGlz4HgVWdlHgOD7gtRgAjgBF4AwgkoR8moePf9dou4SBkneHy/2A5X9dkFNkWhWWEbDlWyJq+XHCWfgPovFoRsEX01Q4NZgwjgBFYLwQgjidEX417guk9ENy/JBfEANd1y/GD+M87ottnOEEZjZTC4ef1QmHtuMVacO2GDDOMEcAIYAQwAitDAO8LrgxKTAgjgBHACGAE1g4BrAXXbsgwwxgBjABGACOwMgSwFlwZlJgQRgAjgBHACKwdAlgLvviQBYZaCzz64p1+cx34Kv2ukvV89RgEGk0KFuQaSH2NpXrCFxhXOC9GSe5TRZnyaUZPJbD6dp7SIyXnUXTh6Nw7Js/P8qh2uDJGoBUCa6YFkwBybwssDels3r0jqR4kN5IgY3gIL6biFVv8u8UFEfshv4RiznOJxyZP9hS/ClAaeZYmcQyinrcRVdONmnIRhDoLDMDFm3GVTPl3qCuj5UnM72/7mu4mtlCAdP5n9nIq45nYyrJk64QjkaSYvQLh7V6nt3jfRyaf32dKWeSXIQIpRew/NhWFW1Zh1eWQc+gT5Gpqmhur7upZ9DI+49fP571CspI4+OjYMNPwhRF4AQTW57xgGsLbVfnlQ9rfEkVVQZowjaPAg9x9P/5HGwx1y1K5RZwFSDut29NQLWkC+k1XeS/yAr05R17iG5Ko/Zb0tiUJEYd8dFHg2rb6w8/6zhH8XyBNEAnJG85ZYEpaRf1WRyg05NF/P7FStXwtf0PQxpGllVP3UQwE66+CEDmyoPZ8oyEj3VxwTnPOJZQxxxv98BNxcDqCjB0kpGzMK6QEO7LPIlupf6s0QhfYzp+bqnh/4oDGlk8rJHkz+mw+re2XbIX4vDXvS1r0Jbl5cl+swG8YnhcRLP1kGrghRmAZAuuiBSNb4v/uUrvjC1MppQNVNCKNXENVDd0Ri2d04I0qCPxMblHiIT+LpjsapAOugpEGusD/O+KPJiVtJ8mqHvuGLP6L52PPL+hPiuZ4miBdirj3+xR0oPbf+7P1VFl53b9pyKI7h/QeVu/uPv4sijQKl7MshAYFqVczpZWanU7KCQLKWzW/yAzgMKCI2oq9qVtIw/pnf0qv6f43XbZsBNYJFJZnCQsS0qr0W5BmnZD/JnhdD4tobCnKr+Se49tlFZgPEUkLmhPCAoS+b8jgrYveq3G9TjCSRyE39tzygi+r2ONU1xtz0U/yqCkJWJ3YogTpwIAZQpKBYq3A4CiK1RoS3N1Ha83uQQqEHTb8lyA7DXCvXpYEEsh3OXhRoguZZ2nVA8sBR0OuW3mWFi8NHTB3Z7Z0yPTIiqpVyQYPbRPfUsDeThWrwD5Ww8Zcagszo7or5cbxooGXUecDfD9NCDlJyW7kajz0SgnWw3jBpoAmcjmPPUZAhv4UNs7y/co6tnkHWbkn96bm6GI1MFKX5Yt9SxURCLArQHOS7kRpClR6ildolkaODpsH2d4BbDfIhhunCHm2ZMBOgimpDHKhCXL4DGpBCqVVhJT3YV0+XIIReDYCa6EFA0P/jdg1DKG2inuE/EkYREQPTJ2VK3UN6wOtGEq2Mmm6GLg5+Gjq3mN2gSJD0QJ2ZKllC2KaBNGnT1HYuNvY1PnrKksTSChcupbwxyiO855yJEH9Apui6PWIMrHOeUlcRRglkuG6rp5NmsTTOFayE04zXW/i2mB/9VRUEs3bpKElMrzqU8LIcieeYyh0OOI52X5oqMDoeD2/riCdH9HfN0eZ4b0VzdRXBSUQdMd1Tam3BM9pcezIHCc7KadlPIJ9OjEEFtI+P2Zq3tNFGhg8+53qkcLIdj0AQaJcleXU8tdMkmFnxixsyXueZ41EwpZZQS8PNcRRgZYuMcNTZSOd5yS7pOjbkSIIGrRgFMUrEvMeBPCtbxGBNciScTXeIrq7Z/UMR1lSksI1lyXLrASpNfN7N9dXk5ODrS4xy2ZayrILaVuJUgaTJkQg9wxkE70o30IJNLenyV0rjbJkgpuH0ABV2jq6Kty/ubq6bpalqefXUgaJXpoejywVUTlrMUoJk+fRyRLOdrcX2QU/Q7bbzvC0JBOkoYGstY2AoJyzg8ZsVCUKKL0PUJ2SAGYgTVMpUVWWpLSa/hdlrOvC+OVDc5tlKC3kNsx6QKnwUHqj3bO8w4v3sxS/9exFWQ3IRIgy6ebJktrQBNYJopggOu9o8W8xNxNKDNStpvXN5IChqaYenpIoZPk5BxQq4EMllIB4Kh8kqkVpWk+uSkzcTA42gcl5rjtImAdJERfpDvPK15AXEbiYp6a6QPmCC4kls1ooLy/wOs+y1I5U1vR8DwbruJaFqsQp/oEReBIC67AWTKKEoHr13CNEZLDv/qdwgav8fJ/u7s9ffvhLfu8v//t/3/3dTsWxZzd8a8dJAkvEB77BoUIHXAKb9EBDWWTKms+gdWDDTYKiwSzXdOO1l8Fb7eh8Ur7s+8zQcJTANbnwny9sGU3iGI1gEVNOlhZL+9jRYfT1UdlZh4Qlvsb4hommTOrpZsSNrIo0JKwd1UHrcQkNxYgEwxAzg0NrmgNZaXbZqnTsG0bAaFX/JJDD1JGufvaVuCiPgWFJdIkUxemGjDRcfkW27lKyqVdcn3qSqaNs0fkFBhY95HRTKe8Lkyywv/k4UtPaJEUR4PA6b4v/wAisDIFVecekjtSTnLnBAvY6YJdgRVxSPfDYjMHoUzYuwqadZF9wUy/w1NOEfxPMXJt1ukPDQQ6NsLuBjlTAPkczOxQ8XkgTEvcpwjiK76iSV04zMVSa6UA4ulaxhS5vsD53eizPcY9il5EdJ+QgRYxWci96FI2HKqMDCzDKi2qdLiRsW/wMveDuUyo1fXrc3d31YHuQjYMgZRWhYQqwIr9htnr5RqYyCnlj/qUVtaTZoWn6IRHRfeAx7vFCg+Ge5kWm47WhAXXgGV3yJABOKTtq2HYgOYHrODn9FPZgSV7n6zQoXmQ7Rl4Lyc7IAl3nCbbn+0RuFG1HakoC9h8R6/jCCKwegVVpQVIwglBf8Ec1vFCeyj3N84NPpuUkYsW9E/bl2Wk/cGAsvOvLhTDsaNO+zSsbXuzdn2030hh6KYOh637sckbDC6jWJLJk7feecq4xBOyfzZKNob/q741a47dYQHK668TgXAo+o84KZ0UBK6QFC0qQIKjqJ09nWw8ssWkEwLkDmsb3jA68fltc4MCF1v9BcTW5vGGJZo3bFt2Vq7RjMatV1SQpKlnA1Y5SM4Pwxdl8o1Tapg4QqlZDD1O1rEVvuApG4GEEVmYRJWG5Vbiqr6GHObmnBqto28SvmurGyypF1shKNhWZXVZheTkpqHL/w0ixomV1IkvVPwwUreTL31w5shT190/Ex5+/n1pj/+f7//xx999//fV/SMFutaJoprvepcgyanDgBPJCPqMw2cBtp4RR8YXJcCwRhnF5gqK52iOSlMyWiDTLkIHjNcyvyPf/qGqO+mgkjqp5NNjAmcW9tjTbKp4ey/Zizw0bem8srdVDdv8YrMelC47UE71e9nXCsAwRuE2u0IHnzw78kCzPpJ7b4OOc+rDmntKmWZYKnabnNfL8P6aV2pGaVkYDjMw2+MIIrByBlWnBlXNWJEjLtjlMfxF52QprryTwtIZD2j6tmMV3UHt+YLFiv6c9hRfNBt/5wISMYR5zaI9aaNgULXzKG2fH4DM4ODid+ObM1JR8i75u4DPqqpTzy+8vcHwSTN7EfWFcepIqEpZmVN7vsavwnKgHaKaQvKbQvqYUfEZRcRqClfO/D06lxFUVh1Ir8+95NBs65VSVhVBERuURiB1l9NtdC1zBptILLLMEQ2hbPsXlpktKVCXCVrWKV28aGpo101zwwSBpQgKwVPQgOHuq9p8zrtGnJe3XPy3hK1Ff4NmKVE4yjeMENjawFmyYF7jouQisyiL6XD4eag+bjj6piPI//uro26IsCRDnLI/vYpnW7zGz78Bq46kWE9BdnkdJ4j//RptDSRJ5BmjHUejZlvP7R3LnyLPbbfIVTLRzgXpkB85KcdOoF6knM9//kg5PIyf3oXhI8Fd1P/IdNy2hDIffOboVj+gDwY65H+1WtR9TqQfmd/CQgc+jJROAEk1L5kSeC0YjlWeoNAp8x9StgNG96ccNyY4cI+DhHIKraQrUgW0419QNnxa3u8693MCOtPILIZ7INHLTmV7ojf0Mms0d0iroLMSjDzwKsBkQhxATSXdJYaffBlZO0wX77xACYqRKbI9E4Qj1/4T8sT3d5aMEw1Z5kWdDRVPQmcQ0DjwL+eTwmx1/xhP4wdiegGqpWS0SEqzbBjgg8cIgima1cjwVlvNGmgwP1BxPYbs757UdKUQyAsq9+zyxmhHDpRiBNgg8ybP0qzW6uTg53NvZGmx0kVNcp7sx2N49OJ5cVxjKTkrsny9js+zZP691e3V2tD+cEke0t4b7R2dXjU78qNE9JyUWPVdPSlwcbXW7m+8nS6kuY/orlz/lpEQDy5fj4f6qT0qUT6Ogwa0dagFOYOq8H2710cTpdGDe7B2dV6fN5+vJeH9nE02uTre/OTw4vri5Pd/fmJ0kgIMQtZMS6DhE/TkrnP24n2bhIEMDWlBUPCmR1bi5OD4YbiI50BTd2R9PrrMjGQ+flECtYY7PUehubA7fn15WZiJ6Cva2sycMQNgavj+5uEGHX8qniW4vT9/vZmjmYB7Cc4KQn5+UyHgtyr6xuTPDc35SIqvUhtTtSfEwTNYMXxiBVSGAc83XX2G4ZM0QSCyhp1J2bDf6v6yZMCtmF6K+yJQDCLWgm0RhTIJ7bW1JDbFpuECLIQJ6CyovUQUC+AiBFkLikJegjml+4wisx77gNz5IWPz7EaA48NjwvQa/kfvbfQN3kXPyUktxVf7EkVlGrLmJxTY6Ryg1HKGoEnip34Hr/Qm7mvRL0cd0v20EsBb8tsf/bUgPm5NL3CffhnxPkgK263zfdvy7XlunElq1DC74B8sppuMHYRSi7VOFZ2WPNUw58yP9KhdkDPnYF8QW7mlfhT3c6bojgLXguo8g5h8Q4GSxF9oOXg0WZkPi6xKvOORQU1rrD0Zxg4nOxRAEm2P/76+coJoRM/IC9ys6pqSeaX0cSDKHZzpG4GUQwPuCL4MrpooRwAhgBDAC64AAXguuwyhhHjECGAGMAEbgZRDAWvBlcMVUMQIYAYwARmAdEMBacB1GCfOIEcAIYAQwAi+DANaCL4MrpooRwAhgBDAC64AA1oLrMEqYxwcRgAPVkF5yHubrwfrlCqHBU5BHL4sp+uCV+hpLQYTw6MGaqEIC/pUULZWztbdq+bUqwUH7nuxNe2+HTKizJG/N48e14TyCiIfQTS0scJu2uA5GYJUIrJkWRKEPZYGFlKrku3cobSDLS4rhhEkZk9ji3y0uyD0HWZYUcx4lGFIfkj2l9sZMI8/SJA4ilEIys6yNqJou5DWsX+ipzzrgzaZHH57wQv/oT8GqsFin+bpLEluoiJT9ZDTQHGU8E1uRKlGp56I5EkmKWVhOiENSp0dJbl41CSwVAmXCKJMUzUl6U3aCIl6QWMv+Y1NRnupND8Ga0zRBoUjbXJDt9RPkXG5XGypntdsQfoV1HofMIwSgRYlNXKshOcUjiOCqGIEVILAu0bRRfH94uyq/fEj7W6KoKkgTpnEUeK47+vE/2mCoW5bKUXNIIDG6bk+TTKQJ6Ddd5b3IC/TmmNuJb0ii9lvS25YkRDyP1G3b6g8/6ztH8H+BNHzfk7zhnAWmpDW+3NLADyEvOyT5nbEDYbYXrK1g2L4KiU53e1TNdE4xDMBRYSdL8tHzYX21nE9Oc84lFNnEG/3wE3FwOoK8VSRJI8QgPQEnmISg6rYOUZhh6EY/sP5JAImcl9GDc9V/bqoi8PK0i9XDVG/blOTN6LPZtjbEgU/E1uFb2lL9YvUehcyjuELBYP6Fznjy88fkUe1xZYzAqhBYVUDSF6ZzdTLcIDqD3fHFTa0niP97OBz0h8dXs1tN0bQvj7Y6neEJal6Npn17cbjVITZ2jiY14teTox3ouDH89dJo2ii48fZxLVZzjfF1KkABlbt7540sl/Gcxt3ubh9VAzV//ny6C2PwQDRtBGt//7wwFLeTgwEB0dGXRiC/PNwk+geTRuZw4WMRgAjfG0tGehkpGIDHz/hbiBTe2R6/redkGUK4/BUjsB4WUUjkrfxK7jm+rbD19QVJC5oTwgKEvu/TgEFxCMOgwYAZjORRyI09t7zgy4j1ONX1xlz0kzxqSj/a2GES+BHNQeKbpiswOIpitbdtCOp0NnfY8F9PyqobQHJWVtWK60iSU+TNxPejJkChLAm8sMtNlxTIPEurHlgOIOkP7Dy505VqGjpg7s5s6WBlZUXVKmaTBAMtKTk5fUQBLYFiz5B5mgLreI8RVHuR1i+1hbJFHWzppiLmhnpEXFAMb25JRxtgQK7Ae0YYglZP7b0wedMUNuOm25rI2s4ZAVgakEmYUWtTJduEM+M0dqdkEIM8mI3rxnvYQdBQiiTUEwiBdgVSCI1NTg300Cklu5GrITEpwfpoIbP3j7/e/fnL9/BHtjtYRCaTAYwyCMgpTbTT0GRJvl/GjBAJ+caI0C8iUwAJ/4kR+FIIrIUWDAz9N2LXMJ4VzzcJA0hRBqbOypW6hvWBVgxlqTmNgZuDj6bedicf3sl3kSWgfa/q+xNyogfRp09RWH9hVfl6lb8h43flWsImZNV13lOOBOmPp1poScVaMS0ZjinR5XKUaZxcmmkcvUnhs4Oct0lcRRglkuG6rp5NmsTTOFayE04zXW/i2mB/BbMrlES1/vOCNDBETnYo2XR9H1Qc6cicZDd8QsGuqKtwjKBHMIdsz7/wYOeaDnSB4TSvQfQ00Hnmez2kZcNxJ55jyJSvcJw2U9ZZ93eRKYkmqViu64waTfgQHk1gZZsQR5bnARWFiQ2R5dRilzHwDDKknGahnsCYnRgCK1mluZf6qqAEgu64rikNZOfm5voYVv27p9c3N6HJV+EBmiz0C0BOaULGXYGF/NTFTdJWa8pJqQAAIABJREFUMgLlHg3JCaOoAaVqt/g3RuAlEXjF69QZa1fjLQJSvDXbw24L11yWzCK6d3aT37u5vpqcHGx1ie7wJDO/lCx4Fwd9opw7rQESlESulrRuiUX0+mR/92B8cgY5589Px/tbGwQyDi6I3lxdXTfL0tDxqyl6Sn7B67O9PmwmjheW0TYW0brIN4jO1tFV/U5WcgsmPLCzTjGFwYUMglslxM/2NjqDg6KRFaW1G+8gg1xOFRnndqem2owCsQGKoNAhsnIPDvNhvAXr8MZ+boC9Ot7pdrcOLyojenN+uLt3nFW/AlP8LO0eGAH7RH+vRBlSBp7vDyDt4dSmi8y7BKQLXGopzCosoTKb4nm3NcYyoaHxNBkhAEcQg4NKssuyRbSIzNV4u9upCnt7eQybBgQx2wNoI+MUWARqOSNhAXH8J0bgCyGwDmvBBL4WqV496xkRGey7/ylc4CofzL4YwKjzw1/ye3/53//77u92Ko49u8G/Igb3vR7dbL6cf35AhU5bPz+UQNtQJIHjOF5UTM87pP2Ras+/eCkazHIv+WHzUrTB4ejoHHR78bLvM0PDaQLX5MJ/PskyOpcismTZ7o1MhV4iGErxDgNUxJSTpcXSPnYgEbqoj8rOOiQs8TXGN8z5lCmR39J0sTgpWJGnIr9mFQ+MkceMbK2wEM3IULxmW3LVvBDbhp2AUaNEGVWGlA1IkcyvjqA0TNVChW4zFYl09Xx966MU8VrVmQmENnXYAy9cA1lpXG0W60z/BpvM7z3VrAhLMrI12p7TbC0jEKVg0Fp75jYwhIswAqtAYFU+oik48EnO3CwCuw2wu7IKBrNnBTw2Y7DjVF81Pcm+4KYO66mnCf8mmPmLq9MdGuCkiRwPYcsDbC/UEs1DgaENaULiPkUYR/Ed1bAl2UJCePGo3Eh1/FQCN8j1vnosz3GPEoGRHSfkIDmd5vlL3HPvpQcWODDY8TYc0VsKHjqzAKO8oNPpQqrYxc/QC+4+pVLTp8fd3V0PtgdrI9vZYDm6zBgFX0phdZ7Evh/TvFCpulSi0A8Irsl1luQEvuvO23Vohl4qLqrVgfoFgacNSU7iSdsLUpVOgiDu8UJVDUNFmheZjlfoiqbnP+7/A9FsTnCEeupM2W8rY94XknL+1ri/e3wXI/BCCKxKC5KCEYT6gknqPp3ySFnApXrwybTA4VwqP/mw6zbzQYEDY+FdX+YW3SKPgTavbHixd3+23Uhj6KV8ha77scsZDe+UpU0KN9CGFpwag4f93jdbG1JrWIfkdNeJOVEQad953KyAHTdecmnDsyqLpwoM2aZhsYyqfvJ0tvXAasxED54ldXUCX16Nm5Bp9Y2dJ7F95Kg0zoJyIXy5PUCUXFph6Y0pxUrLGlYPdNx4GzyIyuWNTDQWwgdMI0lciBH4UgiszCJKwnKrcD34FD9GQFbRtolfNXX52enIGlnJpiKzjyGb1yUFVe5/GCnLQ4FElqp/GChai6Vc7Opq7Yg3OG/cgRm06WX7eHbXsQWyjBocuGHIj4igAqcGBdHpGZ6jMA+8J2GyIfeZ4lVswSBXxDAuT1A0V3tEkpJNS0T4Xmk3WjTLUpHnRi1HBTlF+k7JEWbaMnD9TwUiNa1S6eAO6teXUKkPFgfoA4TvseySvMOJ54alnlryDl8GGU2v2HraNvHdYEamtYzQIIlhr2Olr4rWwuCKGIE5AivTgi+KKS3b5jD9ReRla+GvPusxzQ5p+7RiTg/JP5IVWKzY72lP4cHTLam2TQJT5BWPObRHbTQsRYT2SDWK20eRPbI+9qWFggavuCbX8mrPb+s3+Iy6KuX88vtdK7kSX+NFi9Jd90EViDQW7C5VtGCxl56kioSllUYF7qOVJie2jJq2jGteVRk4aWNUpyVEYVBUJ6o0o0RVIh1VrehB8KlUzT+WddFY/qetVl1QATPVSgQ196/lVJUNdaXKWOwoo9/u2g1CrWM4wMI109QWNB8jY7aj23ucgaDGFS7ACDwTgVVZRJ/JxoPNYdPRJxVR/sdfHX1blCUB4pzl8V0s0/o9ZvYdWG08sGRY2gnoQc+jJPGff6PNoSSJcJYL9gqj0LMt5/eP5M6RZ6voA/vhixRGOs/9g+fjkSZzFJxR07WfferAnfm7p57MfP9LOjyNHLHdcuPhTr9cjQgWMmkJCArMznQrBpBl1I65H+0Ha6dwCkD4KeYOR2zie968Ppi4i9t9i3Iwv8P7dLnFmRJNS+ZEngtGI5VnqDQKfMfUrYDRvVYfN/ewzGiOFfAyx3qKho4MwqQMfdvUTY9S3NoIU4LpjHhBZHlFyw7dpQApcBJy4lbg39NN5VZnU2A9iRUkTZ1RMUYG6tKaedXQqm35wBjna5oC0eiIOIQoPLpLCjv9h8egmRVasW2fk0o0bV13SGHYn7t/tZcxhgNDFPMNG0maUcalXxyBL+SLuqJubi5ODvd2tgYbXeST1uluDLZ3D44nVafyptgxBQ6qsWOmtyAGzdH+cEoc0d4a7h+dXS091bDkpMTt1en74eYGMNjp9jeHB8elcDcXR1vdbmMomhVB9EJknnJSooGVy/Fw/97YMbcXR9vIl79+dXZOlgwFGoj5QQo0uLVDLcAJTJ33w60+mjidDsybvaPzwrSpnJRo8N9H4VG28nMVxZMSmYw3l6fvd7cHG53poO/sFeZN8aREVhvNsz1UO5shW7vvTy9v0WmPxUmJe46FQPssUMv4GoVMmnaakTkEMhn9wnVzcXww3ERCo/m8sz+eXN+i4wmLkxLdvbNqo+UnJbKaAGSB5vb++Pz6thY75gEZ8y7P4QALjh1ThR///uIIvIMe6y8cXIIRWCMEEkvoqZQd243+L2skSDtWIXYM6yqRp6y5KRHJYQp+pLfZa2gHDa6FEXgCAuuxL/gEwXCTbwcBiuOZ1G9y2/h2MFg/SSPPCanGwxzrJwvmeK0RwFpwrYcPM58hAJuTSzwiMUCvFYHItQKSl568mf9a5cJ8rR8CWAuu35hhjmsIcLLYC1GWHnytCQKhafyXEhW+ldPZmsiE2VxTBPC+4JoOHGYbI4ARwAhgBFaAAF4LrgBETAIjgBHACGAE1hQBrAXXdOAw2xgBjABGACOwAgSwFlwBiJgERgAjgBHACKwpAlgLvuzAhSYKpFUP+fiyva6cOqStZSh6SZrZlffWiiDkSe8pjwi30oroKiqhTPSztPGQP4Linhmk7X6e4NQgKTn318F3MQIYgXsQWDMtmASQyVtgIZkcCYncIWESy0uK4YSV+J+xxUOi99kFWXcg+JZizrOeQ9KnpjdoGnkWhLWC2GwQzDhrI6qm26jC4MAvMAAXb8b3oBvokmoH8RvIJQE5MT7dF6vzHhC+4VspxHVLcQK9b3gGYNHXAYF1iSMKWchCW5GUXz6k/S1RVBWkCdM4CjzXHf34H20w1C1L5RaBGyElrG5Pw2unCeg3XeW9yAuWJLmD6MeSqP2W9LYlCRHPY5TatvrDz/rOEfxfIA2x8EnecM4CU9Jq4bcXgw4xkuVRyBnh0vSw6zBBch4p0Y5vv83MUM8ZJFYPU/05BHBbjABG4OUR+OIx257W4dXJcIPoDHbHpaCcOS0UUHE46A+Pr2a0m+KIXh5tdTrDkxuoU40jentxCPm3N3aOJuhu6bqeHO1Ax42BP5fEEZ0ydQHRHiFK4pynKmX8+3kIoGiX+5Pn0XiR1ijK6DQk6IvQLxM939/o7JYjs36BXnEXGIE3hMB6WERjS1F+Jfcc31ZqacFhhUILmhNCfiX6vo8GhudpIgTzZO2CzDiwZht7bnnBl9XrcarrjbnoJ3lUTJdUo1EpSHOahlVbBwYGR1Gs1pAd7iGaX/U+MiLTWoB4SCFcZ0/xKuwkFlRQC/t0YF82US4DCqzLYFyWDS9OERUmpzJtDiZuTYTcCiSybzMCMlungcaQglVcZceIFIPM4CRFcyKMdkN623akZmxnAqkeGBg4GhiUZ8mOYs+QUU6RjCEWMVSbMY/oyJWpfNcOTOgFG33+JyVYM9qQHUwHW3xmis/AcnOwYDFZwDkJLBWlrchgYAXVqmcCg+FpReqrTibcOUbgVSGwFhbRwNB/I3ZPDaGWqeYRWCZhEBG9ehqX1DWsD7RyoTDLiDGKoRh/MyELD/g9LKtULEc60Gi2haZJEH36lEJKGeItx46CXHeQHCli9lTDBi0D+YNsQ2IdkS9ZkGNH5iWbgCxDlg6pf5LQtXSBdWWu6E2UBoYgaCEtqbrDMZDxKrANleMECSbDIpx0K1LVsQOfH8FlVcPVaYYHcqgr/l8hs6+ZI65Hgh3dNjSedYqZfp/UEcR4U71reS5WZIn8iNRNORMA8glDbsuElVVjBB8ECQJLZh1JKIGF2igeKSgjy4AEUzECi+dcCabtYlK2I1XFAf/GCHzbCKzBuvZqvEV0d89qaWMy1m8L11yWzCK6d3aT37u5vpqcHGx1ie7wJEumU7KIXhz0icH7i/txgGw0RC1dzxKLKKSu2URJczYg/RNKebM3Lhtab66urptluZ+Hr3o3y1eUo3R7gmyR5xV2bgDymR3w5mx3ozPYPysnvLo+2+vDszbHGmUc6m4dXpSwuL0c76DEStPUP59vz/f7RH/3tEzq5vxgABDPLaKtSJUZBoFgjLaOLufFtxMgWuvq+nS333kUz0WLaDFh07yja7DuL1I3wa9uZ3BwXjbGX5/sIrA2D6f8Ift6d2dczp2ELPkA1twi2o7UV51HuHOMwOtDgHh9LNU4alRBqNbV0Wb5E2amqEALVr9tNjb3xrMXbkkLwouKeDDJGWrR3Tsvs9asBa+gKtrBPDw9n1xMTmHHsoNecmun98qyPkYLZvDuNXy13JzududaEKE3f8kXO4OPns5MC0JWww58u9S2a3PtONOCrUhVplWmBYvjfgvMdbaPq6kq4Zsp+6TKxr5VRw9owZszyKoHanU6IWAOd/r7DdPjBrTjTAveIm3auMcMif3mWrAVqQoM+CdGACOwKoto6kiQDn5u8qFkFzZeqproib8plFU+BhtiNd97T7IvuCTvNPU04d/EIhc5vDwNR4MWcOYBHamA3ZTm7ikKrGwJGJ8W5rV6xTiK76iGLcl6zdA2f6d2z3x7ar5lHY4WGVkzVV+l69XfYkngQbIAtSFOMsUJbCfbWyTAsBnEvca8OjQvMh0vrxV6AcHpDZZwkhO5rvMYUnWkO126kLs+9INPdx8VmlRqNe/u7sCQTfBkK55rzYsFME0Vm1QgxX0+HdPAC0lebwKLF9mOkbeNgiBlZIGuk4bd7j6R7y62I1UngUswAt84AqvSgqRgBKG+AJO6T6c8EnOa5wefTMtJRLQXVLjAkQC2k7Ir9azwri9zi26RlwHHPdwVy3Pdn2030hh6aeXQdT92OQO2YB66EkhztyGWdjB7oiyQkuenKr1EET9E9HXdBwcOou6cgkrQnexKF3+WeG8n/4wKalr8u0KqDbGlzTNaVOXLCFyBPacxdy06Pgqau8RBmZ023BCprykWITmjNnvC8AG3vL/5nTZ1gFCrai26w1UwAm8PgZX5iJKw3Cpcy1ZeT0KQVbRt4ldNdZe+hiJrZCWbisw+nj4pqHL/w0ixomVtI0vVPwwUrZ1rDFDJV6cFcpmKWEZ+7cp7vR4cBy+5boCLRxSD71H2EcJwLOS8na75itKhTLh304Ieyy5JCZh4bjhrxXAM4btepS90N/D8T48iVWRk/ndhUIBrMgpjqjSNsx8EWArAHAHWglY8N3aUFQaGYiaiUfxGIllIEOy5DS7DCMIZWDTLUqHTNP0jz/9j2mE7Usu5w3cwAt8qAmtiFEYeBbDbtndc9g9A3N9ene5le2+T+d5b03nBgqClfUFEYQL+LJ3+sOEw4s3FeNjvdKpOHBmxxn3BzFFjp7i9BBuFaFNnvuG07t4xn/MdtNJJyMyzZO5Dcn280+1uH5X9Xj7fIJSr3jHbR5UBRd4o8CwWvWM6/b2Ko01+wLPiHfMQqfJMzzY6D4pOUSAD+MHsV9xUbiYHm2hbMJ9b2eg+0NGyfUF0YLW7k/tnFScj8o6pnUe9Od9H/j8L75j3g85G4URsTuDqGA6zVrxjHiRVxgH/wgh88wisg3fMdJCuTvc3wSOuO9jeOxyfnJ6dn5+dHh/ub/fBGWWz7JD4SC0IHdxMDtELpbs53D88BuJAeny4tz2ADhtP0yOeGrUg+G0g/8WN7f2jk9PTk6P9LdDeCyV6e76Huhme1h0+XvVcLHjHAJ+XR6DYQcTx6TmMwsnhHgzMRtGR8xp9mHQHw/fHZ5OLi4vz0+P3O4ONzV1wFRrM3B7BuwkcITvdzd3Dk/OLy0uodbS3tbGxvbfT78y0IPpEOZx1NoFak7Pj98PBxmBvd6t4ar4VqSLCdS2YdbXVha+h9zN+xgfASmez6MD5cEfNWjD7FgINdV24bnLVen22Dx9hOVgAw+R0fLDd39jaA7AW7kPIeXYDfGr3jk5zsE4Odzc3+sM9ILs4Nd+K1KueaJg5jMAXR2CNtCDC5uYCXrk7WwM4hAALhk53Y7C9e3A8qTr2PV4LIuIQg+ZofzgljmhvDfePzq6Wenc2a0HE5WS8vz3Y6KCDEpvwTi0udy6Otrrd2vf6Fx/3x3ZY1oKA1eXJwc7mBjrUgE6D7B5WVmuoxunhLqAAx0U6ACX4zF7doqXU1tFVofObi+OD4WYfhhMBvrM/nlzDSZNBQQuiylfnR/BFsoHOn0BnGaK3tdgx7UjN+m7SgnAPDAsZ153srMuU7QpYD3TUpAXRGYa6tWlxQAfAer+7lcEAvcJnHkw7xGHZifYa5hUCPQNrc+fg+OIGTpJUYse0I/XY8cf1MQJvFwGca77+csIldQTA45fWOT/SW+y8QnjXKCHB/7K6FZq6Mi2lVtwy+ECdC1yCEcAIYARWjcDKvGNWzRim98oQAL/PlhyRsSmynOxUfZlCS3cIQW7jH9myJ1wNI4ARwAg8F4FVnZR4Lh+4/atFIAn9MPad8I6SywdVlnLMjuyRx0ssr+iQqQocR9Mo9KzRyE5Ee3aOcmljfAMjgBHACHxJBLBF9EuivZZ9BQYvQPRvWrI8S1ycx3xAljRyTd2wXD/849Md7OaxvKiMRnKryAMPkMa3MQIYAYzA6hDAWnB1WGJKGAGMAEYAI7BuCOB9wXUbMcwvRgAjgBHACKwOAawFV4clpoQRwAhgBDAC64YA1oLrNmKYX4wARgAjgBFYHQJYC64OyzdMCfLRMhQt2dXDD19RZAdlvPe/IgMv1XVkcCRrREA+NHiK4vSGiKzFviGNPcnPs9Y/gysg9K4nubUouM8guZDlGUS+dFOIec5SPWF5YOG2DM2naAIHZeHxqZ0dakvosfWeOyUCjSYFK4ve+7VGEPXbk71VTsblKK6ZFkwCW5cFlu6R5Lt3KGESy0uK4YSVcMuxxb9bXCghAMMrpj+rBUfAm96gaeRZ4NnPIOp5G1E1XcjoVL/QNMs64M2yYkhh5he6nv9Jctl7bW2vNEk+JdMkVmsrxLoxDjHL0zSJmybgC4gSWNaHvqi2jhn/Aiy8EpL5ZF/hbAeC6PFpCAr/SiR+fWzQosQmrtUQZv4FeF2f84JpaCuS8suHtL8liqqCNCEEKQk81x39+B9tMNQtS+UWB9ogcLFuq0wGWZqAftNV3ou8QG8+tJ34hiRqvyW9bUlCxCGjYRS4tq3+8LO+cwT/F0hDAgWSN5yzwJS06sSGXHHeRCsOVBoa0j98UVfoFxi+L0WSEu349i3lxfhSwD2rH1YPU/1ZFB7RGGUP6wsW94gmb7QqyZvRZ3OVwkHq1UTEj8+jIIV8evS/bCckePZR7Z5SeV20YGRL/N9dand8YSqlM2eKBmeyXUNVDd0RHZmeg0DSrCDws5+ixNMcq+mO5lSSFEKNNNAF/t8RfzQpaTtJVvXYN2TxXzwfe35Bf1I0x9ME6VJEUAWdYspJDRNHd9MdY9SQR7Xa9JX/bhs65pWLgdlrRCCGfFZdvk2AvMbmuPAhBPDj8xBClfuQHrZrBH5MzHLIPrL9I6qvh0U0thTlV3LP8e2yCswFJWlBc8KoqAIbEICs3DQRBg07W8FIHoXc2HPLC76MRo9TXW/MRT/Jo+AplqlA19yePJJ6M44Cg6MoFk6hN7D4iouQEZnWMp2f2mhHzqswm1hQQS3s04F92VQEtkeBdRkM0rLhxSmiwuRUps3BxK2JHE2RyL7NCMhsnQYaM9uVmNaKESmIS4pq0ZwIo11P80u0I7Vg21N6pOSkYGNQczaBtARclgVLQwfFvwEG875VO6iu/2cNElfqUUJ17zT1Ibty0R7+CD5dmQIWCwwBs1NuZlb+Jntp7BkyP4dLyuACS31peCrDRwR+QEDC6fK7OvYtVeQYGEM0PKwg60Dqifg8PG3ycY8T35R5ABymDQvjkaGdBKbCM3mZqBfGqN0gPnJupBDodrbnjKYsWpNnmOZcMYJqV2Eg7p+i2e6aHhaha4Ftq3F8uSlRnSL57+kDMX0YWVG1Sg8EGkTYpYaViZ49NmjeiFptXymNHLiP5uj07eDmb4cCSCTLsQTErWpmY6Wla6EFA0P/jdgtZSd9PAhJGESQB5aqtkxdw/pAK4aSW0+rt+E3AzcHH0398Vu1saWZsTAqpBZPkyD69CkKG3cbG/pe06LE13j2+1HQkwzb9VxrJBC2xAqjcr7c2JE5iDeacprlTjzH0tjEEFjJKoGTQuwaaBn04BWMahlyz1c5+DgpKaNWpOpgxvDlw+swRLYX+JACPhoJfOELJXYVFviJWdV0/v/2vh66USVbl17rrSVuJCaybiQmsk5kJhITmROZicRE4kTiRmYicyMzmTJzIzORuZE5kXiROJGZl4gTmYlER6YjM5E5kehIOPLbhf74k4277T6Wu0hsFVW7dn1V1K6f/TOZ2IbKJsAyI9phmRSErudVqeVqZu67jR3NjOEFvSjxhXymhaEsw0hWvIaLjw2eEYzc8gzONbjOj1pAS/oSLsqTWVbNw1ViPwyCpMV0Ml9HDIcfHU6FLhyCB6CpaxtyJzJE4GAT7fd5+JQqrUiIbIUVDEKAvnZMhfZUntd9V+F4MxGGkGapnWDI8zmB8kQnItyeHmYVvKyTYAgKME4pyXA8DxZkJBDMaorVG6KZGmpgW68fX3NIVCESuyoMfzQEDce9dqwhT7oKSgmzuRNX41jFoxXT9TxH5xNT4OTMAIzTMkbEgEqH64JvRYGwJIbX1oobC2IQt52MwTF/FSMvnLYD4TJuL7pEs39VHeFonnnWbUkjKw2uZot3s7vb69FJtwlh/RYxTnNRdqcnbWIT4mYLHBDsh8jHZIWMWyMrLYnMr4/bhdg46M2uR9mdj3oQ2W9SQGoGkLdPrtPU2VV/D+LVFoIt3V0NUPzcNdZpxNpi+GIURg/FIMpG2SXa2dCFaQVpDMdClN2nSBUYfoCYRBA9KV9qBhGQIPjjMu7f6KiJmpELBZnGCm50czGGN5QXA28Zkhclo0auYFn8erLJqMjBIvzU1WATPDANUFhuYxpnlzhchnWeI4zbg3E+1NgyZO+GjyIUDwiMxopIivAYujAXWDEtM59eDAYXy/DJd0/jk2nL08MGfWSFDkFJEEWqm43FfHt+sIH0yU5Me+BJzPOAoNhYe8eLsQxzBeCbC5758IBif63jZEJwK8D88SGa4rAKrFkD23r9+GpDYnq6jvCZ6UH4rgfwXWejbaIhgb5YiCJ+u8Aw7UQiH6waWgOjaxVnHEUZK1F5uINYo1AwF0oMwZyPLZbvpxf7tQvxBStFEEIAvof8mmAlqGAyKi4W9g7WX+9DTgrCTENkIsFXI4tKNAeT/MsnpCCM0cZePz+HVlPfgdRMfMEnp7MU3kHFqgU+/+ZaCiL0Koc4LHoaKyk4g/kI1i7lkMTp1LOaqWqRKoGMJtB1EPnVWyTGlnL65gxm2+Pr8uJrMR4Xk2SRKvrgm0dLmQRhe6GRm4CK9fisloJbF2sI7ZUUvLsEuPoVEZxRGEJYxlXzDG1AfdroX61bg3jYP6loe6a9dfB5thQE7nOAT+DrLKWBxD5ajomnOjFdqj45zAq9WJKC+ZiYkPsaWOiNUk5rDdGsFKyBbb1+fL0hUS0F0bdRObrQSFgtbtN1S/GLnY/76+kzXcQcZxaKK/DRCjQvBRfrnWmhd17h50udiCagdILOeJdP+d6oKJWe8ZtqgcZmVHGG2BKt6fXymZzBZAAx7VZ0YfK8mKB3UwhQfjubR74pM1U31BRFEdFTSsxRGN2jjPWfxBkOPVDH4Z9TqD75t5zTd32SEyrUgSiWZ1B0ZPREvh+1OL7iGJrmhM4qV+D6BCtUYEiyAruKW1uPVBVijQ5XGBOokxcq7YnvBdCMCpViRuDbqM4qiiSvKnAqqvvoZXoaKmxOQ2s1uYoquhjzozYvMOW3CMQ1XHC5xwpceciRLM9VhPldUwODDIKi1p9H4rk+Vdn2Tf1fhk+Z/1xKA1TYch8pSVGlNNRHycaO4bFOrDnMHueqscewdD4LBYFSlpYPtYZopnQdbIM6/fjKQ6KMCbT0/rMtpnd5uYcZfrz/5K+vBxsdtuA0H3qRAmsRdKWc+C76rKpmB05Yzw6rytFY+AYaFC+lI0rC8X2gbZCj1uKojOZzU0Bndv+zYYKycUG9E7QuVvpDiWsG922J3VSLVDLy6prV9YJKQPMflhOqHbo6A6QiLfImq1dM2duKBMbQIiVnp80jtrQNPgCirJyCUtCb9IFYhKt/c0RyE9wW8ojM5lUlGfSarBXucGvxZQ2ZmX+RgsiuGretFTkGS63oSCqnqbozNDum5lCSK5SFUqnQU3yWCmQSSlBXolyZuKayaPI6T1Jr6nkePjWGDbBTXGoiloppiOvs1PhoJ25Hrj7mVQwgFhZMbKVTPUTrYYvYrux/0W/eAAAgAElEQVSyysRiI19iSBRppr8bh5pvClU8gJLLepyX8UoZekqcVeO1Fd5KBr8s8aX2ggQJd5mZZ7Ou/DK+cqUYWT0kflGVzbV8kWhoDs34QJYq1srFrMXfJK9I7Y9DeburiNBUtI/7sspX9X6RXPo7todawA7fgXlEVfNarRbYc8f5V3EYge5RugiBpSBa8JaLQmpwv0xuMUwLaeeXc8WZ1A7bITwnr1OzKOG73udnkSpXBCnVH16alWQYGlipaEbouhFiv5IiqBWLqkhYmmHBjpBRFXadrV6Tq6lSKVxuFVzehkekVefZVYowvrOGq7KCdGivpymqg9pue5VZl4nPxuepYZPSrfrEqtKynD3SicTXYL6ug3xsHVNriGbYrYNtrX587SFR6nz4rokgiPITPZrzYV+ckK1MNz3SYyTDdRLXqdCRR3PGanZY1B3DJFNa4pTYeoGEF5OCL8DLdhK0ZBm95GeBk8ySijKYC9oSDxpJsrE0kt9Op/INyWrWKe3KHGjbFab2VEUb9Jvczpk1rC9hwTwCFMq0jXlErl5Qe6pSb6/k7U0mIoV618iphSWeYYc0u9iK06LMRYaiF0xLYm+oWr+tW8QqChNosl7o0MiWh/+8X30NFJwnUrZSXP+AAp2sf3oeqWdD2VFUaIas5ZuRBIY89BlF3ki3ImWSU5TOr6qETkNFOvO2VpOL1Ja/GUVlq+FSs3ApIongyo9jgEsx/r2FcJpMwUQPJ3xrMQjrTtR2taC1RySBqSjLb/C5+Dw1bB7j78vffQ3mtWqtN0QzpGpgSwl1+vF1h0S58S1REQhTLX7XoCjMscJTfv7W5GhRBd1meViQg6A3qmRmhzR7HMHKurVttVlm8ItTXupE9IsZqFkQvC94pCxI//WDrR0KksiDn7OFfxfTMH+NOse2AyY5NYkVs4EcdF1KFP72J9roiaIAtlZwVwjx0S3T/vUTeXTuWkrlnWKRUPo7soZgHgFa9VXsJK7U+fHnpDcO7TonZZUV/N6JpAC2HyyYGPhDRexQSeRZmvZzLIyV5UKhJZkmxJrnGFdWZYFpgb6zDzF3weKA3w+C1TEBrVimx4ESu6eqyLCQiCAgvaY5JH/UtlZtBCc9oI4NF2KcNFQkFmoLPRtIBazQ9d1Vrlqkng3bshks4ynAIFirxcAgOGeIedN9fMHVkdWe9pMvKYU+/ho+admyPFbMwQW42yTfa1srqUfxhj3kEFyymhoWZuF6ZGsHx1kUEaL9/XLOoSXT8niBY3zoQjDsgsanwOsOIVrqYmQ/E58nh82zO6hWga/BvFYF9YZohlQNbOv146sOiYq2U4JhSnDvzPrDoQLmm0kI5kXwMfodza2/SWiJhuWioRXAZwW2wvBZeZauWQnH74dhptoI7MmoTtm2rYKzr016BY2bVyQ5m47OBkfd/b0mUggAHer9w/7J5XVeMfzhIVVYLynzr/nK6YhuuJ3fXp0f95bEEe1u7/j86rasJLgsUqkjCmqBj6r3Ts+7zebB6ePqd6+I4BeSzuiIphTmN6OTo4M9pHEBgeS7/bOCWQTKMT7rH6KeajQAyv7Z+HaO1OPy+naz6eVJ76AN3YkAPzq+uL6bIwXplaXEgt3byfkASEGfo8p6p6Ob+XyM7DWySo/1SG3aj4wD+uMiHhlttvQVjLjTXhcxiOo+6J1cTssaq0Ui0Prrk8EWa4qn+KzWEV1UAdxk4Do8vpjczZGGXtbI4QGN4wxc/dPxAq5HdEQfUoXPog7pghD0MvrY0m/tDEjlG/s4Plk9e1Tu0WFT7newSQAVz/xYWNgpdJd69/U6EXqxzjBbtaygI1qhY4rgylvLPD5Eszqii1pqYFuvH19jSFTriK6H4PqDgA/7cHA+yU6/qBNzozEthabKpU7tsvk349N++lmh2eFwcAbzLJpjsuq8k6x9xapvXuUvjjX/tcuIYnnwmeLFbFH3sJhr136DCw1aY72wjostcO8axiTo6xY3wwm41hcTMwLXHLvW/vfObwJ+b4RIj1zpsTuw944Cbt8bQgAiFjAGX2/K+Uq2d+Ne8Csb+U2Lk6DSWv/49Juy9lWVgUZgzfJkZAgM+NqICvkDU7MJXqo8Ka5JGmd7JQRIhmcI0Dha3wy+Uj2YLEagHgKhawdUpSlVvfLPyYWl4HPQ+i7zwrG954Jz93uq7hE9M7SGLUdkOAV8bwVBGPjI8RnDKqFg6BXGf98lrG+s0S2WR7p7/htjC7PznSIQOiZYHYvfZsmMpeB3OsrqNzt0VIFXvdZAFeiapUhGdX0bXD7qoPbywx9/YAXFijndA1ujb6DxVZNJnC2HQEcQO5FtPaJCgwHDCHwrBAJD/xclyBXG9a/BAb4XfA1UMU2MAEYAI4AR2A0E8F5wN/oJc4kRwAhgBDACr4EAloKvgSqmiRHACGAEMAK7gQCWgrvRT5hLjABGACOAEXgNBLAUfA1UMU2MAEYAI4AR2A0EsBTcjX56C1wGJvhLI0mKFu048VSGavHbXZA/n+EQXOAxevi8grZAtuQ3q9cYaB2SNZZ2kzH4DEDYFc0oCw1+2y16Xu/g3BiBXUBgx6Rg7FuaxDM0xLj68IGkWjTDibJuBwUv2JHJfdg8MHFDlCXZWLsGBkcoVXMneH0xwfkieChF0bNQGUExnLDKkBj8GgAD8HCrOS7T2YlvKQJDo3iLFM2KmvPMmf2NjhtXV21StFzHkDsQfiiOP2f9L79Rpt8QW4BYCtkbYgmzghHACBDErnjThrAvgSWL8s8fk3ZXEBQZSUJw1eW7jjP86/+q+z3NNBV24/6p0TzSrKXP4yQG+aYpnBu6vlZthxl7uiio/4xbh6KIiC88dVuW8pd/aEfn8DdDGpydgwdd+8o3RLU0p4H/fpYdxuDN2NCQo1jwIi2wvuVbO28pB3FOSEYUljEbO0b4YOAv6BkIgEP4WKiOHfQMKjgrRgAj8MII7IoUDC2R+8mh+hdTQ84FMpZVCK3k6IoCzv4FW6LX+JA0w/Pc6qcgchDGWtVs1S6E6oUcILl47u8hd36dk3aipGiRp0vCf3Nc5HoZ+QlbPI4mSIciir42EkfTAkYPVvF1eQGilTPc0AwEtfPCffftydX1ofbtOduRGjGAO9JRmM3vCYHdOBGNTFn+hRzYnpUXgYueImletQOIMkg/1nMdDgRX4FfcyvhDaRiwF66T3/ClxFqs4rgXbPg/0rAQLm9bXRC2OxdrGY5WyfsIYtAuHl9nKYpRd8xhoyNSH/76y/1vP/8Ip8CU6MDKAVxir27k0AkzowVJ5OoSl54Etzq8YpVCQabvwck2CYfZcFQMnZYkcA1GK/Uu9iLXgABHq+JCWrzcC8tKKFRJi+HhILyiy1fFEOcdNUhiLyWdFqJZQS3zjsJYanBcnp6Ww2G5pDtRsmw4oubKLRKuSV1NQHenrG4p9IcPP/z90/2//vafgBm6HUwvPrUgw3K9FsWeCS54AFfEHCMoJoTBhOrSbsAPRgAj8LUI7IQU9HXtn0Rf/zoXlHHghxANveQyP3F08yMt6/LWrVoHXu5/MjS3Ys4t4k/yqtJxZZABfpQkSeTDMe7w4x5EfFvkTGI//Pw5hMhZxZJv+jfM73eXR429wfhuNgtNvsxs4usCeNCmJMMBt6OGTNoSK1obAQT7ba7zoxbQkm4718ivKOXJLKtWBUYvU4ftus4x/NBvSdqyeMtTIMhhvjjKhSrpyIbtXruWLrZ8FcoZJYGcrSI0RMgSc6oJhRxTZRNLYpicN3CIAcoyohExcAntuq45FAjIw2u5KLT3gcZLDq1ajmvKoubPZijKVvdsOpvNXKlVaFXNFgWm0OEUj+KHZgqbTAdDjpWsHRtAFV2KkzACbwWBV4nX9LJEby+6RLN/VR3nb5551tWm8QUHV7PFu9nd7fXopNskmr1RGgorF18QIpgR+6fTx1mGqFlE+6SQqTK+INCZXR3vo4hsi6ex37+cZnmf3d7eVbflcR5+77dpQL/JiotCDDZo615/XAw0tn92s8g/vxq0iTbI0FwjZpMUqGVcu2IsukzW+eQYiufpA84TEDJQ7yrKYBrasZTrbtxvN7Z1MIwExPnRZT6K5Hx61m00DlcBAu9GvWZj/2SSDyx4N+q3ofAyIhoEukMQXOXy3JyBFFxGwnt4yAaZq9kiFK0NcZeDbX4N3EG4w/7V7z0kcP0YgfeAwC7sBeMwJqhWKVodAUdMzIf/yDwfaGV9Twend3/5w+LdH/7zj3/+yUqEC9cSiytyCA0PWnstupyeW6ZAhkY99b7IUTjRIoWz0eR6ej0ZnfFkYLtwhrV+KBoUe3LU38WPrqrlFIAYgaNCb3GMHFm6FcNmvqAhRHG6IYHweOqJbc2Me5pRKq4ZEhJEiwdt6kN2WKykJehDNjR1d1stjcOhKdG5HgFv4IZC/6rp6VFtaGkO7HE1Ln+OADGztR4KM7x+9gS5ZsSMmi1yNQNaBNzleCdZ4G4/l4R/YAQwAl+MwEtpxyS2CDpw62M+SnLgzuSLucoXpFqgsRnBEVAxbF9LtKZsvKg0cVX+70RnLc0azZ5uq1ACzBWQSQVcq1Szgy7xkCQkHhOEcK93T+W0cqqJxbYsGoTseWBJkeZgWI5n4OxMIH1XpqsLvYfUxh7DFppHwdIiWAAbeD7B6gUpgppNsjzXdJ4CIHChuFYhYEhWYJv2sjhU8vn+k0yTcone/f09nEQTcDFcfhodga/oekbg27oP18gs5bsByWkV7u0pTmAa+ppkg+5UVVCukiDqtSj0/YSRq7nj9ozMyqqqDpyGEcAI1ELgpaQgyet+oG2qpComlloMVWSCsLX7nw0T9MwL6p2gpcAs60lcM7hvS+ymWqTCsNTqr6C5SWI4tvkPywnVR6awwHE+NVm98ygheJm4lpNwJhK+GSh4VaYZwwrkd6AluhWBnEbQOldCLNYoaULlMqQysVgLuS0XLHKyeRsHp64tVw09ZP9ZpLr8vY32VpY3dArVV2NQWW3NFm3nbSuByupwIkYAI7AVgRc7ESVhu5V5tu28tjLy2AtGVg+JX1TFibblCs2hGR/I0lIHZVu2qnSSV6T2x6G83Q1KaCrax31Z5bfPSWvCMOmDDmFFPWBtV5H6fpLI/HFhvmEMyxCeXaUI4zve5ydB6LAdwnPcCgAhOvq6eIdlyDCI4MC5+BDo0Hsbf/dAo4Jy4LpRi0GLLDB0QfFnK7R6E8/177PcV3V8ZevqtYhmOqRvuxWjPvS8f2fWF5V14ESMAEagFgIvJgVr1falmWjJMnrJzwInmWVtP1Bhl3jFo2VjaST/zFpIVrNOaVfmBCN7fbegEvuGwMlu58wa1pCwcELHES5cT2VZiF3d+AhHf6vycRhG39kMRgmKSNpKQaMT2Wkqxr+f7i5KUCUKFc/LAygu65/WxdFyhnJUtSAtY08RWF7druB7D+urgluzBMIDawGrKmmf0aLKx4Y8LMhB0BtVrN+e5r4qR80WcXCK4KmylRtP4D8CmPlXFVmchhHACDwfgZc6EX1+zc8rAZeOHikL0n/9YGuHgiTy4Ods4d/FNMxfo86x7YA11vNornODHHRdShT+9ifa6ImiADZtcFcYBq5l2r9+Io/OXUsp3klWV9WSdM1k/8ayvgpO1FpkHDqmpv+S9EbaYieZuFLnx5+T3ji0hW27k2rSO51K8YY95MBeBHzqgJM6mkpCzzY0M2CFru892TRw1WMNeVRcGioS28kVd1fF0XJm6PE8EymaIsI2LgpQJYZLyY5eca23KNdoH3GhzLAgP0XoeCLywd2PBsfvlre6yAU9GMvlBY4JFFUWWOQSyLN0zUo4fj8Mn+S+KkPNFjFDW/c5iUXcyVwHRiXiTvdo4XB9H1pFHqdhBDAC9RHYLUXX2XR0Njjq7u81kSlCo7m3f9g/ubzOK+CDKQSylNho9RfbmLOU2Lyc316dH/eWxBHtbu/4/CqvQ58ltcVSYn4zPu1124jDlMHB+STD3/S822wenF7vnq3Eo5YSjaXBQAafm7MDMBO4zeM7ONzfS4Fpd/un45v5HKg+bSmxoHE7Oc8U752OFsXXlhJprvnt+KyPKkG1QBf2z8bbezC1mQErivnd5AKRhj4Dzg56J6Np3ioCEYZu7afd2gC6h4MzGBmo+MZSonE0KpTabinxjBY93F1fHB8dbJi7nM7A0GIPjIc22OL/MAIYgS9F4AMUrC8ycU6MwLtCABSZaZ0Fva7Ou2oWbgxGACNQH4HduBes3x6cEyOAEcAIYAQwAvURwFKwPlY4J0YAI4ARwAi8NwSwFHxvPYrbgxHACGAEMAL1EcD3gvWxwjkxAhgBjABG4L0hgPeC761HcXswAhgBjABGoD4CWArWxwrnxAhgBDACGIH3hgCWgu+tR3F7MAIYAYwARqA+AlgK1scK5/xdEIhsGbzwQIB33ggJX6UhpHuF38/fhTVcKUYAI7D7COyYFIx9S5N4BgL0kR8+oIBJDCdC+O+gMC1GJvdh86B4Ah1ONtZOk8FWmmzJJcddSeia4N4LfLPBnJuWERTDqQjqnQS2ivyjAQsLwgX/lulrCOUENBgBos7jSfsrPpTAVM2YM1zXUtnvyOfcVyCGi2IEMALPQWB3pGASWBJD/+mnoRt3BEU3RmNTH8pcK3KHf/2h1RH0fGSARvPo/Grx2JYx5EmIfsuqFYEBFmjFns7TnR9lKwLimmlZpq4KrchW/vLHDp8nHZoC+1cjYlRzfGVpAuUqf2alTbyEQOfS14ph2eaQi22J5bbX+5y++j7zRhBjmRFEluW4GgEev0+McKsxAhiBr0DgS12vfeNyt6PeHtHY71+UHTyC68irs95+u3d5u2Kqyo/ozXm30eilnh6LfkTn07Nug9g7Or8ueY+8uz4/goo3jj/nV4M9cD2Z8QN6NzpqNg4vFr5CEenmYdZ75t24jwpMvzFg76Y68JgJ3bZyuzo9bTeOLkvd9G5aixuCEcAIfGsEiG9d4RfVd3d51CTag6u6s1+VFHyYnu6DNLoBBgpScHp6gCQXelP53FwcNgnkczl9O5/PZjlX2CAXm0T3/Ba9vLvorpxDb0jdgvxdu3zeXW/aqO1rj9KpP+yc1+nZVX+veTQqODafI5fjS3BSRGYZ19Cpq/GMu3LUL+2Tyc3ouNsGl9WDq/930s4s8JD0K0nBR1hCo6Z9PMn7Lb8bDU6u8klzxHlvXHdwbToW/4cRwAi8AwR2QgqC/CKa/WdMU1VScDY6aiy3bDkpiDZ3SMY91pkLBgqTJ8jDu5vr0enhXmOvP17M/iAQwdV/fpJ9eEijKyzE5HwCtRHNxZ70sSrf3ru7q+N9kE2Hx+ejq8nkanRxcgSyqt0f3y55RcuMQmiJ2bjXzAiY20vY0TcPBmejq+vr68no/BjAa3bPljvrdCO9v9/e75+PJ5MpQDqf3Y1h7310eTdbrD3yUvAJllDXFsYNdAWByGXgBWHZKAnLtwc/5ggjgBF4HQR2QQreXnRBCJZkywKQeeZZQ5RKQdg6Lt7N7m6vRyfdJhI+6fSXk4JT2G88IQQf0D6SaJ/kJeUEtoDps9mkztCEWhaoKHzQJv7P7Pb2rignX6dzX5Jqeu67f5zfjs+uYRu9CZ+0gD2z+UK74GXcJOAFnUk3jzbn1il7swnI1qUQgn6BcEjd89yuPD0RHa+akpWCNVgqBL+CgETp5jIrq9ESpRwW6iWhw7QwAhiBt4zALmjHxKAfQbVa5Ri6oc58+I/M84FW/NUJ2v1vP//lD4t3f/jPP/75JysRLlxLbGVO2Bb/RnFMtOhyei4jZGjEkDH7sEN3cjW+OO2RlsBIaRz0JEkIkioxilRO4d2yMEWDEmqJjTeeEJiaS0mmzufUNClWMxX6XxD2NWW/JaoiYWvWUmU28XTdZxSFXbTNM3S/o+oSnWsqxemaEJu6vQKXlcROLTDqsMQqSsczzGBBMHZ0K+6dnx0Ghr7Sk/IMI2AVqV6VtfjCmTACGIGdQuClpGBii2AZsH5asvtyMFAoqnxUYbHQEq0pnKylz+TssEHQECt8+TSavYsJejGd3tzczuaRb8qV8eIpCiJ4FwRcifcojO5RxuxDgpkGL8ia7TkSaUmqCxIQpB0Rr8TdOjMIR/SuRHV3EhLfC0hOYMttYAS+Hfn+QvCRvKq0XE1P1yKxo5mxoK6kXuR7/77/OGQyo2TxLyXan++BfopGo5npw0fxqccSLSpcaBipzAstzaEkVZYVIYZ/kdiNbd1MBLVicfRo3fglRgAj8H4Q+D8v1BSS1yFW6YYY9cTm6jnV0hy3/9kw7VgQC3Ko1WGW9SSuGdy3JXZTLTLlY9mn62E4tvkPywnVDr01c+A4n5qsvmXDQHGqzJiGExBciyJBYMKUmxMXYRASNPeCiGxl9PVeLEV8uYK8dO9IKqepujM0OyaSOa6Q6TI4+bRdtQpFMK2EfEguUeWtdLnORUotllqiApJYdzSLhr0oo1gsSRGKRHGaFQqCq9uU6PJl4b6tTpyOEcAIvDcEXmovSJAtOvvUn8tqIMrI6iHxi6qkp46VT2gOzfhAlpjKt48mkrwitT8OZTPcli00Fe3jvqyiyTI0RU4sZV2fhDJcJ/HdxbZmTS5ynYBiWHob/R1IJxmGjl0n3ePln9B1oxazWowsT0UtzbBgR8ioq9NQKAMrFioKQjI3TNIfZAIn3psBU1Mk1WWJ5GWRdHTD1MwIuppG7MNBKePruqnr3ubEttgy/BsjgBH4PhB4y5eWGd7uFvaCg8ubkmLJ/HY8AOXF/ZONDV+VjmiWGOgibrRVQBMxVfJo9yqMEWfTix5oQnbPlnYSD6BvUbTZmF0N2iuLwFTNcamEs6gRbAWQhcZGs2ZHtWPA7AC0OVcwLNt2cwE6MwV1FqQSSzQajZJWL9JDWWvTrrpjfnN+CGqkqdrSwlKioK37iHZMXZaQkg5wlFUEnY16TcTjUWpAih+MAEbg+0VgF3REl71zOz4+AK3MJhiZnV2Mxkhbf3x5dnzYhhnu4Pgqr/yOxNxkW7cW7AVRttn1GVjHgxZ/7/jsEogD6YuzweE+VFiwpk9lXmO/d3qBciFlf/h5sBHBoAnZbLSPTi/BGGAyPh8cNLNvV5YSzzD72NaKb50ONgtosdGDlqEL16vLsz60rd0f3RY5QSIGVGqvi+kPIDTBrOTw5PIKLmunk/HlaW8fNE8HSzuTZ0pBEJs1WULGEDnFUFj5IHXRvUHBmrDEMU7ACGAE3jsCOyQFUVfMpqOzwVF3f6/ZgK16owl21/2Ty+uCqfbDM/eCy04GHzTnx70lcUS72zvOGnWvx8Ld9QUIyD1gIbUdPx3lN6jzm9Fp7wBYBBoHRyejnLubnbaaB/hPe902Ah9aftA7uaxw5QMwwf53kPWfk/mK7ibnCLslibzh/bOl4GJE1GBpfnU8KBr035z3zx61En3v3z5uH0YAI4AQwLHmv4+Db9xKjABGACOAEahC4MW0Y6qI4zSMAEYAI4ARwAi8aQSwFHzT3YOZwwhgBDACGIFXRQBLwVeFFxPHCGAEMAIYgTeNAJaCb7p7MHMYAYwARgAj8KoIYCn4qvBi4hgBjABGACPwphHAUvBNdw9mDiOAEcAIYAReFQEsBV8VXkwcI4ARwAhgBN40AlgKvunuwcxhBDACGAGMwKsigKXgq8L7boiHOksyevi89rhyixQsFNQInsgSWlRHgfhTjz2RwZGMVnBH/liB3/vd1zEc6BwFQRorvJRn2xVoDMmZqSv5xOJJWvF+71bj+jEC7wiBHZOCsW9pEs9AmFrywweSakGIP1HW7QDF5Mk8kcl92DwQtgeiLMmGt8qFZq6WXJpKktA1VZHtIOqLMoJiOBVxDZPAVgWmhVhYEC7EukhcmU6rJwX7HY2Vr2tKAlGKP8fxOtjw11F7J6WTKEqSGIXiwg9GACPwOyGwO1IwCSyJof/009CNO4KiG6OxqQ9lrhW5w7/+0OoI+lrIpVBCuIDzq8VjW8aQJx2FY9VVhPES2rGn83TnR9mKgLhmWpapq0IrspW//LHD50mHpsD+1YgY1RxfWZpAucqfWSmN2bp6kpZoXl2dQthf/KwRoGU3eYjMfLD67x0f2PYmSaDXCIP5vSOF248ReDUEXirK7qsxuCQcWiL3k0P1L6aGzFCZ2mSVSEJHVxRdswV7FdgcMkAoeJ7nVjkFkaNZRtVs1S6E6oUcia/x3N9D7vzaUtgNcVFStMjTJeG/OS5yPS2NtJ44Q9Vtnbru4ifBCzzDdyTN0nh5FUeX6nBch4hNyJ3hFP+LEcAIYAQwAm8Ogd3YC0amLP9CDmzPyovABZwkzat2EGZFYAXOIJloIvArAvX6Q2kYsBeukxWBSwotVnHcCzb8H2nopyKN5Iwg8pciMM1EUS3iHsXZrfX4OktRzPZNaS0ibyFT5OoS10FH0yRFsyL0QJLYwurSyhHhvPjH//3t/pef/gOdDMPtoK/ScLuV2TPD6kVbkCDRybKoVZ0+p2ucTUUMDyfbFX24QsRXOyRvRrFnSBxNwcF2ixF1N6009g2Z6yzSBM0tnmLDKbfIQhF00k6zgmL5hWN2WNPUYjjyDJlnWkApPYmXdLfiUH3FryNRpJg9NocjjyUfq3P8J85Ll/2wqO4peN7CwME8YATeGAI7IQV9Xfsn0df1rzpNiwM/JFp0dh+Z9kXi6OZHWtblzrau6cDL/U+GtlDsgBvDZVz0JIkCz1J5ySL7qkhvK55LT2I//Pw5DB6ZGGvR+X0zweaZ6/yoBbSk2861a+sS5cksq27OhUESzSD6317j6PJuNossEe2js0/sqhwj6CGAa7uuaw4F0pZYXsufWSeexjF/Gfq0pNnOxDFVnoQDaIY3gkcWHXCOzQoGIUARx1RoT+V53XcVjjcTYQhpltoJhjyf0cGJHJlhRDNiFMOeTGxDZRNghjv8X+UAAAgnSURBVBHtcMNyLYaTwOCZP6suyWsm4leTWv7wR4YrNGtb70W2xDCSFbOqiWCF5sZATzAWC7ByqcTX037oyIbtXruWLrZ8gPVxeMpkcApG4PtGYAcCTN1edIlm/6oUZD5lfZ551m1J4wsOrmaLd7O72+vRSbdJrILA56LsTiF4fDYUfCUg09N9CBubj0Y3GUAIXvS0oaaKUuN+o9Ebl1/sZKx5FK794Px2ATnEGYZGL0Pjrho4mxzvw0VoNrhuGiZ+tOq36Wm7cXi5QGo27u019o8nedzuxv024HlwdrMgCgGN94hiGN/5FILTN7b1GOoootE9m25GC0qCSI/d80wUyNvzg8aa07vRERA8znfi7Pr0oNHorqIk1mJ4fn26D/fRF/lwk7ejHrRiSzzfq0Gz0V8OktsLaFiOdYBhfnOJwj8Th5dpEM356GjNOERx3Icox4V+QCBuhac8GnEKRuC7R2AXouxWiaC042Auyy9hVoIKpGBxbbN3MLhYTY05KQjzEHF4UYzTWxgYqERzMMmlzm+nEO3+AsKlNxogCEsUtknBnRxzGSmIArc3++Oy4Ifw7TDdZ0LMb5WCiNrecUWcdxA2zbUURGuZyopAXMCLymURGitQJrdiQsuVUhoI6KNR2oabM5CIx9flRdZi3F0vRloNhufjfhPkfGkgPMxGvSZsisuIPTxkpODW5RgafBVScGt1izVgfrDu5KDDTGMEvgkCL3UimoDSCbIvWD4t2S2KoS//TbUoIo4qzhBbojW9Xj6TM5gq6M5KQQVW/72LCXo3nd7c3M7mkW/KTPFYDvFEURQRxaU7oDy7URjdo4zZB9RvOF6QNdtzJNKS1Ccs4b68/W+sZOD5BCtwpaNlgmR5brk9fpzlxPd8khNSbaP8Q0HqWrM2cAOoqOIYnOaFTuK7YbH04ncD1KBylOEIu5SGOjOJ0bEqMBNUM8MIfDvy0U1yPYYBmIQRuPUQXLNH8QJLQJur+V2mxlBTmxeYcqYWx3cq1I2hus/3v8p05rNb/EvLv97/5sP5P34wAhiBGgi8lI4oCVcvgbapEDRGXuyhOW7/s2HasVBQ7wSdCmZZT+KawX1bYjfVIoULln2aCYZjm/+wnFDt0FszB47zqcnqW24OKU6VGdNwAoKrmMO2Et3tF2UJBu2pTCy387FsmXcJqNiSW/Ki5G1Xg6XlCuQtpiGmVuVRLZXVrFMr3y7blX9XTamafBmYLSnVRCFz4+DUtdeqydnSyN51CzWcjBHACOQQeKm9IEG26OyzVCB5GbQZWT0kflEVJ9pGLzSHZnwgS18ghUhekdofh7IZbieuaB/3ZdDMIIjQFDmxlBVpiJIv2uRtvLyBdIZlCM/OGUguufId73MtBoFE4tkVxpuJ5/j3KxKLiipyRa7jkwzb2VJXlcyqSlsUJxmGjoFgmVjoulGLSddZtRim2Q7pOwuF1By1BJHvbOV3kZeCmiIXtr+lJwZQSokEEGTIMIio3HeX/iDgaAPOT/CDEcAI1EHgxaRgncq+OA8tWUYv+VngJLOsHJiAjQSveLRsKNvmxUcrJlnNOqVdmQNdvLiYE9TrBU52O2fWMJWwcOYa/t/hMCcDYkczAprna9Yeh+ETyu9FJt7Wb0pQRNJWlIIcBL1Rxfh3PVZpUeFjU1Hzjg4IUMNUrN/WJFqiIhCWrBbkCqiAqi4tKWhR8hJPR1G5yJC1vCImaHvKQ59R5PQ4oRbDFK9KlKMqdn6xFruKYhEiOGF4nFtGUdlAk/XCCI9sWf3n/XppsKGBlm9QXRGe2FMElv9uzucfxxS/xQjUQOClTkRrVPVVWVqi7ZGyIP3XD7Z2KEgiD37O4LYw9B3TMH+NOse2A54uv7AKkIOuS4nC3/5EGz1RFMAMDu4Kw8C1TPvXT+TRuWspq6smdmgMbEFgY0UBizQiDhxDNz1KdhdS8ikOElfq/Phz0huHtrCrq3WKN+whXIkynKymtm1J6NmGZgas0PW9pxBI34NzHdvjeI4JlCFM2jQZh56la1bECQfhejtECYYFixOeCWRVFhjIBZYpkCtk9JXTglq1PZGpJZmmy4ks4ymqzINFYRy4JjhhiHnTXS2sajEM48jWfE5kWElVwBUfmYQ+8Gv6LcWpYeZDy5blsSLLeirwAXvQCEagptkk32tbpfUZnD/D8m3o8TwTKZoipvlRPxguJTs696UfwxNg4dcYgfeHwDfRwXmxSmbT0dngqLu/10TqAqD/vn/YP7m8LqrlpVpyx1u15HI6ohve5rdX58e9JXFEu9s7Pr+6LSsP3l1fDA7394CFRrPd7Z2O8qrxS4rVOqLT826zeXBaoZL4YiC9BqGspURKH4GVAaF/Or6Zz8e9jf0B5NmqI7rgcH4zPut326grG6gjzwBr1DVrS4llRSjXEu29g6Pji0mxuzMNBr3OkjYmKF+W0yBfN6sZDCPrtLdkptk+6J1cTks6nfUYvpukwKyaNUDN2tolWUuJNBPwcdI7QKCkoxu1do60WCssJTbwoMG4QLHbPxs/Ut1WPvALjMD3i8AHaPr7E+24RRgBjABGACOAEaiDwG7cC9ZpCc6DEcAIYAQwAhiB5yKApeBzEcP5MQIYAYwARuD9IICl4PvpS9wSjABGACOAEXguAlgKPhcxnB8jgBHACGAE3g8CWAq+n77ELcEIYAQwAhiB5yKApeBzEcP5MQIYAYwARuD9IICl4PvpS9wSjABGACOAEXguAlgKPhcxnB8jgBHACGAE3g8CWAq+n77ELcEIYAQwAhiB5yLw/wE6Wqe8aH7K7QAAAABJRU5ErkJggg==;" parent="1" vertex="1">
                    <mxGeometry x="-30" y="10" width="599" height="235" as="geometry"/>
                </mxCell>
                <mxCell id="3" value="" style="shape=image;verticalLabelPosition=bottom;labelBackgroundColor=#ffffff;verticalAlign=top;aspect=fixed;imageAspect=0;image=data:image/png,iVBORw0KGgoAAAANSUhEUgAAAskAAADFCAIAAAApCvjoAAAAA3NCSVQICAjb4U/gAAAgAElEQVR4Xux9B4BdRbn/7X3v9l7Sk82SRgiQhAAxmJAAAYRQBBUevicWfC8qf0VFREQf+iwoKoogIIL0IhBpAYIB0oCQkE2v2/vu3dvr/ytzyq27G7IbwDOb3HPOzDdf+c03M9+Z0/SJREKnJQ0BDQENAQ0BDQENAQ2BY4SA4Rjx0dhoCGgIaAhoCGgIaAhoCCACphQYNm7c2NjYuGLFih07dkQpxeNxWNuQlzd4R6/Xa/hpCGgIaAhoCGgIaAhoCDACEBhAMlJKjS2amprWrl377rvvdnR2xuO6cAyqYGAB8QVsZQQxtBDxBXPTw6FYA1GFHQkKTLAW1IY/TFwN6OkPj2WuGXfUxamXbySNUvMlRlxXKSV6oYZQgJWQ9SINM+oxVCax5h+OxcQvZMaprmIwC2DgEDcBgQAUaSmC4zBO0RnLJSZDaaMuJ0WQqSpTRl4lVBieES7Sn34EOqRzOlIgCB0Fw1H6z5FpHK1RS2eLwXQDGI//0TRIBuAoOUSqylxfVkDF7mO0qwKXtBagjoEF6W01BkI1ERoCGgKjiwB0bDr7jxsNxgwj8ugKT+UO47/ZEI9FIyUlJamxxeDgoMlkuvmWW9u7+mDMh1HfaDTg1EQzJI78NBkCS5oPeMO7qlmKpgU2GIIL2sW5BX55DqEAQ9CrqqkUzTmF0MQrBSuqqEWqLw/goCDPUKg/V+BplvSWlKcJExXC+vIQzDvMSjUjKLuytoIlti/ZCDMq/sdjSGi7DBTVQbikyZXEyjKpWFTCmogdZgA/GWlZbNJOMgsmT57PZXI2M8V8algWz4SImIwZqSXgSajbDvLZEiRA81HZeCKGusdjsRiEFvgfAeFCrC3bD5GFlIwYYGErIDsBOlWRjZBhpLzUZkg9pppKYnpZVbmZBWzcHPKv1FxcP7VWanuliMp6qDhqCgnLzVpPwIFApFuZ1O7KgT6VlEwS/7NLylmSLjwn+YgK2XdUVRRh6qI0MlEjmUZkMhrkdqpunUWtzG1wtE2dSUhSS2UikNQeLmEOHulFQzBV+XhK3aSKKfir/S25GpQku0tyE4juyHVSVJPrKToprJCW8iUBSrtlbsFUrxfCUmSm44U5kgzod0wvfImo2aBkI0X2sJgni0zDP5lHFj/kWhBS9PZ0t7a1zZgxK4nrUegh108zLFnfrEc82r/y8kt1NZWpsQVcCrnw4kvffGeH2WS02yw0R1BkgKFFAk4xjTAbQLgBLYnnnHTGyYlOOWmCIeoYTi3RWAT+gzzkQ3Mu1ePTVaosppQ0XVOnXKmdkRBksBDxCziIuQZrkQMQNJIr0NSMRHwSjdkgWUenyzy3sT1khzzHKiqljOlJHYwZCwl0mh5LgMHwAxDEYgkdyQQz5UmUEWDLOcwgkXqKQiiggHoAXRSAo5ZKxKPAR0f6MuZyx5U8QOpuqDP5IYQzkpoEEmHBSdioNxhZK/ELqlDISNhyg5NsaDNiCmEO1kQ1gI5aESCEAtGCKAC1jSdA8wj94Q4l2KICWBulMAfoEkaT0WyGUBZ8zUT4EFvUnv6EKooB3MVALre/bJSgFQaSHAaBciQ3oFxp0mVWCBZjR20PiV2aKJXEh/IvCyDeqUkSnZoPx8mtIBGwv/FvKo1waiRVmk/ZJVkKn+RdvaoG+4SimrBdXX04+0kch1NhaBr2UQCadySXJaykpGQSHugVamCk/RQyoGQz1cTY/FkS6JCxJEu2oE1FMjc1VcomSC09C5vMGmZUO2PmcESThum1RVYSmMlUSqUM1aXxmapAubp9KUPqUlyX2lTq7ODJkjNQlmwFU4G2nCP9KsxwTzKGtsoRKSKSSnxSnqwmK6DYTuooWqEeyIMJUIaEgLRVycoELhentE7GxkrPBH4whPoHPT39nraunlA4ogijvfQqKQQZDkfS09NpnXZbV+/AwkWnp8YWe/fuXXzOxRazmQKLOARsMNxTfVBSXEcxGs1GIxzRRGegKyEMGY7xMLvgjAjYww7CDJVxesVE8OsTcWBIJdQikheRjbKm6hOvpPagNqV5mHZEDeJCzYsc+JeKkIAFkwasCeprgPGMlAffBTPBHlIArVR5B+VRIsbqxLJELCMGR6xKiw2JOLDFeRKEQEWIyPD6k8EEvwQaoidAE9xBNYokIKpANeFaFLChuZ0SgQUtEQPwJOeVVGLNuIvAL5tNbPEIqDAsVOmPvdEAjULTOSgGgQNuJXKEVZKMW6gKNSA3joKh+ShU0iF6mEPqYDGphXgQA/IEkVg4TdtQCTYYoAImJhPs4JU5UoTiCmoGGk5UeLMUzhHlHC4qVGwetyHVVFVPNp4LoCYS0wYaAzTk1orr48IFRLugRtiqjA46CPNWnJIZZhbNucQqSSPOSf5lo1NMF2Yo1oh2JC0IcVJMzRxpwSAVc2gj/GNqzGdrksUfvyN0MGoC/kX1CV12Gzkzo4K5SzNW+bfNlPHMjYDsOoqLC/dSe3MqD8WlRH+QHTC1FhYIGmYiZ2A3k6m5bydVJhnJVqR6MiivUlvtQtSLRWmqeBGJK8JkAtmKVHtpzJNLk8mk2qnKkUuzb6eyU3m7AIWaIRuxXB2psuqYLmR4OYzDh2BrsZjDkWhqbDF16lQY6/OcDpxUQG09zEviEggM/3CGieeZJogtYDLGKRIyERaCBhKtg+thrQIMjsd5EkWAoFm5KXDQwz1UHLLghB9LyQzMVdlDBhK2CsBi4MUZDyso1CRBDRyUITf65R+KR+gH6WBmx+kfdICaMFGiU+OMT2eufCrO7ISnyn4kSSG+lFgOisIgBZhi2AAA4FQqeBjx3FwkWvUBmzAmk9Xj031crUB+MCWjDjBzIwlRkR2QEA7KJMkkGwGCX5pOpPlDVo3UQpaSAUIlEGCktSRQA6IV4sKzD8kClDAuoIAHa2KfJLhoi5QkmYIC1gV/yV65dVGs0A/NBVgxjIAoC4MLDihgvQKgwYgLY1VqaWQBkmkcIJU4EWfaFabJu3jMeZKJoopqIzUVZ4kj2KDXUG+HhEK5VcRkjahwC6ImUBWKuQkQZaytFqRSS9KUFFMTyTQiM4kBNaf4U1tJ2ircCRZmjA2BaolCiRtuk7RJ0idZa7UFH4l9dgBuScY7Ra30TM5JzwcmqnCK2HCTZzKUHRVKWAGZJHsN4pcigj1L6vaZ5Ah/y1g0TKG56x7D0jTbU7wqVVSSe/OB4ospvk51FRpmha6N/1WMRbtIkMoAUz5xV5QS07bclFAqtabCVaYXsw4zSRYqyafeiz84pikORpnInPKpKh7LnoMKYBkNE5k5qywc5V0e37IJ6enu6e7qgUmbCUpKiwuLCtvb2gc9Xs5xOOxl5WUOhyMbh2z5sDyRGltcdMllgyFa96Z+Q30H5wX4gykApkgzVsKJkvIg4cSMkxAYAdcCDIZojGchyDXiBGUEgjicGesM8EsNAo7C4yHPHNQSOGhLzsbqUqtIbSpbQGQUJIgsVAGnAImnXBndDqrTCS7uIHtyBWaM8wY5MRbCDv4TgQVar9yYSkRESB4kycUj6ZjUwT89BBcATAJgoFNh4gLMADZIFrMFkONTdFQZZfOZfSIai0KVaBRyoR6uXsQ40iHDuB1YcVg3QF0lNcguwokQwQPkoegr9KZSJMCIERJ4PgYvfA8NBBjYFBgTMR6oA/zDCyEIIFYBy4TJEBxAOELhGegIpIwjaYoREYmRAMXmgcsvfCUNIgn0IbBUxBkUYUAuLZ5wR5Xqgh0gjzooAy3YooooSVaHjU0iIwtVGIljzpSRAB2p6YVdwBC0B+eFpsMf8ilOCnMGl5pa8JdogJJ26UeATbtKLjMbxq/UVril/9KOmj1jk4GbwD6L/RkqDDNLtlRl3TCrZiMDONlvUwlYBOAuHCx1VSNzLeKi5ql4jiwAm1zVZqmCMxyzw2SrhE4qO0qG2hmyWHl0pexp5Gpm5/UhSlJsp+FpaHZS60kuiO0otxj3B+4mRCgzxDz2dNjjfiMVUkeFxFCjDrgnajJWdN4lj+pCSWl0oqLkZpIQlpRNag5ZJ5YhDhXXYn4sRFFWhQxLo99UwSqq9N0RESdVV1RO5UogEHxp6f33ttVWlbtdInRY/8Zb0+qnHDl0ZM7M6Uy778BhmAomTJqQVlVkMN+MwlNji/LK6nhHD5xZx2Exnyddmht48ZqmSLPFYoHTTY4sGG6Yh+DegrgBRmYQyTMTnfPGDfBPnzBCYAGn8kqoSLayWlSDFcUZUrJBKuQYB46oRExv7EfUDsAJ5gGaUSUioiX/w+UNzmW+MB3SDlArCZdlqDpGS+IfbDET+QsnZ+nMV9IRLZXUwj1YqtABBnB3BPACTDiMoPUeBA0SoIezFv0HLhRE4A+c/UfROAzIjBhY4H0tiBxcBknEjLh8hPZw15LFo46MCRewkWQ9GUmENAnDPmYldT1myMQYS2Dwh12BcrgvIyjICatSIgKMEZEIBwy0QqaheAP9GBPm47IWJAg9MaiAf3R3BWfSZSKyk/6zJbRahnM8RigYP0gWo/ZsCu5wQiGiASiDsMiYSB1OyRTkT9TIHMSQnUgoeqPMXnAgAI5NEpaRjw2fqaz+MNTIgIcs9NjYcAy4ALDqNlQ4SgYygfoXaORa2UqxCbklCd4kESJ/GAgeA/uOIQtu++Ogthow6nPDMYpHWho9iZ67oBhDiEGqPcox7uEIROO8unNwb+XK2BcFGLjLDY4baTxi3yBtsTvDGMejLgknHklxJjORCxUqdRaPA8qwwGcmJFwiAxJVGxFXNWuum0STLJMZMQsgVlMOWTdde85J4SOTwcAbCAYvWXVenssJmSBr8zvbPnPB2QvmnwSHOxr37N57AGarbGxz56fGFsDGZrOAFCOow7GFdEmcF/altX1cxOZJEuhgeoTpAG9dTGAwAXNFwgg7RrGsDirgKTLEK3RFQmp71ExukaR9hYKkCBPISbCp4KxZNICYpkWcIzUwCGFJeC6KB1AgroWoakIlup1RXO6nZRia9uB2AOKLUPOcrFYzSWPECDLwlgbciKUZmHzBVlz9oWnTAHcswqIFBBj4DwUAZ/jBy0YgJsrXPsQSRgyrYGABAMaMcaMO7oNAyChMEiphBgGBgBAq7HTiGJsNyxA4aYtEogZSkWm8TsFExJqIiCv8xPFaGF7kkcRguCT6CVqt4CB6LN1gwhVIMrLEUA3iBsICr3zQygVFFQwMLmAgIEI2hCrQtngxDUSTkWQLbFgrDAEIcDgk+SREGM8lZB0niUiVpdRMyhSAqSDidpXyoSCpjw8hI5l36hGZwgnbSTnMqG9qbdUx1pRqMz7ZiVmSWlp22uNQwk0IrSnvgBJSX82sj3BMqZDryhwy11HnojOrmmKoCiMkH4od9dkUE4aucywo1AiPiB/3eGmgQP1l7HPwUYiUAYP3BPhJB8BIOYY9MeKoPV32ChoYlGFNaUtSDCMMSUPOEKMaDX2ywpJRUAUyZdnyPlKrLFUZqpBgpsoKZqWipAwVgaDP7HzJCiHnND9Jz2EFID9jEavCVqS43MzZMzZv3HLPX/7+lWu/YLVazjvv0+PH1548bzZU2blr31PPvOguLIBrIipjRrCbGltAVcIe/wwWO1x9cdOZNmTFgj5vGG5L5HmBHq2ghPbQOADjPt5iwfMJ3bAHZ+4wRyKs2JwwX6QGvcJRnOVTaxzhlgMHBkh1k9VdXFFXaqNpFevGgn2HW3t9AVz6YLCZJYcWFCGQKtyCGKDCmT57F0cVHABTf2CMaUKD2ZOiCJ7dkAEekgV6m6Mo32nxefv8Ibj1VulHkhuxU/NgjSEMKESRDPkozqaQcELFOdXscLiL8k3RSMxodTissP5Pk6IuEQ0Fen1G4I5CRXAjrZ2gJkaTiNzFzRequYHaiBK7FGzo8o/I1Jut7ooJUwpD7QcPt/ryqsfV1FQ4RGMHe95pbA5F4hNnz620o770F/d3dTU3D1qqKirywkeaO/u9EXfdtClFNhG2xmP93S0fHPAVlVaPqwi3t7R1eFEDtoWlEqIiPqMd8A2ISPAiA+FACbYQYCA0GJ7y7RdkC0ZPlHAfN7jMJbokZXGcwbRMiM2iHFMFSFIbY4swRybCIppQqDWxAVCU2BMkxI3+sWRoV8jCpFByFS6n2kJJWZbYoY2kQfK+wJwJFRLIxiZkjriF+qQy2ikJlMSIaqRxtkRegmsyZF4yaQq/bCzGNh/bUN3ZVNLlohSaHFW4tuRFw7Ik4xCcuybzV8CVpofctYYsPUZshpQzMoJMWiX7fxZ+iruhMwNRkv+lshA0ggx7Pt6Zl9SdsKegZyMpLbtiuTK5Jjek3PGxc0kOJno1DQuQqLuxRKlPUw6TiVpqrVl4BntJJWIqREjmqM1UTMzAAbNkAsUoiTI9JwuPIbKLS4pPXXDKxrc2/vo3f77h21+z22wcWOzde/DRx5915bunN0y322GSOJqULbbQmS22kvJSZyLs7fcEYSZwOIvzCorDfm+YJj/ATCQEn54cgOmc53ouFCEGTB40KWCidoWt1NkJfvxncRYV5we6ebyHNROT1enOt4V72jp7Qnp9fkldcfn4YPBApzcUpflGbnqeyegcWIhg98ITblQLJOC0jxshWPgVegw+qUGRkLAI9WbTIMtssTvt1khwMBCG+yspCcdgQcyOfRFFkTTsAKgJPMxhcFdWlxmCnZ0DIbPZ6nI4zPFwwmR1WAyRSDCKy3MmK8Qc9ljU2xeAOiSbEhpTUDqx2Klrbj7c6/FRXozvYxCa4AYtYPQSBVMaalyhPdsO+EIRDDFgyrbZy+onFhm7d3gMBTVTJzVUJlrbOnoGwomEa/L02oUnu3Zs3FVYWloca9u8q12vNxeWVNTWVYciHTFXfmlRoLOz11BVO2NCldO7871DUeBoKZl4wqQJ8di+g4PhqKN8fGk07Ov1CVdAZVAl6ocEJzQJ3neDC1gEPq4O0ZoFXBRBa7nJmJoMBxoaIahDcdsRonyIpShCxIgkRwpqEXzJqwgRKKVbe5LBIqy4nFuQiqU2pSzSP6kWZnIGbOgfqSGIiSNzpRxV1aTdtAKFCVdi6ThUsplQm/oMm4+8hCSZLdYACPhYsEsTgzSkNRIiYkwuup/gL7Mc9g6zYeSGXSkHITdlOgHoLqZtVcAh2p1s4U6NVrIzqH7lTMH2qI1NVytLDk512V0gS6Whs3lSHJpubCmk2VktVXSlYSlCtOyPalZJLJIcDA/wBJ65iw30CsScZhUaPGAXG5q6jcxdqpSuGI4qcqdAHtztkIksXNW/BQPWXRo6sIeJ0UkdtXDXlfTEmlBNUVvsJtmbrp+qEru6rG0mWrSbwcxucYZ6sHyw4PQFb73x1g9/9Mvrv/kloGhqan3okX8UFhfNmDXD7rArWGSoLbLYsqQWS3/nN9AitAajxV3kNkUHOru7AzDZG02RWKcf7kWEWzrNZri+gJOp6Po4dUhPmRIEQgQ2NM+ZOO/ThXkc9KmUMCBamlEYDDH6wQamJ108Fgn4fZ6AXh+w+l0ut9tk7jPC1Il1GETkLyWogvzZP3DNAv7w+QdWiM7oUTExrOKBkMkM6BVhdNEf/rBE9go+9VWcjdVHG5CWvFoKUTG8IIuossXucMKqDbynzGx0OEyJSAyfjoBYLRQN0/WNUDRhyrPababeQEjGhNjqDRYIrlwGqwWfoYC1ILz5BRBRwE3SMGHLLyjID8BVlyC8CQOnVQgMJ9eVGwK7DwSsxZWTahwdzfsPNvVE8D0Zg++/22MyJkJwNy5c+IgGe/sGwPKw2VJQVlPgdASQNWQYx5eXFOr63tw94A1gNWNgT2vRCVUlxZ3t3YN9xZVV5cWBUKA/SkECrtPg+E63SmCj4z8IJ8BOPPHHfKbDX44+sBY2uJREyyCAhCsiQiDzhpjTKb0qG+kog7PlhQ/RNkwqeCCs5HEivhWFgp/MQ9rBQQcqCBVhg9UpS2ZOVVEnZsWKKI4jSZdLJZMwQ01MfoQoKYFFcl3yVq4k85CFkscyS85LJcFyVFuQEbxizsaKaq1SxI7hIQObLlBWFQhwBM8ePWQkSGJISPEYLfKp86YLhRyZTK1YdvKMPIbOZIuGpkuiSGvfEdY/tuTYo8C3FBRZPflY3knyM+HQXDfNB1UsUhxU1BNOS7xp3GAy5ZgyRNwgmlJqSD6Um1XdBNi+NKKAl8go4R7li6RoxCGNSnuViaiTUkeqqzJMrYZklSwjaUdVKTPBh8/Nz8935bne3fK+3+8Hbr19/XAiWjdh3FE8HqJWJtO6BeBi0LuclkR40BsAXMW0DQFENG4wJxJmm9VtodeLJhLwYqRgXO+0WYARNCY8IjHY7+2PRi2FxaUuq5kuDvi69hzsNVWNm1hk1engOUsIRODOA9YiNLBtb4tPNAPNSTgroUjc4qmuzlBot9n1ul5DwbjJJzgTh7Yf7DcWTG2o1PW3NQ3kT5nitur0UX8gCmsNNnEZJepr33GwLxpzTTmhxo2axby9vYePdBoKi2uqK/JAdizQtK+lwxdwjZ8ypdAGq/OJeMTTffhwH04hKlfS6a3umjKXBaZ7uDak0/n7Djf1m8prqgvYgHh0oKe/068vKnXbgj1NPX5LRe04Z+xwW6I6z2RJuKtr47BaYNEnwsZYwmSOBeFFUvSwI2AXj/ujlgKzNc9ocpUa/H0dzV57WU1lnicchdDObjc1TJxyOOiqcNkARzAiHu05sqmxy1nfMC3afaTxULhm/Lia/G5v3FWcb7UXzlsQ3fjmTn8YYhizqTzPEgh0tujdZfYKh2Gg3T+gM5gsyAb5ROKwNgRxIrY03AIC6xYuS57brOvUxcM0j5qMFWUua8izN5YAAqwGt85090Yqi/Iqijo6o96AvsRqc5gMPlyQIMywB+I9mBw84MJEAhoP+xj2DrwigqT4R0ksXGA59UIBO/UkcgJoNIJJnv3SuyANA9yLKe7A8AsY0Xyv6tmyd7HLoqwMidXgAtxPIcIczhJFQmHWXBhAGyUla4wlyQMF0SaxoxpCf3VtoGRkKDxKrUXH8o9KhpzLyiIXCn8JCOJz9OkYsEgSrp7OkyKAZBWhaXKUyrRMlkKs+JJMN8J4IW0qPXr8uOZRhRcfVijUT5lij4ojeRf5URqKsnMxTRJ7LlNTSIySasEB5qu8Wc2FpBIBV1ZIKUu0tAgvsCKu50pjDZkv9/eM07xiG0klLSAPtzR2Uy4kFKR0JxqPRJnQXxyqcJAKsLYcAEl2SGxZoFJLVUmWLEwXx9ImpXeohzWWCL8pmZs2bNq+rfF/f/JteNshlNbVVl24cumaF9dZrJZJkycJMbLJKfKyH6bGFswBbJIGUhixbUXFRSVFViCNhf29MZiH9CFv0A/n+lZrvtmoD8N5LcxTES/M7yYLnK37zO5ChznU2n4gGI6VVM8omzQh1hwz6aO+/tZD7b2sDd7Y6Z4wpaK+trsRZ3Scfkz0Aic9PadpcZdOmlk6iYhDA037B8LGEpgQdfg8J751ifbweZV4b2dnc7euvLKk3Bpsau4aSLin1lU21Pg8rvH5es/+D1ojzqLx44qr7Q6/3mru79zbHi2cUFE1rsjrd0wpNg007m/SJazVE6aX1MXCre2wUkLxFIJA7QAhjt0UbjnYYa8dX5hXljeAb0OPh3xtR/oS+YUVxflucwRnS5zc+DVZCYO3qdU7qdrga231GdxF5kRkMBgxu2zQ8PjUKbQtWgwv7wS8yTkxqGJZ8IqtQIsvGA/qDYebj0Td082mhO/g+u09xkkzFo2ba9Ad0EM0gM/rQISGEPTsHzRYi+KBxncPxnRGi1kft1jLq10GCAAMCBCsT4QBMLNFj8FZbYkLY4XA4XXvgWGOkgnnLJ2AEMfC3S0tXV3egrpCvL0V7jkFjeABF4sFnnsBNRMQ52EOPusRSegCBkuFzT5gDvo4HqRuB7aBFRAZQgSRoFtFsBDme3wTBrAEbSCkoJsuAEFEFqFmdyCkYd5QOifm05woDeiCUnQerA8iRSbuQgKu2NMRTCSjsIaSRIYieEySSsRWGS5QDWTAPzQ2YM/meAULBDdiSTef0iIHi1CsUYQqkiRtk2SrGaIZZDTWFsrTahge0jHJp5QsURGcroKglCrCVrCW4VEVjWCXtB2NBHDKQyQrzyCj5gSDTCDvKPSEEBxykZoVqorshhWdHIVdqKTkaWL+UZrrKPiJKuiwSY169KyOeU0V/oRuqp7sH8kuqZ6buW+xWgqt2JOdS3QF7tTU+ux52FdU4PD9+njKRLoo1QV/zAC3wDLOUf3KfoU0lE80KTyEXOCBbkgbdCfqtEwuu6uoLLkrFUsJ66r2YRftwJSumLoSipMhJo2VQ5luhDubN2zesum9H37/67DuzbEFMJg9qz4cDr/y2lvwbGNtXa2imYxHJimsPPzyTlpsIZ6nYFRh7IeWCg/0dw56rEUlBW5zAs5VYfKwumywBgEJr5Dji6LiwXDE64u7XAh2HrzHwWCy1lROI1XgtRdGuwFW64PR8ABcb7e4yspKyvJM0CbAPgQzNb6ASa/DFymhp+ByhT4R8fa2tNL9FgJAk4u8BuYoE87jNF8Z4emUcDQaMBqdoGs05E0kosYQ3H7pdtmq8226YGe7j6bSjmB+ZSzq6fV5yksn5vU1tR9sDSRK69wmvbW4YXIx2xILG616fRC0SkEu7u/p8UAwFI0VMmCJRCgcGtBFLLFgIG6xgSIpNZAHaotxkt2YgDdgw90W4AzABB4xRfjRm3DtIwH4kKfy3IF1aEqGH5iKsStEvT1eeF2ZodkbLMu3uY0RvGYFczzeBwmo4VUT2OLkbYJ3ekKCelgdc+B5HWBItzmYdL6WQ5taDumrJ82vs8NVL7gvJNjXtqGxDavDf/g12fj15xCQIMIQxZhiiAbFFnBFDLlCPAPxD5RjkIA3ZNIEDxTYdniALQjBBTzigqECvmTuLGUAACAASURBVIWV2gpvtMDgglcsyEJe0yAQRCKvTHFg1CTbfECSJezoQOQwP2KHtcU2+0ZWBS0RdWCLStIR5kp6iRxCjP9ICz4UIlJs4Fw5cErShw6QDwmQi+RABHOIvWCt3kh5mcpUdISR+K8yJAPD45ZFDpc1ATzcAugz0nit3pGrp5Rm5SgXkN9mI1NPOdlo1Pk4HKq9TenUuUTktj2LXPawrGyz1BrdbNlcEKMCVd0ZREcBApk4qa/IBxwboH20B9RUBBmqnohZsA7OnY87D16xJzocfTjE5EP2HM4B5VB8KvA0fPL7mlGaqvVYLRy0ZQVREeIjnFOtmELE7iAfS+0lZYgrocqh2nvQXnVCKnJXudVR3VQqoXZ2pwYCEaO8s+mdD7Y3fmv1NXCyDh9naO/ofvSx57/8pSvgbQlzZk8PBkMb39oEY3xVdZUQQugPM6XGFtyG0Fpeb6gg3+x2GnsD2Fi0mI0W4ewF57j9cBEeZxeYuMEGh5PPx7mV4R1aMMUHW9r7fOEIPJGKS/EJQ7ETIIEZxlGYX1hsDbY19/T67LXjSuy4fI6A0mSFahv4OU2Yx3Dugnych7DJgQG8Ph0mSgix8KETPP+FpqO5DH5w0QDqwIQIRziHwwK92WoxRuNGswVm2wSsdUQ8rV3x/LwauAWhqw9bKjK492BXBO5/tJitsKYOa0LUJioAxaHShrQHVOC7KBoe94AJFPWGWjTrig6AtsCE6rQZwoHQgD9msMWcdr0hGIvhbSMQOticJn0k4B2M2fLhUVOcFuGpWKwlXAeYY2xH4APUdjPYEI9S3ADXaCCAQ/Tp8gJUwcUGiEUwfDGZ6MYmPA6EY31BXYXLXWILePAdmyaLHS5VgeIYIxLoEHQQiNgJkBvmGgyegWBBobvKZW/2hfC+SHjCpazIHPV5PHBrBlzFgeeGoAq0AIChOg+EYQD4QltRNtwlgs7PLUStCU5EzUihBVlK/QUNo14rT+HUg1QdhxsEuSJAWEfapnQuKV8UJxPTEXBgIokVH8pHkghZF/IIkbCVaDShLZimikPJpIzylfoqVpIyMmfayVw/tZrCkPcYmIx1BcSyFCLKSJnKdBjHrNex4qYSiP4IaqobV5IiO0ayh4jK6ZkprLBZU9qJxuthWCtIWKmR1BiCN5vJeg5BekyLj4ncDC1FSspNpwKKm5CdFSFP6rtMJzW5WHYgL1AbjZXxPzUhlzCN6JSYh9nYpvhHnRQOMTYV3or9F2kkBVKBT4dFavE0z0luDsX3kh1MGEyoUA2Vs6FaSfGoQpzJz7hUxVBhmqyLOCLzVeIkIs5vbWk/b8Vir9cP/6Dkrw8+PXHyhHv/+sS5KxbDITxb2NxC7+iszsg7VyaITI0tRKvAjZS+/kFnidNdmEj4ggaTy+V02kwGfG4iZHbC5GLwwizitBfoQ34/TpUQXMD7LTDpEt5QUG90FNqscMU97i6qtYb6uvpBETDSAKsVJvgGK6znW12lDrvFoA9T1AJ/+GwiAoFzKW3o/BeAkXwE53CL2+WMFRbAk5FwUUYvXv6AlMDfaILnZeI6i8thigx094UTtlJXefFgX9TqLDbGgxG9o6KiNBLs8wwORgrLC9xHAuGA3VrpdPTATSTwpIQp0NXR0xcWkAEU/C8FQvIOuChhK3AkzHanORbqC4Zt+AUWK4BUbIdTfrxqBc+XRh2Q6XIY474wBBQxf8DncrrzrNG4LgKPXtjyHZZEsHfAH40aowmr2eYu0JkKrEaqHAlHY06b1YGTsNGW78oPxgtq84zBvt5uvcOtd9ldNeVxd6HNBOs6+hg8y+I0OfNdsYgngu8U0fu6Q4lqWFwyegOBUEdveFxxETwH6vFFdYWlE4qc8LAKrvlA+1P8JjkfAor7iL2hZ9Bf6iqcWpN3oAufPDG7y4qMkU6/PwTOYDE7ddH+WDSE0Q9fyaSujD+YMBdHAGlaQ5a4OkWFBKfUo6j74A96EE4lNF7gDxYANfdzUYdr0kHGhENJ5kbLSE4tmSmxVsyNfjGRyjgeoQ0isFDOoYmChzFpAEnlnFEcZBIiGQozZKlYpo0X2chV+Yxqql4f4eNkB1AUzZbPFHIpexu7UEqV3Bw+apCQQ6LvpSVu3QwFaZRZM8htPxSHrKypQKW81PmFu6NYLlU4SFmiY8j2yVW5ryg6k1PjSMMRQ5IhcqYox9VJ0R+AjhyDHSEDAKqRR2gH5NT9ZZ0RNUmq4Kz4FZax/QQC/ClCkluNRxY0ggZMHjXFuEDwJbdOxvYSVik4KvWIZeZU3zB1w+YPQmEx550yfx68gnPru+8/9eyrXKGkpAheBJ65ctZcEcOlxhY0vOP7IcKhcFdnT7ggPy8/zwaqwbQ1GDXEw5HBUHc0r8BmwodeI8H+wKAvClcrglACsUUoBNNNNOoN9kZ0BXZ7Ab5LNNIH7ywPGgv8fkMoirdseAc98JbRvHwoDAcC0RA8PRL2Dhrg7Q+0SgFBhi4eCfmC0ahYqiBo4MGKfl+/JWErKihKhAa8ukgYLjCEfX49PIEhsDOY4P1i8CkU78BAVyABVzJMFfnwngo4KfZ5Bvv6g0ZH1OC2uQrzQav+bk8sFGlPFJUWuEuwBYM9vT199MQGJLiKEfQH4DOucM3F7w/oQRbcuOr3e4z8SCreA5lXCHShvl6vFx5UjeuMeXZ3vi7o9YUT+DU6X0e7tbwC3qbq9wx6BgORiMHTPwjGuZ3wBAnBDlFOf3e7F1ZX+jv7DYUWk9OaAD1DwUjEN9jVCQ/fOvLgRB/WfCzFleUJXWiwo6+tPWZydg2YCi1OB1w28gThy3dxX297l7E8v6QwNuDz4HvD9XqvN2wqcFbYjS3hYF97uzFWVFxYmOcGqfGB3r6QVefHtYlBQywMDi98HjeJSCgAufBRGIOnu9msr3QVVvKrUxKR3p6BdngwxGRz2ByWGFzliTDu1LswChDPfZICgikUwQ2+1IOFFIaXZ29Ane7GgM6Ft6HAASXuifirSlCdikRH430+FMzU1AoZsR9ZEvTYqbEy3gRG/PAPdlhDMofKxbkR5KMsJiKBw5TLZMxq+IoOk3kaw6Otl8ZojDJU7a5MDCCb89W/KQrJFcdIUUkMzWfoKMc8pc0ysgR0wg8jDlxa3T0/DKtsdal3YJIGa9iVPT9zJaU4yWmFsUk6EwHHDcgfDwUg2BiigOY8iRWT0DkCqiSGFqokjy2sVvLAhXkSvdLDiaskOOmMiHnQMMGDhchAOUqrsVasspStFDN2auAkVyCL6IRcjEtqpkOHF1OmTYF/ika0t3DRgpScpENhZVYSGMT5HgH1eSFS7zvU3O+Bm/9pNZ7nCDGkwgYaga9ByP7BRmFFuTvxyAu2ww62Kd7AIfmV1K6sFx2JQomC0MaFZuJMXBlwGfYkHgpje2lpYYHV09o56OP4ACtwJcUAVkTigNqJfUW8UouVlJ1RpoU7HarqaiyBnn0t/KovYsJmw4bW9oVVOFeSjWQUG0N6qRUTK3RMiRVwjuVZVpfIq5g9qSB6ZPcHPfA5GbmWvEs6EtAkhvdhC6/Oyq+dUGbztx1u8/o59hJIEhOhCvYRRTFFQwZfSIEKaIDgbjA78ivK7IbB3pYur58MhP+4hZeXoyZ4hAtY2O6UyFhZIPoUdwNShMiYNQYXVI+eGMbaAkkqF4mzsKI6l+zmDJkAK7AISRGFS8qeqo4MErkfYUO/GZNcRDvi4ojUtmnSVFZgmWjMNLLRyyAFUrQ4NtJGhWmSauQPpD/s8IQgH3Km9CtopNroUuq6aq6pLTJEk7AzqBlkbWsikoYuVY2cFdL5q2XJ+1l4DKF8RlbJtnwoDjLIQwqChlKboOqdQoFsrLg3J6GJjJCBojqOLxzlqzqwaAzRm5mDQJsaKRn5DO2QnsUmkPL0X/Yl2dlShyjUEkwDVslAq3THXVUh7aYUy+bLbKxwD2Y42NzSUls3Ds7LYRiVabA615dkJotOMVxdL+d+9v4Olx7grLyxsXHRaaelrltALRjc4VHCGF0EUmBgyEA1zJOaTeBEOWmYibkCPYW8RVYoxT4JQBlYLleajfBlf5QnEKzEFKJlQ4OD/RF/CBYQ4JIDY4puQxYIyUQvDmk6UZyYDiW9UsYEqk2CmU8iGu3r6TVG8D4ULEJFSAna47Nv3KEJl+ZLVEhWBvcRMOmPgJPrs1oMHfL3D7Q0h2KD8OQqkKhgRy5CMUm+bCbsxEMhT3OLodgGvOm5FCFVqAkbiRm1HL3TjtqbtCJksYp0AsaTL7ejPh4NDPQNDvoosEDT8Udec6AcvoCIe8CGQSLcmRztxWqoBeeIIjzgfCgTBKCP2ENyRhm3Sj7z51J1vkRMFknskom5Elsn7yMeUgJ9+BB3UvjAMd2BJNNKO+pMRWEVZc7dTBpihWSuqSyy1UqlE2yGTZ5WP2MG63aMmWaURJlpgtijhF+l1ZPzUwnIJ5WEjpsb5VTWuWuAX7HPpFbLcozOj/1yCB1yC83Ce9SzU7HNKZAMFWDjyCNaATZoezZWTIUUSXvYiilF1LCUKQpohCVBYg/rUNemRuIkbYUaagvSm0bdCir9sZJSn/SQEzNhiao2VnRXS5QZZS8W5HAXncVqhXv129taS8vKLVa4X0AxSeypnEolWnAY0uUyKJaahcewyB8K+I8cOVRdXR2Bb5YKgyXSvQebe/oHYNECB2/MRHiQhuhQCfzjJQ04xkvouIECxSCsBsS4zE3/xTkssUGOWIN5iw3yVWVIclG4rIOkIG2lBiO1lIQlQgQxRLbMGq2gZ/n4pIeswT8R4pF9QilSEf/QXkkSs01uZsUaVgMZkqlwAg8BGp3Gg/lov7Ca7WTVWDkEDvbwXkyBM8LG9eDsH2ds0pI4iOoINJ4jEzSsIBJJidWSD2UEGXTFBBQsK0QwoTJSomrUKNIOAcawEVxyEvvUzqg70ol24CKBJyqLKMuKMiEfivULuSpLUhklDGQwFeuYp/SbTp8jJ1sRNgklsSPhpEKHMWGfF9kp9DLzj+yO4jHHSsVjz5EchhpCbnfeSXb4JN8QBFI3SKkI3NQuxAOMkiM1fUZIZMdQl+asgT0siVVuaiLNKCVFn+xsksVlNCN75nBEZ6+NJendMzu9aDW2JXXUklb4M1enpV5MUkdU+wNbASWSP4oMeYKiYzEQyiZjXpL9WcFIL5Cs5qFPVlkoBRvhZiRUcYk058BSlWGCkdSkKXIVzfGJAWPQ7+vr64XXTcEEz/qkcxJ4yQoqECZnDXmUpafj7ZHw6IbVUl5RCUFB6roFsMVJkfWiBufhnqYMek0hP7pAO3LECd8JgakY8mjVB+tgVAFW4h/EVcCRVr95ZqEpjXBkLvLgTXkS+BKkDAibq+SxcwBHXhnAWZhEM6x02yDwIncSZ5egFgnFDoBkkl1kI1cTQqgq74uhAU2S8BQaIh/ZFag6MgF10GYKqhBHMh2f2SBl+HZGcYAOh5/1RhH8pTOeX7EmYAb/cUO60j0JElx8sUpASFqyBWJH6K2oL/RWqU9l1ARSUIiaSa3BmXSkEoJqMkhsJkpjGDlyZAQETHSgjloJa6rCW6GdlM2ckYBRBVrZDVioqCDUFprImaO0A6IRBLQlVSKhxx4giiBHpge7BMEoafZvxpaBZU9AnOXBmjolI58Nktyl2Wr9e+bLCI+l+fLAmiwUWpY6XpbEwxmd//GuQixGDO656B9cJOTQeMuDERXRUEVOQr08deDJ0I/TUGIFmKk0gqHaYjAjcRKN2hzZj0UmGSNOcRVzRFUaglB1aWpSdQd4NCBmd7ogBYKBUDAoECC2SQgmwykfZTBSrWe2/TSb4H5JGyS7IxSJwvSXJbZgOLAy6IkNQJEDBBfwdRBsCTEZcawhzbbYmnjGzlNqLBqFyRHexgHvoaQETHCS5FmDmAg2uEbCnAg6BQDekxYWk4HhphNn+Mgb2fPsJc2OMGEyQ1aQG5hsIqs4GhH7ioejWqSkrAxhSLWpgMoVm4kQuOEvGEmfTOeIik7j0W5UCJ7GoBeDyaGZ4IN5qAPBI4UUiBrBh5k8efMakRQMsAIIFVkCwlkD1EVOjCQXSpkSvAg9tieGPKCZ9H0PDDEwzsDmECAQF/FfCOENC0ZcVH+SGqwTSoX6abpJXsmNIStM2SCXW0rOHs4O25UmaDhVc9EAQ+DMv0DH/DlHriZBmsRHrpKLu1Y2EgRk2GUPSWkIZpaeKbdgunuAp4muzpV5GOCOk6ab3PrqEhoZ00iljMz8oTR7neF4Tm6hWbX5aBfkxD6z6jgk4+CJIYEUZIjGQBhp2OLRiX0GPYFGTFURNAUPRzyvY4upfIJoMzWX3EysNgqikQ63KJMS5agHNJbL4xvuK3tcAQ3iPeKhciw6Ss6SCGmLV83hNnu7E/4lFUhc0OPSvI4FZBzBUphkPRSmKuXwUAeuJaQ/gwpZ8LbIGL6LEXcRQa6MGzq3hWUP/MoFPiaKcxC9JIEZIzV8+oLO12F6jUJgEYZFGnh+BLPoB7lSBfjDRFyILZiNsxoVqZKsORJgkja4D9xo6kXGOIVTFm6YKYvAalSZvYoJsJWwIhxhRdQca+MOKyNqkUx0AHI3thh/eQYmvnzNHavjW7B41QHjAmIu1DfRJI4vvIKXitHUDe9zlA2lSvD9FFzpAKwQMkoAIEIpLKOXaRNYZJAACmWADWQcGoVaUCIcSSuRweIEvKQ/hor0VTF46wi/ewJVw3UtlsNrKgweShSMmKksjdCR5MCObDTrQUokqaBoxNCSsjKJVCt5C5an8RUUGYvYW9RV0nNkCWoOTJZRCeDGpeBvsMO1ZHq5VK7L0nMwzChlzDKHxHzEmlBnwSQ194g5pFVgkNOyJRE0ijDy8i8Tp1RUH6YUCUfOIGO4WdzDxMCUVkmMHWn5OTKG4zkgNJvEHJxHuyhrew1bsAxmMivZt4gRDkaq0QgyZJeTpiug4pbFEQ/bgOZ4qQurG0WqSkEED0XJ4QWygq4v3VyFHYekp3V5CnGIHW2VboCi6TCzMyTlAllKR5IO1SUoJCmBRhBeRKOSEanlyFQ2QV0oCzuakUoxMU1e5tgikch3u/JdGP6orQbZ9A4nnCNxUsJEzYx0iDb+8EyPoYWysi9P/kQlzXFYlRjgH3HhaTODkpQlY0B7VIGnO5aNJFJzEsukKqLJBQ0hQrqIX94mASULQVpMJJ/jClAXzScDSHV2G+TCt0vQLReSb9E8jpghdvTyKLYZ1ZeUgOmKVjvU10NEdCK+7iYUkDCSuxaIZiaSOLaKAWKLFOTUhgjl0RTUT7QobFg7EsRASvUZVAGHAEtI40wJQEk5QZq6EfqmZiuNIZXI/FTdFMvU3VZSJ7tMqXGSdUyXnitH8iigoQaXfmFPtIjIFkwyQpZLwPEqkyA+pvJHhamioYq9sis7oshK9gfhMRnIkS23llIjpcMkY8MN/eHwSupJGVmRCjn1GEZ5Rs65M4clNzcLpTR7n8zBQe08YkbOYWoWV+NZiRBkChlxqUSM58AaCKhHy3CrYFc3FBOpWoWdCkhk35M8Kc08UkI9bGXwgOTWztz2OOmkMs+akV6QlqPmlYF1qqgRHDe3dadfE4F5MXbowP6nn3oasaBrIZRwXsUFC7ghlU5zpVyaEijh4oS8rI93C8DCBcRS8gUCJEnWjvhSsyJ/CgxFU6XMJko1qqHIxulcnsWzmM5Nr/JC0dJMjpqjobhJFsPKiWkEi8QkjCsQGFuI6VgYgQSEAv4QN7EEAnM3rgqY4DWZiJwUl5AsJherHQSZKkHAkTyNCrAomOA/Eol8VP+JMSX0liR3ggM2UgIQtxRWKNEFNcax9TNFo1HcU7dekpijGuEyKCqPSqrhJQOZlqUhoCGgIfBvjsAVn7s6PbbAezn7enuu+cJn/83R0czXENAQ0BDQENAQ0BAYKQKecET1NYSR1tboNQQ0BDQENAQ0BDQENATSEMiwbpFGM9KM0EBbV68vCC+ShGQrqaspsMBjlpGQp7OpO6AwsxWUFRe67UZdoPtQn7GyohC+FYbvnB7oaurGD6fozM78ouLSPKisJQ0BDQENAQ0BDQENgY8LAsc6toh625u2rLnvlcYuTxS/fxpynnDR5Svmz6yx9DWtu3P1g63jqtz4ZXH4cLhz0rIVl5x3SpVj35M3PFBwy82XTnXE/G3vrX/+uYfe8xTA18ut5VPnfvrST8+pLLalfcL844KvpqeGgIaAhoCGgIbAvxsCGWILuo8v5x2l2UHyt2x87pHX+qad+81vzqvKhyCi960/3fjLP/p+duMKvc5SNe2sC2689mT4xBd8ymvPP3/3903vTJtQPFNh177lr3/5R+Tc629bOcMd6tz98mMP/ePxmPPKi2eWWrPL1Eo0BDQENAQ0BDQENAQ+Qgik328hno44Kh19B97ZGaw69fxlJ1FgAalo4bXfurwo2CF9X1Rm6yyrrIzGPJ5gRHl2pOvtp9cVL/8PCCyAzFo2bdGSBSWhw7sOpNc+Ku20ShoCGgIaAhoCGgIaAqOMADxVlxpb8LOmRxlfhNoPHzK686oL89X3SExa/s3LZ8FXzZNTf9uRjpihuMhhkZdOPO+9v7P8pIYambCgvKbGYOpo7R6Ab5ZrSUNAQ0BDQENAQ0BD4COPALzVIPWaCL/vIOMLvMCclpaWQEB1O6ZkodPprKys1IXgM6RGo91iojWLwd0vP/TqnkgsYTTXnvnZ5SW6SE/Tu/+453cbbVjqGfA4Gk6sx/WNbsFm0OPRl+S5VLBZrE6rLhEMR6JwZ6fuyJEj4XBYVaztaghoCGgIaAhoCGgIHAcECgsLp0+f3tnZmS4bXq+ZGlvAO5Tg3Vj47shMqaura86cOfn5qasQ8IJqv9+vg1eZW6N+XzACAYBFZ8ornzgJ3qW17+Xf/mvcBRBbGCyOgpIJkyfw+87tZVMbpo4rdCi3aRYUFSXa+gd0ujJJdjAwGNDpHVYLBSsNDQ3wDqpMeml5GgIaAhoCGgIaAhoCY4TAwMDAwYMHIbzIGFvA1y1SYwt8gaTJDG+mzqbgtGnTPB5PyvoBvkESkqVi3MT4voGW3oFZ5aUWe9WspVWzdLqCxt8eJG7GvOKJ85Ys53s5M/B3zpk9s/ftxsOXTBnHpX0dzS26yPiq0nxSk3RLVTgDHy1LQ0BDQENAQ0BDQENg1BDIfZ5vMWeKLawWS+5qvb29oVDazZlog33yKSduvOepvz+d98WLF40rgrsuGu//z9vf0lXXD8vCokWXnPPinXc8WP39K+cVBlq3vbxmXZft5HMnV/DtGxAoDYuNRqQhoCGgIaAhoCGgITBqCHi93hy8rVZr6jIARBUWiwU+gJGjWo4iS/nJl3zN/uyvHrzl2j/5jPAga2jeVT88d83fclRRFxXN+cI3vvLc/bd+6XKbMR4tbDj93C/8x5LJrlQlh8lNI9MQ0BDQENAQ0BDQEBhjBKw2W+qnq7v6Bvs9/m1b3ykpSP0MPCi3devWyy677NChQ1nWLVj/WCQQCsPnxunIZHMYIiG91WZMRCPhuBHCmdTrLbGQL6y32SwYi8DX2SNwRyi901NvNFusVnMq+RiDpInTENAQ0BDQENAQ0BBQIQDrFnD/5fLly3fv3p0OTPn4htQlAfpepxlu8kynHnaO0Wx38NstRBWTnXbMVt6mMjJanXIBfDPUYndpr/lOxUg71hDQENAQ0BDQEPhYIABXP1JjC3xOBO7kzH4v58fCME3JMUUg7G186v9+/OyeRERnc0y98MYbVk6y6yJBn6e/s/HVB94PLFh8/vIZpWOqkhB2+J+3/f7Rt/Z57bQoBm+arz73h9+/uKHI2NH4xtqnumZfd9k0kz8cM9pcjuOxPhYNtr/38B///tqO1pAuOPXCH37lglkVTiO8YyYR9zdte/bRP7UtvHX1wuIcyCXi4d69r/7tV39+e8AYLWk486Irvnj6eH3bW4/86pG1rX0RQ6hkyY0/uuak4tR+noPlMSt6747zbnrZ5nSQ7ISlaPJpF//XlYvqXL0b7n+ptXDW6ctmuPy+hMPltJpU368/ZuJzMIr4+wa8oba1v/x268p/fusMVC8ebtq25qE7H9g6YHDUnXT+JVevOLEi7YqxwjKWwb27Xv7pDX/cOmjGEzODs+ik/7jlW4tKcmgxKkVB7+u/OP9/NxcXwoeaIMWdExatvPiys2eX2lufv+WZ+LmXLJ1TFO32GYuLnMfDJySbE7FAx/YX/3bnA1sGDLZJp1146ZUrZpRaR3YlftcTX//Vs12eIPJMJCJxU9lpX7p19Zm5usuoQA5MfU1bn/39tx/YnZ/HNsQKZq+6atXyeRPd5r33X/No2U9vWlEWHOwOmKV2GS1FhsU3Gty77s8PPPHazl5LzDfxop+svmhGqcNwlK/iziIRHhNJ9S98nZYRRrdjKyiLfC37k4HA4dfu3zDxW3d9f54l0bH+z99/4LVTbz7H2bbznw///oVtnu7yhQsWH0c7Kz71xStXLJ/Nb43vXPOda2+y/fZ3l9Q2LP18A2jV9c7jz73XWnbmNedOUb9YZUz0jYWa1z/30sC4lT/65qfGxzbe/p0HXpz2vStOLDEb4oOt+9b946nduvkLc2qSSER7Dq999NGmVb96eGlZ8/rHn9z04stVSyvfekd/9ur/Wzytwv7BvRf//p9LT/rchJx8Rq1w0hd/e/sFVcg+3LN/7VMP3/eI43++uGDhVVeRxD2P3PBw7NJrVs2vsYzteNO68cG/PLf1UFNbcO65qEgiEeg5/MrzL+kRR3fjy89u3rpp/4TzG7JHBr7M7j3pC7/4xgV1mZdnRw3kFMZGV9Ep1/3+x0vpSX7/wfUPPPHGc07XpUvrV97030T63h1fvL/yT7evqh4rjdLlJELdh9a/8Gznyp8/fF7Rrr/ftea1V9+vuOSU8hEtl9dffMddFzPvRCTQ+Pxv84S0PgAAIABJREFU/txxHD88Za+bef7F0hctPNseve2xVwoKL1pcX3/1X24CJYPezX/56ksn/EG0SzokY5cT69j0xuZoyfKf3nV+fd8z//ODf246s265vcB0TPsgPtSZYhK+O+toPyYyduhokj5SCExZ+bNfo0KJWChmthR2e3w6XWXdiZd9++4Vjc//YX2GN6scL/Xzx08uG/AHdfGgt7enPWgp9Hd3tXd0xds7++p0sabmdm8QXtOmKxw/c1zByE6ijsKicFffgGvSjFnTK/Ed97VTKrr29EXhNqWYt3XLK0+3Tl05u60rN9tELD5wsNt01uWn4lPb+cXlFsdAny//gmu+dQpXDFvtZZ3dH4XHq0w2e1Fhmas1HNWF+lq6QyabMdLa7e8LHDjYNbuyOta69UAP6AxXRCvHTytx5Lb7w5aO+9R1P/qUrn3ND67ZxWf3Ef+hf+3qnXsF4diw9AsYduZM7gzuHQkHS0tLjukInVOH4RRa3QXFtjx/KBLTBTr3dSRKiw09R3pi3njjnp7iiY7Bpt0t6B1WV1FFTV0hvdVwLFIc3oho0BUUWC2RmN1RVOYKJxIJeCvS0SoQ9Xdub2w78ZxpBWOh/dAy7CXlZYkBXTSW0Hmbt7dbp9YG9x/sjnha9x/uzyuP9zYd6YIxUucorq4uL3WO8S0AXk9voKSgrq4MPuxVeMKCwvW97dE4nAAc0wEvw3s5dRBcQO/4aHWQodtSozj+CATbtm7YuWvzPsuCK+WXnx1/rXSB9n3bNr01yN+36dneXHr556foIk373nz2gSPjLpl+aG/jzrbu0h3THI3N/9y6C2ILU/+h4KzvfO9LM4tGWXt7zYkXX34iCwl179l52JG33KDXB5s2rnkv/umL5g28uG6I2MJgsk5e9tXvEouov6etqXcgNMXGAzRw/ODA3vXvxk4/p3aUDcnO3rtvy/r1hGPE23vQo6s5bVqpruvVp54+Ulxf59h5oL+p+80NJy2o7V73+J8P9BfGIvFIaPzy71z56coMd5JnF/MhSxLxuLezvbdkRvzI+vX9OkdR1bgJE4tHvPrQ393q9W57e33UDHeNVTcsGH98JrpEJNyzZ9N6O0kPdB9uzS+cM72mQNf6yO8ejF16Uc2+TQeiXcYXXjtlgi7w8lPPtAzmhb0xW+Wcc665YH7p0U7uI2wBo61g4oLTF+xt3PjK607/fkf5nHlTKz6E7K73H9sZWvGfc44P4mR8zNff/MHG9SFa/vQ27/LPmDyposCm2//Ud++p/NMPit94a3+gN7jurXpX/eFX/7mhy+8I9ERKFqxYdeHCKe6xjC6inoEuS8JSnE9drKx6UtebXd54vFjHl41H2JLZyOGLp2nrFkD7CQ0sfD5fX19fNiy0fDUCU6dOhXetQhoBLKHuvdt3dCcqJtrCnoDOPeKheQSiRkIa7m3et8M0wO9/bWuJTTtBj6cMmCxl02ZXLFxihWsi84s3/OK1otM/85WlM4q7Nt71XNcgfGdvJGI+FG3f/lce+1fXtOXLTsgLHXrluW2uFf95Un7nqyPgGew/sHHDpmb7+LPm1dJ3hnWR/sO7dhwJFk8vivR6dcVjfsWHlPA3N261kuhQKBwyuE6166WX9rumLTu767W+2KWfPa149w//emDhPT+/cpyxq/HtdU3dAd3YxhaJeH9322BzdMuWonCfxx9xTTxl5VkLJxSOaMgPBHyxrpZt27rCxrj30Prtic9+fmHdKC/AEMgpKRGDpm/cmiDRPq/PWDIJzoylnlxw0hWr3n/UV/nNa+t9T/7mrcjy//3+iiLvzne3H4j0h3VjFVvo4npDwumqdbbv39lnd7nHW+NhP5zHp9oyvGPv3hee3Dru6muPXwwNesaCg50HPtjqowipv2/APXWywaijBx4hFS/4jyvfX/fSCVedW7r/2Vc7Ki77xpWnmlv/9eZBfdQX1Y1pbBEM+gOGRKHDRt8WdxcUmXo9/fFE3bGd+DPEFgKKT+JmcHDw9ddf37dv3yfRuGNp09KlS5csWQLfjhlZbJE/89LrGgYPb/jbH/++fnrD5Q1jeeaZw/z8hsVnyfdbNL/w7RvueX7m3GtTr6TbK08+e9yaN159vHkLPC5dtXCleDVsDsbHqCjQ8v4bL7yyOTh55RVn1efF3r//sbc75+U9+YCv92BjV4/vpRcLPnVmQ85zuljQs3f9sy+801tx2tlnnTwBL7BAck1eeuXkpd69933vlqdnnvr/5ovsY6T1MNmULf7CdXy/Rah3/6uP3fuvF9+dNnFmamX39JVXV/3zz/feV59ncuTXL5if2jqpFY7xMSzVulx5VnfZvJVfnpvXv/1luM3tzQPTqk+qHElwES+eef6nCs5YPLPYHOp4596f3f3avtlXzRr7XmCwOSctvfo6vt9i8NC/Hv372o2bJtSVp57T26sa5p+2e8vdf+kY77SV1M2aVzt2LhIN9ezf8NL+2PmXX1dv63zj6cf/tSnoKl06rWAkgEte0Lz+z6/FP33zlLxj7BYjY2cprp178hev5bdO925/5Hf3v/3OxCnlc5O5GG3Fk6dNKlv7xj337qywuepmza8sPsqIamTqKdQWi82a0AdD+GkuCwSfg7G8Qtdo3GGZum5xtAp/POo1NzfD+8LgkdyPh7rHScu5c+fCJ2MgthixfL3BlF9a7Ohu7YKTkLEfVYfWt2bmKSV37PbpdWmzV0H9kpV64+bdXZ6wp/Hl+56puemaMVhhDbY3vvDkP96PTDjrwuUn17otBl/RnM9cVAX3fEQTAZvZaLbZ7eaca5XxsO/QW088vq61ZvFF5y6azresKkC4ymuLezc3wyrM2E0cGZvB6nRXVUywbwuEMyyLVi28+ovmx988HA8Pdn7w6nP5ZVctGcszfrg2nF89qfL9shJ8xqCgpCLf1tY64KWxd/jJOf70z4xncmP+tCl1XRs7YIHsOPeCvJKKCmdJUzAUSYPd5pp8xuWXuF7Z2h4ZaNu5Zd2gq/SiU1L9Z/jmj4QyHgl27Nt5xLK0FgEvmzjBsW1XW19/RHc0scWRNx45Mu0/vjXpOCOdZH9RzcTyRFM0GqNvYaiTJb9i5pILzdu27O0Ntu998424wX32aZP5im0q7egcW/Lyi8N6Ty/eFWfRdbYedFfNyzcc48dEUPVMsUWaF46OjceH6/z581evXn18ZH9MpHZ3S1+mHZ7Cnh3P/fVl3ae/fHa9OeHft/Gt1sozqo7vOURWvfdveKW96ozq9GGoe+cT63rrT5p/zpluU/uaDY9v6U16Q0tWhh+qoP/QWy+/vC068awLVpw8rpCeXnNOOuPCScg01LnvVd+23XNPP2NKjofqYpGBD164f83+ied+/ryF00poldN/ZPMLrzVXfeqME+uKrYfffG5naf35qeesH0rto6oc8PQdOrIvUnpufvp8feiV29bnf/kLq06O+po3PXnfPzq8x/S2sqH1NRitVZOrQ6+/t/dTdXXBtsO9/nBZUT6hOew0uOulh18Jnf6fy+tt5sj+tS/tqZqz/Pj3gv62I4c9/dYpBc40fx5ofPXRA9WXr1q1KNCy4ek1b7f3wO2VY5QMRrvTadu866D3lBnm7qaDg7HEOHh+8yik97/77JrQad+eV34UdUevSuf+xia94bR8ODFIfjF2yHPk3U1bApOWr1rl8DQ+/oe1noHBTNH26Kmm0+W5i80Dbc0tvYMzCwf3vttZfkq56UO90CqLspliiyykWraGQEYEbJUzZ7vu/fX3XrHHdKZ4wYlXfXXJuA9xX1ZGGUef2b3hsTs2rHVZaNz0GKdfe8MyePiuQzC0Odzxphcefizv4tmOrod/+8SAP24I9xRd/oN56fHH0euQuWZP0wfvbFr7XndJ+4HNT9BsWrPsuq8vm5j+5trM9eEabzT8wbq/vb1d1xS4c+szSFVQf/q5i0+eXPjeQ3/48YNBnXHQUPeF64/f9akjj/149Ws0ZUR1tqJJJ6+6cFa+ziOZ4y6q6Hni/p/EP/fNk0L3fXf1g9ZEzGi2nnT+DROOZpbJBtIw8vVGZ+XMM89qfPyn33nNFbOVN5x53sVTi9Nm45ycrBUNM/L++uvvrbXHdYaAveFz3zh74nG55yjuG9j2wM2rn6cYLqR3Tz1l8fL54126Nkn94rK6pqduXZ244kuFBx/4zuqAJRayFk85feX8spFZnBOOnIUGi3PC3LOXHfr7L7+zOt8QtFfP/fTK0ycUHMVktPeFO1+tveyP08b4ukIG64Ktu9feeePOBwnDgKFk/vJz5o6HT2p1Ma3BUOjI2/bkH+/49JJP9737x28/FjJFfc5xS1bOnHo0dmdQYNhZ5rK5C+q3P/Hybd95wRnptC7677mlecf2AVRWJfWd34OBiDcY3rLxLbc9/fximO/8HraRY0vY3t5+3333nXrqqTfffPPYSv6YSYN1C4fD0djYCHe/DlP1iKcNnqpKJODlKM7Smso8aZCCWwG6vRG7M99tP4qBY5jCc5CFPR1dvYMBfK6Uk61kXE2BWRcPBwY9vRFHeZEx0NfT0xd3lBRao739nlAEVzHzKiaUu0b93Dni7+/p6faqvvpnLayuLrLBsyLw0qNIyNvfGXJUluZ4xxG8IX+w82Cn6tQI7lcoLi6yxwbauvrJFmtRbXWRdcxOSNVt4e860DYgXv0Pb5My290l5SVgTXiwayBicuTlW0M9bV2ekKN8QmG07Ug3vgTJYLIUV9Tlj0loik4bzJtUxre5gksMdLX0BGCh2AkYDuvJwBT3jgx2HOkchF6g19tL66rdYzVVq0GPx7ydB9sVjzDa8otLitzw4gd49LdPV1CU79APth7pCiQKKsfbA61tcAcnvDLZnldUWp6XYchX8z6m+/EI4Q0XT/EJWHDa5Hc5D1MW+liifFLZ6J8J5FRIcR5BZnaVlhXn2eGFfIGuA73mmup8U6i3pWkgZikoKdd723u8eHOtzV1SXFRwHIbGsK+rp2fAh03vLKktc1uP4mWZud/5PW3Oaf+uscUHD1x+/e827MLT11V/2PaLczJdjd733PU3/+rx9QeAZsUta351RQM4gWfN9bO++jjklNfP/3+3P7yqXqc7tPaWn/78Ly/hO9WB7KeXNuBj4q9/b/zVDzHZdb94+PMzdLrmN2//xW23P70dMs+64eEff25+FYxp628Z/7m/QE5hXcNXf7vmv+YkkZ3x33fdfM2yibCeLZG5Smqu/eP6r8+DGqOYjiK2GEVtNNYaAhoCGgIaAh8xBIaMLY7LCU3Hxofu+9sDbxzBmBVS433XfO7C8zCtuuyuRoFg385X7r6eMkX66p0bWwb4BDTkfevOq37yepe/efvjN6ppYP/a37y+v1s5T83cHrvvufVu12k3Pf+vrVt/d9H9V//g5Qxk+5+666+e4ksfeGnr1rv/c9Ntd77ohVOal39w9f0X/W7r1n89f9Nprr/8+qHduiMvPPS3lsRZd63ZuvX+rwPZmo7eiO611ef9csWvBdndt96zQ9e67pm/7+qexWQH7v7bswdaArr1373sdiR7+9U7Lqj803d/t1XXyWS/+cfWrQ9+2/P0M09v38dki/9v69bNbz/0xal/+O//25pBWy1LQ0BDQENAQ0BD4KOCwHFZqY7HwuFwFF9BqOta99Nv3dGy+MaHPjfLYTHsefBr3/vCT7/+y++dWZqIRe1TF119zVdXNdCaQte627/1P99bfOMt18wphlcXhnzBCLzKLWaumrZy1Q+ulW/p3/P0jbc99VL9f11ckeNWrK72vT0nzzt9cm1tgbv2/CvDtzTu0y2dnNwkvV1HOidNXDxr6tSCgqlLL7T87MABeA65cXv4ypvOKyjQGSafPm/GHQfa901vaa+uPOGkhgbIXHyh5SetB0PxyK7Nvqtv/owgO/mNvS37FvS1FRVOPpnJznO903/IH3HseXfwsuuRzDLurEWnP/pO075BP5HNngWZi5YVbe4/4onsQ7LVl0COM7pi6dI7Xmhq082pPP4OBE/zwnM3w9Hjggsu2LVrV8bP5aVXv+qqq1544YWODumOiHQKVc6111778MMPDwwM682T3/nOd372s5/l5KcU/vCHP/zRj340HGJ48ujLX/7yb37zm+EQl5eXw2NK999//3CIx40bB9Hyjh070onXr18fjQ4VQlO1EVk9fOLRs3ratGn19fXPPEP3jwyVZs+eXVFR8eKLLw5FiOVnnnlmMBjcuHHjcIjPPvtsl8vV04NvC1UnOF3bsmXLcDiMqK1HZDVc2LXZbOvWrRuOGiOyekRdFb6JDU/1j1JXzdhM8AluSMO0ur+///333x8O8YisHukABRfic342XFFw+L0P6gyfeKRd9fLLLx8mbrmxPS6xhaxS5P01T+yee/XPV02HwAJyJ6762dVdX3tizfsLr0p9D0rpmat/pfvl11/YdOWcFTlMmnr6ObNefHdHIFjijA10R1yZQoxYR8vOcYVzClx0VXfyjEVb3mx8+bqzv7J+3jf/9ufLdevvvfXbjxSefmpHUeHCiiK61Xvc1Hm7Xt4fjFi3bll0GgUhNldBgavirabGeYedCV1NCd2IXwtkrzX7gp4P3jpz1jSJrHDczsONXR5TODCenzGvnTTnwMudA35d48YF04kMPv1aXj5l+4HG3iiR0VubqsbPaHmhv9ffiGTTMcdosdXWngDfQYjqKo9vw6E2kGBeh9eRwTAnjjNtrrvuusmTJ0NswX0Mvo+XiUrk3XDDDTBVwMHtt9+el5cHX87LQQw0RUUIFdxAA9NwDkooAlVZNEQMdXXwophc6bnnnoNiGJt+//vfV1XR9zCypzfeeAMK4W6ee++9l5XPRgtz1UsvvQRxNaDx7LPPlpSkPQmrqgmgQeSUjRXkj8jqH//4xzU1NTm4QRHME/A7IqthoH/kkUfKynK9iBUwefLJJ4dv9Ve+8pXW1tYNGza8/fbbBRBRZ0+LFi362te+BjEuaL59+3aANzutbtWqVXPmzAG2Tz/9NDxfDXcU5SC++uqrGxoajhw5kpFmRFZv3bp17dq17KgZuUEmKDYiq7/+9a9v27YNQvC9e/cO3+q2trZj21W5H42oq952220QcmXDgfPvvvvuHKPE8K0GrxjpAAVv9DGlfWNLre2tt9768R2g4JRmOF01d+sMv/S4TlGxg9vfCc5ZOt1uFfeFw/fdp0+a84+Xt++9MjW2AJNKZp7U8LvNm8IrTs5uX9DrCViMNngVSN+mP914+MK7r0r/NEBvT5e/wFlht9EsVzNusuHegxOeX/fzW8//8Y23Rk9sXRtfceO1F3fd/kxTidtFI1BF9TjLgaamw8Y9hslX0AhtsdkrLE7f/oP7+43xiYX5NKqVAdmRtuZDPXt0086j6QvJnAX+fQcPmOOhguJCJqustbX1tB707Y1PPI3ITBZrVUFpcMfBA/lERis1JeVVju7+joNRJBuPOQaTqaakMrK7A+49/ggsXKBKOGcvXryYdjOn3t5euWDNmjUwjGamo1z1468weuaeWmA6l1kNeTYjL7G43e4hieVJBSYYmBtyKAxFMjE83szTczb6eDwu6wxTHQRb2SghHyZjNXQZKYc0RLYaAoshiWWCEVm9bNkymK0zqseZsL7S2dnJ+8OxGoIbJoZnxXPfdu2nxMS/+MUvICDIoYbH4wH8meCuu+668MILcxDLOmSjGZHV11xzDUzA2VhBPqymgHpMMByrgZ6JR2T1x6WrQmSZAysoGj2rYTlw/PjxOaTLngw0H7sBakROmwOEYRZliC3G7vUWg7CyUFpQbDXKt+Qb9NbigtJId/9Apnf9FBWXG7twYs2XrYsFBjv3fbBVJ52xdDW+H5o3d7rLZnQu/t7dmUEwmy3GiD9EI41BFwz4dU67vaB0yTXXr132lRv2LLzqth+dP7H/AVNcF47G4KWtcIt1MJBwFNvsJqfOH4BubdNB5VA8ZnTYHZ6EDqJdWJ42EZkt3+awOXQ+P9ydYSeyWATJdHqDTBYKxq12G2Tq/UGJLBgJIxl8ikAiC4fhy18mq4oMLgIFIyG9zZrr1D+zzVquhoCGgIaAhoCGwFghkHHNeayiC7PFagiGgzF4akskuJMCMgzWzAvnMHfHbfakBfjoQOeudc8+zun+3//0of01n1myoCDnp+UKyqtKOwbaB3309N+B3Vvds+qr4wazsWLKqTOmTZhcX5EXhMflynzRvp5+epqr6eBO6/SJ1dX1s9xbd+NzI7qQb7A90Fc6tX5SWdjo6eilk45WIJtcW1VTP7NoC9zCIcgGOkqn1U8s19l8rV1Mdmi3qa68srZ+RtH2vUQWDfqbu5tL6usnMBl99aS9ab++sqiCyfApFHguMXyo9UDJuOocb1NCOi1pCGgIaAhoCGgIHEcEMsYWY6WPs3pqrW/f4bYQfHiZUjwWbTu8z1c7tS7TG+38+3bvqZgyI2litVZMOuOL34WrYJi+/83L6n07dxzsCuW+y628st6z7/CBXnyrb/Pml3fNmzld5z389uN3v2Zd9oVF5o0PP/BmW17ZxEhX//5mfAC7ffv63VOmTjHqps+E+y42w/2LYW/vgcPNgSmV00vq9J7g/kMdEIN0NgJZ3TircfoJp+3+59twrZbI9nnqa6cXVllCun37mGzjntryKqdlev38/a8iWTToObhnR/eM8dPdTNYCMUj3nnf3lOWX5jPZ+kOATjQAF5Ha54zPcL1orJpMk6MhoCGgIaAhoCEwFAIZrokMVeUYlpfMWjLn2cdefGV7zUUnV8N3E3p2vPhiY2TOJbPg3jBxhVaS5ju04alnP3Av+TzcsycuNqYpUjL9U0un73j8ncaFs6vH5VmyLr+4Jixb6r7tuXv/9/1/uNvWes7/74XGDX/+vzteiJ71p69fnXjT9Ns/3H7/hP+ZN6/s7XVP/vyHmyv6326au+qUCqvOufCz59/52xtvPljp6Wk6XLj4BxNKq/LnV65/cs0vbtpZ69vcNPfCa2vzjKWn/NeV4Z/ceHNrNZK5l94wubSs8qS6dX9b+4ubmoBs3+Tln5lYbC096arL4jcDWa3fc3iH/ZzvTystChLZr29qmhDaur3stC9NrbSW5gHZjTfe3D0x4j+wwbLypmmZXsaRBoaWoSGgIaAhoCGgIXB8EDi+sYWudOZ5V/b986Un/3bnRqfBqPce7KladuWKmaU6HdwAGGjZuemxu9uL6e6CgD+aV3v6FadNzIlT0fTT5ph//8bb++ZXj2995sGuU65bkumRgNKTr/zKZ0s3NXf7dOUX33Lu+VMMjZWzz/3ySec1FLn988+5MmTpKaqYteDz8eK3G4/06apXfPNTFzbY4TV7U87/4S0tz8M7OAqqT1h42vI5oGjpkssuNb/53n54Vm0pkJ1YCF/znrTy1p/tx9dkIdkpy07GG6MXXniJrmTDLgiZln510WdOrYTP0+Qvv/HHu558D8gqJs++csVCfCBBIVv8n6euPGNCiVlXIpHpymquvPi8M4d4biEnQFqhhoCGgIaAhoCGwGgjkBpbyHc+jKbg/MmLziyNu/HTSqaak89e5ba9dygQBtHG+rPmfXp6Icp2Vs9ctEJXI24ZhwxX3dwTJ5fQjRRm69RlX3MV5Fnz605ccnmgTPU0mb12/mWXFkRLHQZLfs1kfdbnzMpmr/rcbJWNJ17x1RP50FE66YxV9LkonW7ZRVOXqYhg1zpl2erVyXkFE89cOfHMZDLd+LNWrz4rKc9dN3/5FfOXJ9PVnbl6dXLVYZKliNMONQQ0BDQENAQ0BD4yCKTGFqjYqMcXjrLJ01RPxBdOO3MJveZBneDTCvXzq+GV2hmS0Vze8Cl6SNpeV0/vglCStaxhAfOGuTxDXS1LQ0BDQENAQ0BDQENg9BBI6BJp93JC3ugJ1DhrCGgIaAhoCGgIaAh8shGA71amGUihhRZfpOGiZWgIaAhoCGgIaAhoCAyJQIZ1C3jVhPK2iSEZaAQaAhoCGgIaAhoCGgIaAioE4D2P6fdbJOIJeJnVJ3DhAj5O8aUvfemkk07K9pkAzTdkBHJ/bYHJ4MX799xzD7xMekg84WMK8IGARx99FHaGJIbvI8DHdd588014C7L8IuQcTQPEhw8fHpItcwBieFPvMIknTZr0jW98Y0hieL88JHiX+Xe/+90hic1mM/jhueeee8YZZwxJDNpmM3ykVsNHT4YUx19vGZHVYMVZZ501JOcRWW23241G4zC7qtPpBOLrr79+5syZQ6qRn58Pmvz617+eOHHikMTZ3jcPbT0iqz/72c/Cy+CHFDciq+FTO9D7brnlFvjC2ZCcR2T1iLoqjBIj7arw2ZchFc7m85APbT0iq0c6QEEXGFI9+GjAiKyGb7h8vAaoHPgPvwjCCH1KGNHvDQ34Q+9v2ZDvzDCuwbcV4Nt38N2BYX7YbfiqjAElfBoKxs0xEPTJEAGjgPyxhowWwefBcn+aK2MtLXNECMAnReB7VOlVIETO/VGl9CpazkgR2LNnD3yKL6UWTKgQx4yUlUY/UgQyfge1urp6yE/ujVSQRp+CAJzR7dy5c0hY4IPAXV1d8FXnjB+4nnjCKRnWLeCiyCfyhk74Dpb6U1hDYqcR5EYAgnFIuWm00lFC4J133hklzhrb3AhAwJ1x2stdSys9JgjAB2whHRNWGpNRRQCCiNR7Oel+i09kaDGqSGrMNQQ0BDQENAQ0BDQEEIEMsQVna/BoCGgIaAhoCGgIaAhoCBwFArA+keGaCN7H+Qm8lVPn8/nSr54eBWr/DlWmTp0Kn3qH9O9grGajhoCGgIaAhsAxRSBDbHFM+X+UmA0ODr7++uv79tFXzbWUHYGlS5cuWbIErmtqsUV2kLQSDQENAQ0BDYHMCMAKRfq6RWbST0Zuc3MzPD4Et7Z+MswZJSvmzp0Lz639//auBK6qon0fuFz2HS6rICCLoqbDvrmRAAAgAElEQVSACykqaiqumVpa9qmpLZYLaYuampmVpl+fpVnmltnftNKsXMrStHDfU1GMHWQVZRG4bJf/c+/R4+Xec+acY4KAc37fZ5c5z5mZ95mZd95ZX7pnqp7opdFSBigDlIFmz8DDZVugOHHWPDY2ttmX678RkJ6m+Tfs0W8pA5QBygBlwPCcCGWEMkAZoAxQBigDlAHKwL9hgMe2aI77OP8NRfRbygBlgDJAGaAMUAZkMMBjW8j4uulCL24eE9PVT/e8tqeYX47EXa8924fFTPkqvrxaiyre8xob0jVmzPdXdN+l7l/0wgAOdlOtCzw4l4NtvqgLyTy8InYoGzjp82NZt3SBcYvYkLCeg9aeM4SN+2hfcmEdWLtOUStP6ULoQxmgDFAGKAOUgcbKQIPtt6jIT/7zxw2Z4a89F+4IMrL+/GLD1z8dy9Ly8mjs+mnR7vZsVsryk/esnv7lSe2LlpHDxk18oasXfibumLPiuwupJXd5tPTwH/n6yiHKoz+ufm8r28vfeek75oPFo9s6KwUNp4T1i9fZdl+we2137/OLgibMH5D3cb+7MbO/kn744qtil6c27xvTPn1V3+mf/Trsw+GOcfMnbBqx4Z8FHa4d/vJ/n/5vS/s1USlbvr5W2/eLPdu65K/vO+WzPb3eearl+deH/Hfg5twPOmlhHy5eH7514PUfv7ly/ZEv9mwG7IlZX//czWfcIymLRq8YuCr5g8gbF7e8FztnVee9TxXpYB//tLlXyZYJc37c2TlgSo8cwKJXJK+ILk///q3R05f1OPJ6R8Pc0r8pA5QBygBlgDLQWBhoMNuCqdVUV5ZX1tQymqIruzZt2H+z7fOrZ3b2tc4/+NGrU97MePfD59raVZYlbHrv3eQe/931dgjDXD/3w/9t/2RlzQvPPRqgqSp3Gzp39uNdWtgYZPnRZ5fvehbTAgdW7Ux36dRveKS3lRi5edkJN7t06hnk4+No7zN8nGb+hYSqbu5lNUorWxtlbXWluqyCKb6WnN8qILpDcLCjY3D/EVbvJSZWM3YXzmnGvTvE0ZExDerZqf3KxOyE1hm53p7tO7UNRWCfEVYLM5PVNer4o+qJ7z9xG9YlLiEjIbIw29kxuAsLG+aw5EZKaaXFlRNlT8/Vwixa9u3R8/vjaQnF5TpYx0cQ2CNGdbwgrajSTQt740mE2NQMHDDg05/TrjEdvcVkrP/3OM2bnJys0WjISeFgzogRI+Lj4+GgRBQMvz4TJkzYu3cvPAaJOsyDZwd4tPrmm29yc3PJecBbuECbNWvW0qVL1Wp2Zon0BXxBzZ07d+HChVL85qhUqokTJ8IDVmVlJSlS3bvAwEA499qwYYPo+V64TQoNDR0wYMClS5eMo42Li8N9/sbhBiFypZ45c+aSJUvur9Rw7gU/PtKlDgsLA0vbt2+vrtZNFQo/8KjStWtX+AnavXu3KBje8h577DFccgPqampqhGPVvgF4yJAh8B9WUFBggATtJ06cEC1rWVLDBRd83UmXGs7S4HTt999/lyKIdKnlNlW4YTtw4MB9b6rwPwfnc7wXq8OVFdzrSJQaZXfy5ElRnSNLalSJ8ePHy1JQGzduLCoqItc3vG08TXXkyJHnz58XzbAooOFsiztZqcm6cu5ChVPvxwfCsECgKnrmnLQJs3YceabtgFpNbkVBUL9HA3Vg147d+ySWX7peVFghKocxoLqs4HqVrYeDscu1mrysBB/HcAcbS+1XAW0izx5OOPjmoClxnWZ+vXYME7dx8RvbnHp0zXVy6ubuZKfF+AaG/fNbirrK4sLZyO4B2hBLGwdHG/cjmQl5Gda1jJeLgzbQG7A/rpVVlMSfiGoXdAfm6APb4nqxWaXa142F+bdP+y2/uNzkyukuIToYjBo3t1bxqQk3q3UwJ22gp2+b7Piim+UJWhhMLXgBVFp6e7e5kH6tmvFu+ILT5sDg2bFjB64jg0Fg+ELv76lTp8LtJGyLLVu2oNOC1iaAZ8+e7e7uDsBnn32GDp71zCmEX7FihZOTlip0h3CcJgRjw7du3comDfPC19eXDN61axcA0Aiffvqpl5d23ozwwMUo3ubl5UGJkJ23QX3s27cP3RL0488//4xOkRAteppp06YRALKkXrZsmaiTJ9z+guRkSY1+Zdu2bW5uboR8ghPUAelSz5gxIysr69SpU0ePHhVyRsomFxUVBTBsXJgLsFxBLyEbo0aNgo+xY8eOwRDB+Wqyp18YuAQXo7KkRsb2798P/6KEvMGwmD59unSp4Z4X7nwRLSqSdKmzs7Pvb1Nla5Sspoo2yzZwAhvr1q0jaAnpUqM+y1VQsPjJLgAXL17cdBXUpk2bpDRVQtHIetXgXZTmelbqNfNqn5Zed/VR24heNt+cPlE5oKuJlYVtzuk/zwR0ckKH6+AcMuoZ1uXgVYapvJmVlpyktlLoBDQxVdqqvN3tBAW4eWLNvLTh68aHGvFxoyC/zNHGw8pS18u1aBloujHFf/ehDxcPe3fe4uqwrP2agfNeHJm/4scMV3tbrfnDeHi3NE/OyEhTXDUNfKaFNsTc0srD3KY0KSWpUKEJcHLQaTU3wNKzM1MLrjIhQ3TdlxZm41iWmJKs1FQ4ujixME8fy+yCrJTSfzQB3XUwM3MLL0eV+lJKsoMOZq8NdHX3sr5emJtSrYX5aUNMzcxauHpWJeTmw/LQBjSCB312dHQ0ISPw5Mm93bNnD9QoAax//BXak9y15OTkcFFhQEOIFq9wtQkLgItkUTDnZxkzB/D9S46ZA+N4M9s9C+ExhOLyjK7uyy+/FEIiHJ2xPnW8SFFBOKnRDYiCOYAsqfv3779z507e7LGBmFGA4cX+liJ1YSG7yYjBWXFMHRFihtswzlXv8uXLYRAQwPDuyA1hv/jii+HDhxPAXB6EMLKkxrQW+lShqBCOuTRkjwVIkZqbe5MldVNpqrCxCFzhVf1JDSMVG+AIqXM1GZgmp6BkVVoCCRJfCXbNEr+XDVOX3yoxZWyc2E779ueu7v6m59BjmnuGjXolZv26/1v1V9mNWlv/zv2f6tnOx9vTXjswvnF299dX/rJQmOg+MrN2DxsxZWwn7eYN3kcVPXcd7wtGqTRXVJVV6DSNKaMuL2NsrKwcVX0mvra//5TZV7uNX/LOsIDCzWYaprJaO3mqYCrU5bXWLpZWZjZMWTmm1C0ZfFyhqVFYW1kX1zKwdjF7a6aDWTpYWltaM6Vl5QxjpYPVVGlhMIY4WIVaY2FliUCTMvUdmLqqUgtT3oVVVlbUKM0s9GBYJVBXVZhYWpCG/vwy01DKAGWAMkAZoAw0FAMNblsozMzNa5kidR1XFeVlRbW6SUpTM1W7x2eveJwpzb1w7Pfdh35fl3jlsaeefqwD+PDo8/xEnv0W8ply9PB2zzmZXVyqZlTWTOLlU84dx3lrTEoYF9/wdqGaAH8ny3J7lYfHrYSb+TdLmJaOTFrSReu20d7e1h2dP7+cyAxrx6hLi7PLb3i0Cw1k/kkqzikoYoJcmEzAgrt4tXDtqFp28SozsoMOVpjj3v7JVjev/Z2QmVfEhAKWHG/ecrCXj+8jbp8mYEKmA1OlLs3IT3cPfTpAfe0YYDeYUDcmK+2qwivC06e1FnaZYcKZmqqKlGuJ7gE+LvKFpl9QBigDlAHKAGWggRgQPEpRX+lbOLp62NZUZuUUlHJJ5CWcv+bTpq0TU3ntzK8n0zGUZ2zc2/cdO3vG+EiHqpSUrCKRTV0yM+vmEVySlJ5yoxR77zJP70/s2DaEuZV+/IdNR2z7j+1uce6HrUeybVV+1fmFKddulDFMzqUjiQGBrRRMSNuOiftPY3K9svRGSnqmOsAjxKWFSbE6OS0P++ryrgDWwtdCEdI6MvHX4+m3YUklwd4hjp7mFbXJSSzsZJK3m6e1eUhwp9SDWlh1RXHqP/E32viG2LGwLMyPXk88l+Rqr7JnYUdSGUZTU5568Uxee99GsJFTJuMUThmgDFAGKAMPEQMNPm/B2HoHt1Fd2nf6+Olg18gWjualSX9t/T2z3dBx2IxXVpbw61d/KFUv9fGzQSFgybnKzsLJztry/t7nZevfv5/9kl0bPzj/k332/uJh07spjq1dtvKX6r5rpk2oPWz2yeoVm/xndOrkdvTQjg/fPulReDQjfFQXDwvGptvTwz77ZN7CFM/igow0p+j5/iovh0jPuB17li+47FN6MiN8+Is+dgpVl+fHVr43b2GWtxZm3292oMrNM8L30Nf7ly/IACwxMOaJABcLVcT40ZqFgPmUFaddshr0VojKWa2D/W9Bhn/FuQtu3V8I9rRQ2QE2b97C6wFVZcnHzIcuCNFtx6APZYAyQBmgDFAGGiEDJiY8vspweAo7Jesxt3Ze7fr0Lvrt12PfrD5tZa8sSy8w7fjkhCg/JGneMurxyN1nv10db609SFqJ/Zo+Yf07+NgrMVdw48yuzbmn7LhbKyztXSP6jwnzEMhq0YXvN+d3mdqH70iAqvPYKU+rTmReL2XcRy4aPCzINN6zw+CXIoaEOtuXRQ4aW2Fe4OzxyKP/0bgcjU+/yXgPnNl7eKiVkmGChr296NrueIZx9G7brXtMRxXOufQZ/ZTy8NkknFXrB1iYk7WCaTV08dKknRdYWJf+nbUnH7oNf5JxPXYFm9r6vRz1RFdPByXjEDPv3Ss7zgLmEdhh7MBu2gMJd2HRk7sO7envqmRc78AYtxZjRw7pJXJuQYAPGkwZoAxQBigDlIEGYcCkweYtzBw8wmOea+2E+QhzJ/+OfZ+wD0jLuqG9aqCjS1CnQJUlem6cl2jRbcSTLS5fzsZKBB5rZ9+W/r4usDO8uk8a17KoTH9txMzSRqWd3WAfl/aDBgWaOzpz2xwtXIM6WupOkPI9bh1GPavdxHHnCXvm5TD2t7WqVc9Rrdjf/UcE96/7tUVQ/9jYumGOAb2GBvQySMSvb2xs3zph9r6RMc9EGnhg9e0VG1v3U4kwg+Ton5QBygBlgDJAGWgcDJgwRrYFJi1MTEzrYd5CYWHrHtCOk9tKFRCq0t0UUfcxUVq5tAqPut23331n26J9uO7wp9CDCOtGZ+nZIUoITMMpA5QBygBlgDJAGagXBrD8YbyXE4FaA6NeEqSRUgYoA5QBygBlgDLQrBngsS108xbUsGjWxU6FowxQBigDlAHKQL0xwGNbIC3dxAU1L+qNdRoxZYAyQBmgDFAGmi8DJqY8+y2arV0B5xRwbRUREcFd0tx8S/bfSkb2tsDGjov3169fj8ukRfmEMwU4CPj222/xQxQM/wjwHnT48GHcgsxdhEyQB+C0tDTRaNkYAMZNvRLB8LAFxw2iYNYWx13mc+bMEQXDxRTq4eDBg+FuShSM3AoJLldqOD0RTY713iJLakgBJ2SiMcuSGu6g4LtLYlOFXyuA4doKvkJEs+Hg4ICcwKscHNyIgoXum0dxy5IaDr1wGbxocrKkhqsdtL5FixYRnJ5wNUeW1LKaKrSE3KYK7yqiVAjVeYSjrGVJLVdBoQmIZg9OA2RJDR8uTUtBEfiX/kqrFQ28TRaXVRWXVZw9ddTeiudiafhWGD16NPwOSPGUKD0fDYOEayjozYZJqxmkAi3AOWvgFQfuwciuuXi/ooGyGIBLEfijMv4EJjLZqZLxJzRELgNXr16FKz6Dr9Chwo6RGxXFy2WA1w+qt7e3qMs9uQlRvAEDGNFdvoyLoEUeOATOz8+PiYlJSEgwhgZ36GZ0BlW7GNI8F0TgB0vfFZYxHTREFgMwxvHI+oSC7xcDp0+fvl9R0XhkMQCDm7fbkxUJBd8bA3Bgi+fevqVfNSgDJvDVZfw0T9PCWE4aQhmgDFAGKAOUAcrAfWYAZ0IMbQtqV9xnjml0lAHKAGWAMkAZeMgYMFoTab7yl5aWGq+eNl9x/5VkwcHB8AiP51/FQj+mDFAGKAOUgYeSgYfItigpKTl48GBiYuJDWdAyhO7Xr1+fPn2wrkltCxmsUShlgDJAGaAM3GGAx7a4vz5HGxXVmZmZOD6Era2NKleNLTPh4eE4t0b3TDW2cqH5oQxQBigDTYUBHtuiqWT93vKJs+axsbH39u1D8hU9TfOQFDQVkzJAGaAM1BMDhns56ykZGi1lgDJAGaAMUAYoAw8JA9S2eEgKmopJGaAMUAYoA5SBBmLgYbUtLm4eE9PVT/e8tqeYn+zEXa8924fFTPkqvrxaiyre8xob0jVmzPdXdN+l7l/0wgAOdlOtCzw4l4NtvqgLyTy8InYoGzjp82NZt3SBcYvYkLCeg9aeM4SN+2hfcmEdWLtOUStP6ULoQxmgDFAGKAOUgcbKQEPaFqX/xH33+fyvzrH9JZO2d8mskdHss+jgLbZP1vFUkX/+xw+fYd+8sPiXi/m60PhNk+dtPVegx2Rpxrktr92O4c5//vPhb1fzdWYA4YlfPW+1Q++lf/2dmvrlM+ueen0vD/afbavWlbiN23k8NXXbtKPvfLzrVhnD7H39qXXPfJma+vdfS3s7rFnyZTyT+vOXG6+ZDNwSl5q6/Q3Afsy5XsX89mLvD4avvQ1DWn8zmfu//+ry9QgWlrR6447EjDLmYOyQD7Ww+FMbn/JZGfvf00wuC1t/MDX1p4XF323/7lwCCxvwWWrqP/G7prZdMfldeiMjT3HRIMoAZYAyQBloNAw8mL2cmpt/f7dm4xGm24ffv9/K1SL3t/emjH712qqVY/0Vtbdyzuxcu+aSz2s7D4Y7MlnHv/5477dWytE9gnk5swmIePrZ+S92dLz9NnHXwqU/7At9caSXo6XgPWB5eanlUWGRXg72DBMdM8ly/uWEqp7uZTVKK1sbZW11pbqsginOzixq4x8d4unOMO49nnT8My2xhrG7fMVy0rvRSMvBKzIs/GR6XsKNnJt+nm0fadmCYVo8+qTjr7kplTUVV88pXnq/321Y1IHkrISiwuvuTsGdWNjjqkMlaeVVVokXTMbP1cJsXKIefez/jmcmlJTrYIF+CIyI8fqjIPNWVYIW9sZAhCjtovsMXf5z5jUmwvu2vA/wPzjNm5ycrNFoyHnAwZwRI0bEx8fDQYkoGH59JkyYsHfvXngMMvB0Y5wKPDvAo9U333yTm5tr/NYgBC7QZs2atXTpUrVaz4oV+Ay+oObOnbtw4UIpfnNUKtXEiRPhAauyslIgvrvBgYGBcO61YcMG0fO9cJsUGho6YMCAS5cuGUcbFxeH+/yNw/+l1DNnzlyyZMn9lRpOi+DHR7rUYWFhYGn79u3V1SJjBHhU6dq1K/wE7d69WxQMb3mPPfYYLrkBdTU1NWTqAB4yZAj8hxUU6A9mtB+B9hMnToiWtSyp4YILvu6kSw1naXC69vvvv0sRRLrUcpsq3LAdOHDgvjdV+J+D8znei9XhygrudSRKjbI7efKkqM6RJTWqxPjx42UpqI0bNxYVFZHrG97KVVD111RHjhx5/vx50QyLAh6IbVGd/veJi2YthwzuA8MCWXTv99bClFHTNx8eNT+q9Po/fyeWPv78czAs8Hh17TvwzO7r6fk3/UVl0QICH+3fdveZK+oK92pN0fUqWw8HY1eSNXlZCT6O4Q42ltovAtpEnj2ccPDNQVPiOs38eu0YJm7j4je2OfXomuvk1M3dyU6L8Q0M++e3FHWVxYWzkd0DtCGWNg6ONu5HMhPyMqxrGS8XB22gN2B/XCurKIk/EdUu6A7M0SchI+F6sVml2teNhfm3T/stv7jc5MrpLiE6GIwaN7dW8akJN6t1MCdtoKdvm+z4opvlCVpYiDZEobT09m5zIf1aNeP9QApOmwn9Z8eOHbiODAaB4Qu9v6dOnQq3k7AttmzZgk4LWpsAnj17trs7rDnms88+QwfPeuYUwq9YscLJSUsVukM4ThOCseFbt25lk4Z54evrSwbv2rULAGiETz/91MvLiwyGi1EA8vLyoETIztugPvbt24duCfrx559/RqdIiBk9zbRp0wgAWVIvW7ZM1MkTbn+RKzX6lW3btrm5uRHyCU5QB6RLPWPGjKysrFOnTh09elTIGSmbXFRUFMCwcWEuwHIFvYRsjBo1Cj7Gjh07BkME56vJnn5h4BJcjMqSGhnbv38//IsS8gbDYvr06dKlhnteuPNFtKhI0qXOzs6+v02VrVGymiraLNvACWysW7eOoCWkS436LFdBweInuwBcvHhx01VQmzZtktJUCUUj69WD6KI0uemJuQ5mod5uLlxeH+n6mOWMuDNvPuqdlpJUGM524Lq3ntFTJut+xEsRTH2ruNxcYYlRw80Ta+alDV83PtTosxsF+WWONh5WlrperkXLQNONKf67D324eNi78xZXh2Xt1wyc9+LI/BU/Zrja21prMR7eLc2TMzLSFFdNA5/BDAXDmFtaeZjblCYhswpNgJODTqu5AZaenZlacJUJGaLrvrQwG8eyxJRkpabC0cWJhXn6WGYXZKWU/qMJ6K6DmZlbeDmq1JdSkh10MMynMIyru5f19cLclGotzE8bYmpm1sLVsyohF4tEntqARvCgz8ZyFCEj8OTJvd2zZw/UKAGsf/wV2pPcteTk5HBRYUBDiBavcLUJC4CLZFEw52cZMwfw/UuOmQPjeDPbPQvhMYTi8oyu7ssvvxRCIhydsT51vEhRQTip0Q2IgjmALKn79++/c+dO3uyxgZhRgOHF/pYidWHh7UVTnBXH1BEhZrgN41z1Ll++HAYBAQzvjtwQ9osvvhg+fDgBzOVBCCNLakxroU8VigrhmEtD9liAFKm5uTdZUjeVpgobi8AVXtWf1DBSsQGOkDpXk4FpcgpKVqUlkCDxlaFt0RAXZ5WXlZSaK2wdrPWHuyrPVsyFvDyN6kZ+FuMjMfcMU1Nekpd48RxzZ8SSH3++olN4G1tLhU303HX80SiV5oqqsgqdpjFl1OVljI2VlaOqz8TX9vefMvtqt/FL3hkWULjZTMNUVmsnTxVMhbq81trF0srMhikrx5S6JYOPKzQ1Cmsr6+JaBtYuZm/NdDBLB0trS2umtKycYax0sJoqLQyuWzhYhVpjYWWJQJMy9R2YuqpSC1PehVVWVtQozSz0YFglUFdVmFhakIb+/DLTUMoAZYAyQBmgDDQUAw25l/OOTGZKc2VNbWVFneXUstKbjK21tYnC0oo0s2nIS3VJQfKJA7+wz3frln2T6Pl470hHG1Lv6+jh7Z5TmF1cqlt4T7x8yrljqLfGRMG4+Ia3Cw0I8HeyLLdXeXjcqr6Zf7NEi0lLumjdNtDbO7Sj86nLujvD1aXF2eU3PEJCAz0qFcU5Bbr1tEzAgn29WoR2VB2/ePUOrDDHvU1oKw/Gsiwzj4Ulx5u39PDyCX3E7VyCDlalLs3IT3cPDQ1gYbqRflbaVYWXsycLu6wNqamqSLmW6O7vc3e+RxtMH8oAZYAyQBmgDDQiBmqNbAtMXNTW8+SFhbOHp2VZWfb1Qpy8uP3kXj6T5d8hxFlh3aJlK6wY3LzzorLg8tHjfyfll/HvvrJw84t8ZjqW6bXPq6+MCCm7ejn1egV5E5ibR3BJUnrKjVLsvcs8vT+xY9sQ5lb68R82HbHtP7a7xbkfth7JtlX5VecXply7gTzmXDqSGBDYSsGEtO2YuP80JtcrS2+kpGeqAzxCXFqYFKuT0/Kwry7vCmAtfC0UIa0jE389nn4bllQS7B3i6GleUZucxMJOJnm7eVqbhwR3Sj2ohVVXFOMQyI02viF2LCwL86PXE88ludqr7FnYkVSG0dSUp148k9fetxFs5GxEdZhmhTJAGaAMUAYaEwOwIQzXRLSWhda8qNds2rds19bx6l/HT14Ico1wsTG79c+Br/Zldxnd09dEofYMbNPi8J97T/k+0cnbiilOP7Nr//mAPu6tRPbqaTPs2qZ3vzaXvj8d362Dd0s7c8FzIrb+/fvZL9m18YPzP9ln7y8eNr2b4tjaZSt/qe67ZtqE2sNmn6xescl/RqdObkcP7fjw7ZMehUczwkd18bBgbLo9PeyzT+YtTPEsLshIc4qe76/ycoj0jNuxZ/mCyz6lJzPCh7/oY6dQdXl+bOV78xZmeWth9v1mB6rcPCN8D329f/mCDMASA2OeCHCxUEWMH61ZCJhPWXHaJatBb4WonNU62P8WZPhXnLvg1v2FYE8LlR1g8+YtvB5QVZZ8zHzoghDddgz6UAYoA5QBygBloBEyADPC0LbQGRb1a1mACHvf8AG9b/3226FN6CytFaUp1xXdxz8fpd0laengG9b7saxDcd98egznD0qqq507PhoZ6mFjloyx/IkfNlyPswJMYWET2HNQa0NSndt076j89M+jiZHeflk//l9+l6l9+I4EqDqPnfK06kTm9VLGfeSiwcOCTOM9Owx+KWJIqLN9WeSgsRXmBc4ejzz6H43L0fj0m4z3wJm9h4daKRkmaNjbi67txq5SR++23brHdFQxjKrP6KeUh88m4axaP8DCnKwVTKuhi5cm7bzAwrr076w9+dBt+JOM67Er2NTW7+WoJ7p6OigZh5h5717ZcRYwj8AOYwd20x5IuAuLntx1aE9/VyXjegfGuLUYO3JIL5FzC4ac0L8pA5QBygBlgDLQcAzUMka2hW7eAuH1kQkLzzbdBrjUONvg0KVLUOcB9g5BqXmFVUiqo2vryCBX1s5RWqtaRz3h7PtPUq52P4SNKqiVn7s9TpL69H5lclCpmr1OwcTMXOVk6+LRJeY5tQsivPNY+XYfN96rxtPG1NI1qKOl7gQp3+PWYdSzHfRehD3zchj7p7WqVc9Rrdjf/UcE96/7tUVQ/9jYumGOAb2GBvQySMSvb2xs3zph9r6RMc9EGnhg9e0VG1v3U4kwPploGGWAMkAZoAxQBh44A7UaHtuC0dSXcWFm6+Jte3cborV7cDv3YD4SFBYOnkGdPHVXP9x97HzDOhlNQtgE6K6MuPuYu7TqyKhBItIAACAASURBVKbh2SGq7iv6F2WAMkAZoAxQBigD9cwAjAjDvZzaOYv6XxOpZ7lo9JQBygBlgDJAGaAMPBgGeGwLdk2EmhcPpkBoqpQBygBlgDJAGWjiDPDYFg2zl7OJ80azTxmgDFAGKAOUAcoAPwOwLQzPiTTIGVT+3NR3KJxTwLVVREQEd0lzfafYdOMne1tg5cLF++vXr8dl0qJ8wpkCHAR8++23+CEKhn8EeA86fPgwbkHmLkImMAlwWlqaaLRsDADjpl6JYHjYguMGUTDul8eDu8znzJkjCoaLKdTDwYMHw92UKBi5FRJcrtRweiKaHOu9RZbUkAJOyERjliU13EHBd5fEpgq/VgDDtRV8hYhmw8HBATmBVzk4uBEFC903j7KWJTUceuEyeNHkZEkNVztofYsWLSI4PeFqjiypZTVVaAm5TRXeVUSpEKrzCEdZy5JaroJCExDNHpwGyJIaPlyaloIi8C/nVa2JwfLHzZLygqLyS+dOOtrxOKCCb4XRo0fD74AUT4ly8tEQWLiGgt5siJSaRRrQApyzBl6B4B6M7JqL9ysaKIsBuBSBPyrjT2Aik50qGX9CQ+QycPXqVbjiM/gKHSrsGLlRUbxcBnj9oHp7e4u63JObEMUbMIAR3eXLuougiQ8cAufn58fExCQkJBgDfduEG89bGMOaSQj8YOm7wmomUj04MWCM43lw6T/UKZ8+ffqhlv/BCQ+Dm7fbe3A5eohShgNbPA+RwE1X1Fr46qIPZYAyQBmgDFAGKAOUgfvHAI9tUS/3Zt2/HNOYKAOUAcoAZYAyQBlozAzwrYk0U+OitLTUePW0MZfNA8xbcHAwPMLjeYB5oElTBigDlAHKQBNlgM+2aKKiiGW7pKTk4MGDiYk6H+n0EWagX79+ffr0wbomtS2ESaJvKAOUAcoAZUCQgYfItgAHmZmZOJE1fPhwQT7oC4Zp3bo1WKJ7pmhdoAxQBigDlIF7Y+Dhsi3AEe4hmDBhwr2R9ZB8RU/TPCQFTcWkDFAGKAP1xADPXs56SolGSxmgDFAGKAOUAcpA82fAhO8MajPdytn8S5NKSBmgDFAGKAOUgQfOgAnDGK+JmDAIxv+a93Nx85jXVh27kgspR63+e/kgeyNxU3ctev+jDfuS9V4882Xq/PA9bz7y8k96ge2Hx85+bUj2ioUrvo/L1Auf+HXiZOct8wct2K8XGDl5+YKXWh+e+trqY1e4C/9sXVu8+Pkvg6u/XjhmyZ964J7Tv1g40e37IZPXZV6vvBPu5Bs6c/VXoVc+f/+1dfrXJw1ctOf9p0KdeC5TNZKMBlAGKAOUAcoAZaAeGTAxtC1MYFo0hGGReWDVznSXToNHRKq0PhPOrhwyZ/stNWwdz8D/zF83PlQrc/7p779as+rnq3fl7/Hm1tcGejiob/31+YR9bVfPbp3148cfxPm9+ObUPi3voK5ui91aO+GVEY+4mAsu+MSvnrfaoffSv76N9jkz13HI631vrRloyHJV6Q2bXlNWr31lUCvbu+/KCis01RHvHdk+1lf/g/gvr9sNePOrlyb21InDPlUZ52rs3Yes3LlqqKc++PTeHOcxn/w2ZWCQvZILL044yLgFjdm0ZUkvlT74eGGm20s7/pgZbqcXmnvklFlw9KuvfzQj0lkfTH9TBigDlAHKAGXgATMAtzuGtgWmLNinwbJWc23P/FkbKsatOvhUoKaq/OSmt5a+8t+JC2J7uSMLzl1GvD530mA/G2128g98OHXpD6H/naB9c/sxMc1POLP/p0MBU3r4mQnaEgbC5OWllkeFRXo5YLYiOmaS5fzLCVU93ctqlFa2Nsra6kp1WQVjXqUx+Ir+WZcBnOZNTk7WaER4gl+fESNGxMfHw0GJKBh+fbDTdu/evfAYZODpxph+eHaAR6tvvvkmN1c7/0R+4AJt1qxZS5cuVathwoo88AU1d+7chQsXSvGbo1KpJk6cCA9YlZXc7JJg/IGBgXDutWHDBtHzvXCbFBoaOmDAgEuXLhlHFxcXh/v8jcMNQuRKPXPmzCVLltxfqaFP4MdHutRhYWFgafv27dXV1WQB4VGla9eu8BO0e/duUTC85T322GO45AbU1dTUkGMGeMiQIfAfVlBQYIAE7SdOnBAta1lSwwUX9phLlxrO0uB07ffff5ciiHSp5TZVuGE7cODAfW+q8D8H53O8F6vDlRXc60iUGmV38uRJUZ0jS2pUifHjx8tSUBs3biwqKiLXN7xtPE115MiR58+fF80wGcBjW+jmLRpi4uJOzirP7f4++dEp6x73Q4ip0qr9468MKfnwl4OXu43WMyF0aFW7sODVv53JYwbenUiw9vPvYm9V89f+Qy2f7eVnoWcq1ZQV5FXZejgYu5KsyctK8HEMd7DRLSAEtIk8ezjh4JuDpsR1mvn12jFM3MbFb2xzmTwxgKkuvZmbmZ6qsNYlb6vyc4WNU6upLruemZrKdqlKa0cnJ0ctoOpWQU56WmqpOQt283PFpERtdUVxXgZ8u+kCzW1cnZ1stalWFuVlpqUp7bT5NTFzcG/hhB+ayvKiHIBLdWBLezdnB2ttbJU3s9JTnXXmlYmpuYOblyN+1ahv3chOT00t1oGtnLxc7MwlG1e6b+7Ds2PHjry8PChiQlwzZsyA20nYFlu2bMEVI9CJBPC8efPc3bXl/tlnnyFa1jOnEP7TTz91ctISh+5Q1GsassrmE+YFm4RQtAjft28f/oVGWLVqFbouAhKvWCUIHmAxwI0kAQz1cejQIXRL0I8//vgjDvoSwEFBQdOmTSMAZEm9bNky2ECE2PDq6NGjcqVGvwLbji0FochRNOj7pUuNCpOVlXXq1CkYAWBMKFqEo4sFGDYukGfPnoXeJ4DhZBE+xo4dO4bMoIuCFUsAT5o0ieBiVJbUMKlRneA8k5AczKnp06dLlxrueeHOd//+/fApJV1qZPv+NlXWbZisprpixQohB7McP5s2bSLkU7rUuM1IroKC6Qk7j1BSaHRNV0HBypHSVAniS3/FY1vgY1PtjouGMi+qr5w9XhP5dDul4rZZYG1jH+Id8te5yykjDW2L8uJCtbJFSw+G0R+wOfo92tf3wrGjR461dO8eaMVZFzdOrJmXNvz28kodTm4U5Jc52nhYWeq6xBYtA003pvjvPvTh4mHvzltcHZa1XzNw3puxbY7GHvjuq3d37fn49trKsGXnFvWDBVBy4+hHzw/fyHaRQb1fmvrqS70QT87va97a/Z2NGcvcyFXn5ndlGHX2P3t3T/x7JZur0EGL3pwxrAPA6Tvff3nXSgtQzSitvcZ9smdaMMOUpZ3fsXf8URu2bnf6z/9en9A7BOCkzbOe/tlKNylj4xIyfvm2F7zQ8V06sGV3wo/WLLjnjG1znwzxICniOhTcvz8WLFiAIRchPv3ajH4dgzMC2MXFhXuLrprcteibCFu3biVEi1dcz4pRkSgYGDY2Pz+/devWkWPm3mKaAaqTANa32nv16jV79mwCmGyEsR+KCsJJjR+iYC4zsqTu3Lnz4sWLCYLoK2tZUo8aNYp8XFy/W50yZQpcMhKygbko7i2GxVFRUQQw2ezDh7KkHjRo0NSpUwnJYejMva0/qZtKU/X0rLOEbMybrLKWJfXKlSvJoxR9A73JKShZldaYdlkhvLYFAk0bzLRgCm/mVXn4uJohzduPmdLSyc6p4kZRCQ6xYMj+z5ljcZm6ppd24riiRz9uYwUnqkubyJgbaXuOHDnu5dYt6E6wKnquQKeAlqyovFWum1lTMGWlJYydjY2jqu/k2X8NmjI3sdukZYuH+TL/HGW8B86Y8Gzd/Rb4wsGt7/t7DfdbMIzP8LlvGOy3wHyCT7vR4w33W2QyTOD4Fe8Y7LfAxEhQ5HMzDfdb4BbRNtO/2Waw3wKrRRHDXl/UWPdbYMK/vLycPFbjig+LFJjQJpsRHBjRYq0EqyFcCOEHpq8xbU4eoXKfw7Mw+iopPTo+wZQG7A+JXs7hJx1jNfIcDJcNTOTqG1gE6YRe1Z/UuDIfZUoe2HG5kiU1rlQRnR+6B4rQxFGs5LEaF62sSitEvqziky41JvYLCwvJs2JclupP6kbSVHnJhw7BrIOoUch+K6usZUkNN7noQcmTSVz+66+pQkFBo9ZHU+Ul3zjQxPRul377rXY9pCHXRCwsrU1Ly8s1DHfyVaOpVleqFVYW2lmFqptZiWeOYspT+2Q4DHp5XPTdge1dgZxaP9o3wK7gWFxc0o0ykaVUhrF383LPLcotwa4KPMkJZ50fae2pMTHVOHi0a93az9fbVlluTBYNkcgA2m1GRgYmYKXg0W7hqD0nJ0cKGIZFSkoKVh+kgNFuk5KSoJGlgNEDXb16FbpJChhdbEJCgpR9G4gN/QcmrkUXfdl08/PzeXdXSMkVi5ElNRSQLKmvXLkiuk2EzYYsqbFd5uLFixJlRFUBn1LA4ByrDKgDUsDoj6VXWqEIIbX04pMldXZ2NkpKKF39cFlSy2qqWNVqDE2VlwRIjTuXoRx43xoEypJaroLCFjTjPTq8uarXpgoFVR9NlVcQ3kAsfRhvf9RZFg21JMLYtQxpWXwlKbu65vaWwCp1WXZOZlULPy/ttLRNQKeBk1/F5LHumdTH19Z4+4RONOegngOCrVKOHIy7Im5duHkElySlp9woxd67zNP7Ezu2DWFupR//YdMR2/5ju1uc+2HrkWzxDX+8lD6kgdB9bPeJ0QOsCrJhAS3A0gRthZVvfEtgjbt6XNSwQNLcpk5s7EAjJ7imw3ZF7vpRGBbogQhbI5E0RuFsJvEDC/wYnQjlGUkjQvYtkkCXQGjkQHIGDTIPjSDRCuFSv2epYXVBEILUyBhnmbFSE/Z46ksNC4ksNaI1kFqITIQjaS5dVAbYNwQwkuZ2WcJWIBsWXKUF56KVljdRFB8EZ1+xUhOKT19qJI2y5o2Tqzn6UmODDgGMpLmtrNKllttUYVjUR1NFTSA3VSHB0V70pYYmEUIinMu5LKlRBKIKiouZVVCES43vuamimpGbKpI2aKoSFZRoUyVQSn7FtybSwPMWjEd4/7Cd3+38ta3nE2Gq2pqq9PN//JXCdBjV1pXRpJGzX/etc1D3QT3yvv/rTGp2OWkpFV/Z+vfvZ79k18YPzv9kn72/eNj0bopja5et/KW675ppE2oPm32yesUm//9YUfNCMv/QO6jfWKdHU4TpgGUINzc3oa/RTqCCvby8AMYwFHN3hMledA+opgCwMxaYkxfaC4amCzBWTIABGH0SvhJaakFuodGQQ+waww+M4JFhodUTqD9kFYsayDbA+BOLskLbzRAV9Au2r6KTAxj/Ysub0IIIMoneHWCoD4Ahgq9vncPNQhxy4azUoAjrRHKlRr9IkBpvMe5H3jipUWRCy0Cc1BjniUoNfgDjpEb8qDlCkrLTVADjB1tkBIpgfMCgBBiVEEWG3CLPQjGzlRZgIGFbkCstbyQoPhQcYoAqZ6Um5I2TGt0AwGSp0S7YWsRKjfrDbpzkzQakBv/IBqSQJbWsporKINpU0fqwtnV/myqvyAiEFYUqykmN9kjYKoGyhqGA0pGloCCIFAUFqTkFBe0ktBbMKSjQeH+bKjQSih5U6Cso0aYK1QSFSVZQQuRLCee2PkoB1wvGPXz0S5W/7N6wKsHbqlZTW1Vk3nr4f/q0xdJHvsz0HIN6Du1//dqKvwu1rsELz3z1RW6P2QP9eWJRdR4X+3zA+Zyb5UzIpOXRjweZJQb3fPr1dr1Dne3Luz8+WakqdGrl/KyfwsFL774KbUTm1uHPfuToZrgw4xU1eVypq7/u3Af3KJx9o56e38bT8DSA34DZL9a2dbessx/Z0qN179Gv3/LRv8ZCG1PAyOWvWrY02NNuHxg1eFSgwvf2jkP9RB/Yb1RudBhQhdjOAhftBHMBWUTTgl6A1YxmhgMRhFVStrVAz0KPA4bTjEJNF9Gy3Tl6Wahv6Dh/f39uV6YxL+gP0LTQAtkuFi1TyLbAt7AAWJMIX3l7e7ds2VLItgAYqWOgCVXC2ls+Pj5CtgXAEA1IRIvMQzpEbpxVcgirI5B5dDCypMamOQhCkJodMKEIWKlhAQgpLE5qZAZKHEjpUqMCkKWGfsfcD1hFTuBIj9CFIBvoAgFG1QLnOOtBPh2DSosMI37ssxGttLylgGqJ9RTUfFZqgm3BlTXqEkpcltRt2rQhH26ClQBB0PpkSS2rqaJZiTZVtsu8702Vl3kE6kuN4iNv2YFVgWp83xUUihKWIqegsFddaDyDDLMKCrsx6rupol2LNlXkHPVWtKkKkU8Ox5qIoW3RUIshLu0HDQo0d7RH+gqvsN4jHCzjs7TLIiaWNj4hYb66Hta+1aN9XNQWbkbLIErLNkPfcLVzsLC16BLznNqF62ItXNv3HzsrqNgJvby5Z4coO+1pTd7HpXXM46313oQOHau7rwvbL519O8cIjh3NzFtGPmW8ndQxMOpRo3RMbZyDugzhNpdy713axWgPltR9zB08QjrjCIzho4oYhcMpBo+VW2B7N9J5C8MP6vtvNGwsmaPdQkdD+5N3z7Vr1w5gaH/0aviQYCsg29CqWF+HtsI+f7Rb/d3+BkIhafTNrCWO7ZCwFQhbPmFzoBtg124wdocVQuhikSg6P3Z1Bj/wIcGwQNLoktnRNpAYbhJ2VCFpdJnsfCYyj0E2wQrhLUROavRtsqRGD002LDACA4bdCsNKTdjoqi81yASeIDWiRf/KSU0+F4CoYPyxa9iiXSySRm1B1QJXbdu2Je+KZSstBATniJlsDfOSj+Lj8sZKTSg+famRNNlCQs2BYSpdarb1yZJablOFoUYYA9xzU0U1IzdVXuYRiPaCk+1sQ5NS1ji1K1dBQUuIKigAsALIKSiCYfFvFBS5qUJBGTRViQpKtKkKkS8l3NC2wDfcrkop398rxkoVEKD3rWPAo930/9a9snD0bslrHCjMXFt10d06YOEZUHdWwNzFv+PtSQXYFveaO/qdTAaglzt06IDWiysEyLYCIsbwAjCsN0MjEGwFNgtQ3xitol+HyUKYhAAYnRn6ZqwOoGuBFULeqo12joE1voIGJ89YaGuZhQXaNoanSII8YwEw0kWEmCbFDyRBGD0ADOsHuglUYHiNLpbQHwsVCCs1KMJISJbUUCv6Rx+N44exBQxLrHSpoVthDZClBkZfakJ/jNRRQ9DxY48kMkOehAAYnR8qFa6UwHlgobUzTlK20uJiDFRdcq9pTA4bguID5yhrfC5danQDmIQgS41GJEtqNCjcd4R/pUtdH00VrQ/2uqymippAGAMIMY9wDGBkSY2j8qgYsqRGERBsBTZvKE1ILUtBwRCR1VSlKKh7aKpQUKKVlsC/6Cse20L0GwqgDBgzAPWKK4BEmyL7IavWybYCi0S7hXkBjUm2FVgwOlr00BitSgGz5gV6ZXIXy8aMcQBaOH4TBgQcJ+iVoTvQeRAG+hwYihW6GNHeg2HBSQ0dge6KMPXCJSdLajAjV2pIQTYs2JzIkhqVCl0CpENl4AQR+gFbBLaClKqFGFBpO3XqJLHS8qaImobeESLLkppsWLAJyZIatoj01idLallNFcMG8C+l9clqqrzMI1CW1NAh0imSLjWKUq6CAkuNoaki51IqrRD5ouHUthCliAKkMiBdR6OTkKj9kTbUkBRtxeZSFlhK388JL8Wq4MBS7BUOLF06oZKQ2LexnzdFqWUNbaVXLRAivdIKkS+ln7i3spYltSxBpINlNVV0V9Irs6ymKkS+dEFklbUsqWUJAjAeIXEMwhtJU5WYWwOY8RnUe4uHfkUZoAxQBigDlAHKAGVAy4DhvEVtg+y2eCDcw6aGa6uIiAh2B98DyUNTSVTKgAlj5fXr1xOOxukLi0H/t99+S97rzuEx6D98+LDEEQnAOGAmkViApd9uhM1icF4gGjOGOHiwmjtnzhwpYNTDwYMHwxeGFLAQRq7UvJ6feCOXJTWkeOedd3jj0Q8EP7KkxsCObapSYgYYd3hj0UQKGANBeJVjF3pE8bwAyCJLajj0ioyM5I3KgCJZUqP1LVq0CPsrpcQsS+p6barY8SBr/s9AOlAkS+rGoKAwrdW0FJRojZIIMDHwNllcVnnjVuWFM0ftrXgcUJ07dw4uf3CYh3CLjsSEGx6GVS7ozYZPt4mmCC1AuIAFQmF/H3mvexMVvFFlG9u+eO9Ngolcr2uljYqEB5UZ7P83vn4NZrcUO+ZB5bnZpMtrDWNfkcTBTLPhoeEFwTE3KVff4qgXds3DiQ/vLXDBHboZz1vA2NC7gbvhJau3FHEEGU+9Rf/QRQxjXLo9/tCxU88Cnz59up5ToNHzMwCDm7fb40fT0PvKAI5jsEfB72usNLL7zwCsCMP9FrAsamo0BpMZ9z9lGiNlgDJAGaAMUAYoA82RAZzY57EtcF0XDuY1R3mpTJQBygBlgDJAGaAM1C8DVdXVhmsiMDcqKyo1dzyH1W/6DRs7Ll03Xj1t2Cw0mdRwZB8XJxOcbDUZSWhGKQOUAcoAZaBhGcDN/zy2hVpdXl1T3bA5aYjUcDvvwYMH4RWiIRJrymn069evT58+WNektkVTLkaad8oAZYAy8GAYgKcSQ9sC3UlpaRmWRR5Mjuo5Vfi2wZ10w4cPr+d0mnb0uCYSLNE9U027FGnuKQOUAcrAA2IAqwSGtgWsCoQ24wEr7iGYMGHCAyK8aSRLT9M0jXKiuaQMUAYoA42SgbKyUsO9nDp3z6XVVc1z3qJRlgLNFGWAMkAZoAxQBpoPA2WlZYa2BWYsysqb536L5lNuVBLKAGWAMkAZoAw0Vgawa9PQtqjRaCrUFTgt0ljzfJ/ydW79kO6t4RkPz8s7i/giTfphzthOLOLOv7G/MeVFOyfXDYx+Ycmh9IQtLw9/pG74nD+qrl1YO6Zu4JC3tlzIO7dqSPcAvfAWwY8sO1aSGLdiRF3wiPd3J944teiRYK0b0DtPQMce68/lndjyVv+64HFrL9wo55ODhlEGKAOUAcoAZaABGaioqDTcb1Gr0VTXVDGaB+VWpDov8ef/Tf746F0Wgp+cPf3pmHbOTPymyVsspr46pqPLv6YofvXCdd7DPr+wN9rnzFzHIW8MvbVmoGGkmspyt6Fztjz7yqBWtnfflRXWWtr2/fTI9rG++h/Ef1nm+eQHP700safKgguvyjhn5hny7Oadq4Z66oNP77vV8sWvvpwyMMheyYUXJxy0DOj80owtS3qp9MHH1cWBsw+cnhlupxeae+ScXcTwdxZ9NCPS2TDf9G/KAGWAMkAZoAw8QAYwPWFkW9QyuNwCXkYeXLYsvdsMf39xbDedCVFyee9/vz9wyN1xYMfQ8esW359c5eWllkeFRXo52DNMdMwky/mXE6p6upfVKK1sbZS11ZXqsgrGvIpeH0ZmG6d5k5OTRa9Zg1etESNGxMfHw0GJKBh+fbDTdu/evfAnJ3o5LDw7wKPVN998k5ubS84q3sLz2axZs5YuXYrDUaJgOzu7uXPnLly4UIrfHJVKNXHiRHjAqqysFI05MDCwb9++GzZsEN0uDedeoaGhAwYM4HWuFhcXh/v8RZOTK/XMmTOXLFlyf6WGcy/48ZEudVhYGFjavn276Gk1eFTp2rUr/ATt3r1bFAwXWY899hg2qoM60XlZgIcMGQJ34QUFBQYkg/YTJ06IlrUsqeGCC3vMpUsNZ2lwP/b7779LEUS61HKbKtywHThw4L43VRsbGzif471YHa6s4F5HotQou5MnT4rqHFlSo0qMHz9eloLauHFjURHv1HidmtV4murIkSPPnz8vqlvIANBuaFvoPjAhf9aQb+28WwZUnsnPvFHS1q26uNTE3t7GvLoo55apjaK0VG2iUFrbOdpZKphqdXHJrbIK7RZUC1tnBxtz05qygutVth4Od+cR7uS7Ji8rwccx3MHGUhsS0Cby7OGEg28OmhLXaebXa8cwcRsXv7HNZfLEAKa69GZuZnqqwlr3pa3Kz9WGYWo11WXXM1NTWdNDae3o5OSoBVTdKshJT0stZV282br5uWJSora6ojgvA77ddDGY27g6O9lqU60systMS1Paaek3MXNwb+GEH5gpKcoBuFQHtrR3c3aw1sZWeTMrPdUZSQNrau7g5uWIXzXqWzey01NTi3VgKycvFztzM8MVLt27enx27NiB68hgEBDSmDp1KtxOwrbYsmULOi2yF8TZs2ezvlI/++wzdPDoXwkxr1ixwslJSxy6QzhOIyDxauvWrWzSMC98fetMOhl/uGvXLgRCI3z66adeXl7GAP2QP//8E3/m5eVBiZCdt0F97Nu3D90S9OPPP/+MTpEQM3qaadOmEQCypF62bJmokyfc/iJXavQr27Ztc3NzI+QTnKAOSJd6xowZWVlZp06dOnr0KNb9CDFHRUUBDBsX5gIsV7Lj3FGjRsHH2LFjx2CI4Hw12dMvDFy4GBVymCxLamQM3nSdnUkTjDAspk+fLl3qV1999e+//0a0qEjSpc7Ozr6/TZWtUbKaKtqsqDPkdevWEbSEdKlRn+UqKFj8ZBeAixcvbroKatOmTVKaKqHFyXplaFuYmDCmClOmprGYFxWlxaW1dm6utlbmidtns2siiWvHfcGMDs88f1mjtAmJfnHSII/Si4e37T10MfeWedl18w6Tpo3v0aLizOYl1wauGG3shPhGQX6Zo42HlaXODGjRMtB0Y4r/nj//9+GT77zxVlGH63+ZPbFoTmyrw7EHd373vz8Pb4Lpon1iFh6cHQ0L4NbNU2tmTfiBtVkCoiZMfmlCN7zO+/OrD+J+c1CyzA1denBWOMNU5CbvXxGbvpk1OEL6zZ72Qkw7gK/t/Xj2X5utFAArrTye+mDr8wEMU54Zv3vJtMsO7EJJx6cWTx0TFQhw6vcLX/rLVpcJa6fAMYvWjYMqL0mI235o6iF7tgC7QC5MzQAAFHhJREFUvbgudligm87+aNgHfXZ0dDQhTXjy5N7u2bMHapQA1j/+Cu1J7lpycnK4qDCgIUSLV7jahAXY29uLgrlOBTMH8P1LjpkDw5U22z0L4WHLc3lGV/fll18KIRGOzlifOl6kqCCc1OgGRMEcQJbU/fv337lzJ2/22EDMKMDwYn9LkbqwsJAFx8bGYuqIEDPchnGuepcvX04+Ww7vjtwQ9osvviBfcsPlQSh1WVJjWgt9qlBUCMdcGrInXWpu7k2W1E2lqcLGInCFV/UnNYxUPz8/QupcTQamySkoWZWWQIKUVyamJka2hamp0kxZXf0AbYua8pLs+BNxGt0Gg4LkM9dd7Ttqpx/uTmXXMCXXVQNXfPRs0pG9P+w9mRHdJeVIQo1bnzdm9PQrPL1+e3Z+VaWXS1SsQHPGJJii8la5bmZNwZSVljB2NjYOrj3/E9vjmynvpXebtGxSTAvmH4bxfOyFcQb7LfCFvarnW9sM91swjPegV18z2G+ByQfvNk/8Z7vBfot0hvEf8947BvstGMYmIOIZo/0W4CD4+S+2Gey3YBjHDjFTFzTW/RYwEZKSkjBfLaUWom/GDIFEv9WIFmML3O4lJWYMGXEJmOgsBRsV5mAxdU+eS+AShQ5ChhG5lGxgrqJ3796YxJYCxqh68ODBUpBCmPqT+o8//kCZkkf8XK5kSQ3rhNzZ6wsrnSLWZynIF+JKP1xWpRWKUHreEIN0qVHnQT76BqF09cPrT+pG0lR5SYAOQc3HVBbvW4NAWWUtS+orV66gpUOTSMlG/TVVKKjw8PD6aKpS5AJGoZ2iqPuYKRTmFuZ4ITGKeoBp1Drbgn0ul7j3Gzokwt9FXzErzXx7dwlgzMzM7a2sKwtLa5z8H3Flcv7+Y8fuX/6+GdK3S1vtMongY+/m5Z5blFuCXRV4khPOOj/S2lNjYqpx8GjXurWfr7etkp64EGRP9AVG2xhYfPDBB6JIANBuFy1atH79eilgzH7Pnz8fwy8pYMw3YIMF1oOlgLGCPmXKlIsXL0oBI87JkyenpKRIAf/000/PPPMMlvmlgL///vsnn3xSClIII0tqNDFZUmOlWX/cJpQHhMuSGotlTzzxBCE2/VeY7Bk7dqwUMCZ+Vq9ejeUDKWDsopBeaYUihNTSi0+W1GvXrsXWIqF09cNlSS2rqWLKrTE0VV4SIPXHH388b9483rcGgbKklqugsKqL5U4p2ajXpgoFVR9NVYpcLMZMabRCj11FlhjWKwhds/T47w2pdPIKHzUVZaR7Xhkd2cqVXVIQjs4xKCompmeQsjAj8cKfP2779WJueQ1hN6qbR3BJUnrKjVLsvcs8vT+xY9sQ5lb68R82HbHtP7a7xbkfth7JFt/wJ5ydh+8NNieyGwAxtQurAnsaCBxw88P5+fnvvPMO2bDAai4bFWYsFixYgJ2bQjEj6f/7v/9j3549exZ157fffhMCY7GAUwFYg3/99dfxiRAYSWMUzr7FD6zxJyQkCIERDyJk3yIJdN7G+wG5b4HEThT2T2Qe/Ud5uTy79p6lPnToEHZuEqRGxoDRlzojI0OK1LCQyFIjWn2pJ02aJBQtwkE4t7KDyvDcc88RwEgalYoF/Pe//0WxEsBcpUXV/fDDD8mVljceFB9HICs1ofj0pUbSZKlRc/SlfuWVV3gzwAYiaW5JRbrUcpsqthrUR1NFTSA3VSHB0V70pX777beFkAgH4exbWVKjCEQVFBczq6B+/PFHoWzcc1NFNSM3VSRt0FQlKijRpioki2g4dswYrolobQtLK/WDtC1Es20EKMk4EZ+p8ejyVI/B5gVHVsz765q68hHGRtA+sg0cMtR14Y5P5/xpZ5t3uHz0272YQysWLt9nOnzjjLE1Ry1WfLx0jec4e3lK3ihXD1MABjTYkv3RRx9hjRxbGjElSFCdGEriZAf0PsAYvXXu3JkwbAUGY0oA8BW2WGKHfExMDC+1GI4AjL2lvXr1wg9sscQ0e5cuXXjBmAIBBu7rvL2933zzTSyIYFEc2yd5wZi6xLERSIee46233rp8+TJ0PT7kBaORY2YFHRU2DGKWBYvH+Bfby3nBv/zyy5EjR9Af4CtoMWT+/fff50UKBbJSYwEeazSgVLrUEB8jJ4LUmMvBWBCWIic1du8L7UnkpAax0PJkqX/44Qf0KJzUyDxO2QgJiBqCCoCcoGN77733ACNMia1atQqRr1y5EhUSn2CrL8G8YCst7BVQ8fnnn5MrLW/2UHxYqsA+WdQQVmpC8XFS46t3332XLDWExaZCTmrswYRhzZsHBEJq7GTCvuM5c+bIkvq+N1UYdpilk9VUMbmIMQChqQpJDdqxr5OTGnuusWVYCIyyxvYI1By5CgrnlUQVFAYPnILCwS7oH95scAoKSklWU4WCgnYlNFVUP2gP/aYKBSXaVKGg3njjDXJT5RVESqC5uQWPbYHtCKZNy7Yws7KqyPz9pwO/VynMKvIqgge0Vdkois589Xluj9kD/XmYcO7w1Msvep3PuQnzoeOo6P5+FolhAyd0bNc7yNGuvOuQSbHOhU5Bzr7BCgcvvfsqtBGZW4c/+5Gjm+EVG15Rk8eVuvrrzn1wj8LZN+rp+W08DRfl/QbMfrG2rXvdZRtLj9a9R79+y0f/GgttTAEjl79q2dLgIIZ9YNTgUYEK3wewd1NfwDq/oZ2x5Il5BR8fHyg7IQuA/Qb9Cra4o93iwCH6bMIqKWY70WagRH799dfu3btDoQiZC4gZy6gYXWFzOLrYxx9/HF0RtiUK5RgHaKGv0QLRbnGaDn0D4SQF7AmMrpAZ/MDxDZgaOHoqFDMsFegOqBIkgTaPMQfalBAYihUTIehrkXlIh/MCQkihcHyIVLCt5PDhw9KlhmEB+w8MEKQGRl9qdF3YCSuUDVZqzJxDZ8mSGt3Dyy+/LBQtwlFPwDyWovAvukPynk32OBI+gT2HPZvYPUqIGZUWlhP2z7u4uIhWWt54UNNQvpg5Z6VGT8kLYwPZsgarMGplSY0xOvpsQsygBcYKWp8sqWU1VRycEW2qmP6BrSyrqcI4E620QoLrSw0bcdiwYUJIhMPqwjLBfVdQKEp9BYXTW4Tt6qyCwhhGVlOFgpLbVKGgRJsqFJSUpkqglPBKaW5uuN/CxNTUzExBPvtHiPFfvzJ18Agf9OLQEMMuFhH79H7lmSh/vAgaNn9ChPZsmoWLf5eY5/r7u7q2jugxuN9j0eij+o4Y9WSkL86gWnp2iAoUPMHm0jrm8dFQUnii/MwZ+9ChY8cM6+COSK2cfTvHjOnXNSIiqkvH9i30rrfSCmdm3jLyqd4Bhp26Y2DUox1ae9Q1F0xtnIO6DIn0YY+w3qXGpV1Mr/Y+9nW5N3fwCOncP8LD8DinKmJUv7Z1dpto8+gW2D4iKtTA7vnX5N97BFDi2DeEdoseF5qabFhgAIe9adD+2JINjUAwLJChr7/+GqN5aCuYFJ988gnBsMDxKug+zIhAW+FyAjRygmHRrl079JqYS0S7HT16NMaRhC2f2MAIewJnvlnDAl0s4azp0KFDESGiReRIAnYD4ZTgmDFjsNMQGUa2kXl0sYTTd7zFw0qN1QpoK1lSYxgEw4IgdZ8+fYDRl1poJISMcVIjJyCTLDUUpb7Uzz//PK9obCCMrbZt22KNAHtWUBnIhgUsS1QqVC18+91335ENC7bSorqi6sIiIVda3hyi+MA5mOekJhQfJzXq85o1a8hSo47pS002LCA12h27XChdarlNFUdDRZsqykhuU0VNIDdVXuYRiLkufanJhgXKGp/IVVAoAlEFhaLUV1AEw4JTUHKbKvQJualCQRk0VYkKSrSpCpEvGq40PsuLK19weuTBnRIxtbB1D+io7eONHjvfMHYM6hz4KHtY3MzawTOAnRVQegQ/4hGs/40CtoVRHDSgfhjADnboFGhnbGfDUUxyIpj/RFeB3UbQg506dSKD0a4wssSYErPEMAgIYPQQ0Neov1hEhN4RWuBgY8B5EAwxcT0X5vCh2sgHzzw9PTEOwHIprAT8ILRbRI6pdUSIg5fIAJIgnyXBgRfsNwQV6AXxr8R93foksFKzV0LJkhpTC4QZCyQBswMYnKaSJTV0K6amyVJj+UZfavIJGmx3h0kBftCDkm0F5BmdHyoV+nvR85YAs5W2R48eqLrkXlOo1qH4wDkMZXwuXWqYR88++yxZavQWsqRGu8MdWVg0JB8I15e6PpoqltRR+WU1VdQEice+DEoBRoksqdkhhyypUQQEW4HNz7hx4zAUl6WgsCgmq6mCUsIYANmAgrqHpgoFJVpphWq+aDiWPgzXRJha5kHeySmaZQporAxAveKyI4lHSQcOHIgpbsK8AiclzF+cC4DGJNsKLB69IHpoTLH6+/MthdWlDuYFlhthuAjtnNCHw55AC4fqJCyFcHhYKpiAxew0YaDPgaFYN2/ejGgJ0xvkMseHmFaBjiMrIDYSWVLD+JArNTJDNizYbMiSGvodZztRpsZjIWNmYK1KrFr4FpUWmzFF+w/jVLgQVEuMiSGydKlRl8h3WLGRy5IaBr301idLallNFTfwgv/73lSF+JclNXSIdIqkS42ilKugwFJjaKpQUOQLhIRolxIOe8vItmBqazQ11LyQQh/FGDAg0bDAV+ikpRgWbPxoA1K0FQtG3ya9k5bS93MykqcrDKiQYq9wn0ixhMiVTWLfxkbSFKXGYj+ZAf230qsWvvo3hgWbqJR+4t7KWpbU0lufLKllNVUsCdVTUxUqfVlSSwfLkrrZKygh8gnh2ks4DV5jlhi314m6ciBESl9RBigDlAHKAGWAMvDQMmACXxYGwsOw0FQ3T9sCszS4PyAiIoK7pPmhLXhRwaUs/GOCGgurmDYX5RMDZQxovv32W/wQBWPWAacqsN0J+xu48+uEDAOclpYmGi0bA8A4iiYRjJ0TOE0nCtZuUTIxwfAX++9EwVhlRz3EzZs4TCsKJpwukSs1jjOIJsfu4JYlNaSAEzLRmGVJjVEgRo0Smyr8WgGMw7EYkopmA7M7yAmWuuHgRhQsNF2MspYlNY4gYepeNDlZUsPVDlofzlUSnJ5wTUaW1LKaKrSE3KaK05KiVBAaO8paltRyFRSagGj2cP5CltRYNGlaCorAv/RX2FsBj6d1LplKTs/++0pSYV6mv08dv+BspDg9hb118DsgxVOi9Hw0DBIrzRKvYm2Y/DTyVKAFOGcNvFmFezBZywS8kdBAMgM4J4bDusYYmMhSNh8Yf0hDpDNw9epVHAEwwKNDlT61Lj0tijRggNcPKpYayRuQKY3/ngGM6HAgTjQe3DqD60ywf5/3nq5aS2fDeQuYGjXV1VgXEY26yQFwthhPk8t2o80wjHE8jTZ7zTtjp0+fbt4CNlrpWG8djTZ7zTtjuI8BT/OWsXlIhykLw/0WGk1NRWVlTXO0LZpHmVEpKAOUAcoAZYAy0JgZwN4KQ9uiurqmokKtcxFKH8oAZYAyQBmgDFAGKAPyGMAkheGaCKwKtbqiltoW8pikaMoAZYAyQBmgDFAGtAzAkDCct6ipqa6oqKTzFrSCUAYoA5QBygBlgDJwDwxgAcTQtsChEZgX9H6Le2CTfkIZoAxQBigDlAHKAG7gNLQt4EkEZ3xxhpuyQxmgDFAGKAOUAcoAZUA2A7W1hrYFDs1bWVqaNS0f67Llph9QBigDlAHKAGWAMlAvDMBXmaFtAbfrdvZ2SqV5vSRII6UMUAYoA5QBygBloFkzgIuYDc+JWJib29s71JQXCwm+ceNGHF0VekvDKQOUAcoAZYAyQBlo3gxgUybhjlTcYW9oW5ibWzjY25fe5J+3GD9+vNA1+82bRyodZYAyQBmgDFAGKAP6DOTk5PASYm1sWyiVZjY2tkozQ5uD/f78+fO8EdFAygBlgDJAGaAMUAYoA2AAHtoM91soFGYWVuYKAduCskYZoAxQBigDlAHKAGWAwAD2WxjbFqbYyMl6WyZ8SV9RBigDlAHKAGWAMkAZMGYA0xOGtgVutjBTmJkw9H4LY7poCGWAMkAZoAxQBigDIgwoTI3OoDImJlgWoaaFCHP0NWWAMkAZoAxQBigDfAyYmJoYzlvwwWgYZYAyQBmgDFAGKAOUAakMUNtCKlMURxmgDFAGKAOUAcqAFAYMz5r+dXB/ZLcevgEhSqOtGFKioxjKAGWAMkAZoAxQBh5mBrAkYmhbnD55ok90r5bebrcqtds5azUazifqbQdmt3d5GrgzayZ7P5uJGA1VqWsZ+M1lN+foaovuT8On1jDQwMsuz3v9KPRe10UKfqdNr06apO8MwPwicPkxSlP75o5jP+0O6Nu7oHWtQ/sP/n+npRj9aUiU0N/88tyV0ChTdwL0PhSk4A5GEMDmSiJMSIQ74br2dfsfjq7bxOj4Yv+5/e+dP7jtX3c/F0uoOb2vU5fvj2CIklV1/HGzLVRXJXT/16tI+n/q1zNd+O3YUJB1P7nTBPgzz6N0eYK4b40jux+eNY1jZRMUCucXhS/038egzy1fCnfDjB2YG4eQYqirBXiQoJrF6DjXL6bbYuI/uld2FgwqQZ3qdfDgwbS0ND8//2oNo6llqvB//fd6kdGzJDzU0yAeBgz1V52/DV8af38bYQg0/Fv/Q2IKpA8RCek177s6bYLLxR0jQxvA81sXKvUxTJYoHj8PEj65CzFMT5AVHqAEmQwJ0/191yy7HcPtUPYv6VxJSJ9CxBioo/SNCtnQ/jYCiEUv7b1wmddX18OfIn+oNBm0qH/7vS4lyRwbAY0CpOdcNlIrqonSlDE1YXKyMgxti9zc3KKiIhgcarW6oqJC909FZVVlTXUN3IjcsWcbMr+yBaQfUAYoA5QBygBlgDLQcAzcmYeEE3V4U0e6hmsiSqUSHkOqqqrww0L7VFRWVuLPmprbtgU1LxqutGhKlAHKAGWAMkAZaPQMsEsh+BcXb8K2wGM4b9HoRaAZpAxQBigDlAHKAGWgUTPw/zogzBd6JhfgAAAAAElFTkSuQmCC;strokeColor=#1F7AF0;" parent="1" vertex="1">
                    <mxGeometry x="-160" y="245" width="713" height="197" as="geometry"/>
                </mxCell>
                <mxCell id="sM7gWOrMKNCkHspFWOEM-3" value="Text" style="text;html=1;strokeColor=none;fillColor=none;align=center;verticalAlign=middle;whiteSpace=wrap;rounded=0;" vertex="1" parent="1">
                    <mxGeometry x="310" y="290" width="60" height="30" as="geometry"/>
                </mxCell>
                <mxCell id="sM7gWOrMKNCkHspFWOEM-4" value="Text" style="text;html=1;strokeColor=none;fillColor=none;align=center;verticalAlign=middle;whiteSpace=wrap;rounded=0;" vertex="1" parent="1">
                    <mxGeometry x="310" y="290" width="60" height="30" as="geometry"/>
                </mxCell>
                <mxCell id="vEi451--FYtePmdFeqCN-4" value="" style="rounded=0;whiteSpace=wrap;html=1;strokeColor=#1F7AF0;fillColor=none;strokeWidth=4;" vertex="1" parent="1">
                    <mxGeometry x="370" y="300" width="120" height="70" as="geometry"/>
                </mxCell>
                <mxCell id="vEi451--FYtePmdFeqCN-5" value="&lt;font color=&quot;#000000&quot;&gt;10&lt;br&gt;01&lt;br&gt;&lt;/font&gt;" style="text;html=1;strokeColor=none;fillColor=none;align=center;verticalAlign=middle;whiteSpace=wrap;rounded=0;" vertex="1" parent="1">
                    <mxGeometry x="470" y="260" width="60" height="30" as="geometry"/>
                </mxCell>
            </root>
        </mxGraphModel>
    </diagram>
</mxfile>